<svg id="svg" version="1.1" xmlns="http://www.w3.org/2000/svg" xmlns:xlink="http://www.w3.org/1999/xlink" width="400" height="339.22261484098937" viewBox="0, 0, 400,339.22261484098937"><g id="svgg"><path id="path0" d="M141.460 99.730 C 134.956 100.609,126.980 102.256,122.755 103.594 C 121.949 103.849,120.602 104.248,119.763 104.479 C 118.923 104.711,117.971 105.039,117.647 105.207 C 117.323 105.375,116.824 105.513,116.539 105.513 C 116.254 105.513,115.756 105.663,115.432 105.846 C 115.108 106.029,113.240 106.884,111.281 107.747 C 99.143 113.092,88.171 121.325,81.484 130.105 C 80.629 131.227,79.841 132.222,79.733 132.316 C 79.517 132.501,77.553 135.518,76.420 137.405 C 75.581 138.802,72.934 144.112,72.106 146.056 C 71.789 146.802,71.389 147.678,71.218 148.002 C 71.047 148.326,70.908 148.890,70.908 149.254 C 70.908 149.619,70.772 150.001,70.607 150.103 C 70.442 150.205,70.226 150.710,70.126 151.226 C 70.027 151.741,69.781 152.774,69.580 153.520 C 66.181 166.140,66.439 182.484,70.256 196.268 C 70.462 197.014,70.710 198.123,70.807 198.731 C 70.904 199.339,71.118 199.921,71.284 200.023 C 71.450 200.126,71.586 200.508,71.586 200.873 C 71.586 201.238,71.727 201.801,71.898 202.125 C 72.070 202.449,72.513 203.554,72.883 204.580 C 74.697 209.614,77.001 215.077,79.292 219.779 C 80.683 222.634,81.974 225.458,82.160 226.056 C 84.329 233.006,84.821 236.919,84.834 247.328 C 84.845 256.125,85.252 261.037,86.524 267.684 C 86.721 268.711,86.968 270.048,87.075 270.656 C 87.181 271.264,87.403 271.846,87.569 271.949 C 87.735 272.051,87.871 272.499,87.871 272.943 C 87.871 273.388,88.024 273.846,88.210 273.961 C 88.397 274.076,88.550 274.388,88.550 274.653 C 88.550 276.429,93.121 284.148,95.381 286.187 C 100.149 290.491,107.319 292.729,112.259 291.457 C 112.934 291.283,114.402 290.962,115.522 290.744 C 121.865 289.510,131.336 284.523,140.967 277.347 C 144.126 274.994,147.338 273.095,153.792 269.766 C 163.071 264.979,168.111 261.110,172.186 255.640 C 172.743 254.894,173.312 254.232,173.452 254.170 C 173.592 254.108,173.707 253.893,173.707 253.693 C 173.707 253.493,174.079 252.841,174.535 252.244 L 175.363 251.158 179.878 250.959 C 186.505 250.667,189.434 249.454,193.748 245.219 C 195.582 243.417,198.473 239.781,198.473 239.275 C 198.473 239.040,198.608 238.846,198.773 238.846 C 198.938 238.846,199.160 238.579,199.267 238.253 C 199.374 237.926,199.869 236.972,200.368 236.132 C 202.702 232.201,204.241 229.038,204.241 228.172 C 204.241 226.622,201.546 221.961,199.264 219.565 L 197.172 217.366 194.684 219.616 C 187.785 225.855,182.765 225.216,181.374 217.921 C 180.862 215.232,181.047 215.258,177.581 217.393 C 171.783 220.964,163.587 222.972,156.879 222.464 C 154.142 222.257,154.753 222.047,148.872 225.220 C 131.885 234.384,117.184 229.675,116.124 214.730 C 114.777 195.747,137.840 187.962,154.356 201.824 C 159.039 205.755,161.778 206.647,171.671 207.467 C 187.338 208.764,188.585 209.099,186.758 211.515 C 186.182 212.277,186.091 214.275,186.618 214.601 C 187.230 214.979,188.454 214.488,190.708 212.961 C 195.748 209.547,197.576 209.989,202.432 215.799 C 205.155 219.057,205.394 218.840,204.232 214.160 C 201.592 203.530,203.632 196.539,211.041 190.830 C 215.877 187.104,217.915 186.745,220.260 189.207 C 222.242 191.288,221.724 192.586,218.226 194.305 C 209.426 198.629,207.203 205.448,210.065 219.338 C 210.642 222.137,211.186 224.837,211.275 225.338 C 211.363 225.838,211.611 226.311,211.825 226.388 C 212.477 226.624,221.037 224.374,222.642 223.544 C 222.966 223.377,223.397 223.240,223.600 223.240 C 225.442 223.240,236.520 216.711,239.622 213.798 C 244.533 209.184,250.721 199.295,250.721 196.060 C 250.721 194.938,251.870 194.506,255.980 194.084 C 260.310 193.640,266.965 192.591,269.211 191.999 C 269.958 191.802,270.950 191.563,271.416 191.469 C 271.883 191.375,272.570 191.174,272.943 191.022 C 273.316 190.871,274.309 190.547,275.148 190.302 C 279.603 189.004,285.730 185.538,288.520 182.738 C 293.990 177.250,295.410 173.086,295.078 163.515 L 294.891 158.131 295.823 156.673 C 297.609 153.882,301.426 150.878,305.779 148.839 C 308.488 147.570,312.682 146.048,314.843 145.549 C 315.496 145.399,317.176 144.967,318.575 144.590 C 325.497 142.725,336.370 140.994,349.874 139.608 C 355.301 139.051,355.891 138.889,357.840 137.428 C 365.258 131.871,351.168 116.697,333.673 111.402 C 322.394 107.989,304.342 107.459,290.755 110.143 C 280.218 112.224,273.719 112.732,260.123 112.539 C 254.112 112.454,246.522 112.190,243.257 111.951 C 236.419 111.453,221.656 111.327,218.660 111.742 C 216.913 111.984,216.384 111.918,214.928 111.278 C 213.282 110.554,210.224 109.392,203.562 106.957 C 200.401 105.801,199.155 105.413,196.777 104.845 C 196.124 104.689,194.750 104.331,193.723 104.050 C 188.533 102.631,179.353 100.855,172.014 99.852 C 165.796 99.002,147.393 98.929,141.460 99.730 " stroke="none" fill="#8c2b1c" fill-rule="evenodd"></path><path id="path1" d="M0.000 169.635 L 0.000 339.271 200.000 339.271 L 400.000 339.271 400.000 169.635 L 400.000 0.000 200.000 0.000 L 0.000 0.000 0.000 169.635 M166.544 98.412 C 179.148 99.571,188.816 101.400,198.982 104.547 C 201.408 105.298,203.658 106.051,203.982 106.221 C 204.306 106.392,204.782 106.531,205.039 106.531 C 205.297 106.531,206.253 106.823,207.164 107.180 C 217.290 111.146,217.678 111.265,219.047 110.839 C 220.944 110.250,233.461 110.367,244.444 111.078 C 262.712 112.259,276.947 111.784,288.403 109.610 C 316.120 104.349,339.987 108.797,353.597 121.760 C 364.156 131.818,363.097 139.105,350.896 140.342 C 348.327 140.602,345.233 140.956,344.020 141.128 C 342.807 141.300,338.838 141.838,335.199 142.323 C 309.982 145.685,294.545 152.955,295.828 160.864 C 298.341 176.346,290.335 186.855,272.095 192.018 C 271.255 192.255,269.881 192.651,269.042 192.897 C 267.345 193.395,260.553 194.473,255.216 195.093 C 252.339 195.427,251.739 195.595,251.739 196.069 C 251.739 196.384,251.613 196.786,251.458 196.964 C 251.304 197.141,250.965 197.973,250.703 198.813 C 247.624 208.712,237.255 218.846,225.615 223.332 C 225.148 223.511,224.538 223.767,224.258 223.899 C 223.588 224.216,216.324 226.517,214.589 226.963 C 212.124 227.595,212.196 227.208,213.229 234.313 C 215.147 247.502,215.947 258.560,216.284 276.536 C 216.476 286.801,216.768 286.131,212.037 286.292 C 209.740 286.371,208.451 286.279,208.192 286.020 C 207.909 285.736,207.801 280.105,207.795 265.207 C 207.786 243.727,207.767 243.389,206.122 235.284 C 205.026 229.889,204.778 229.742,202.919 233.389 C 201.754 235.676,200.062 238.470,197.559 242.239 C 193.572 248.242,187.189 251.731,179.882 251.900 C 177.588 251.953,175.664 252.053,175.608 252.122 C 175.551 252.191,174.690 253.469,173.694 254.962 C 171.647 258.031,167.091 262.715,164.004 264.925 C 161.836 266.477,160.722 267.112,153.535 270.893 C 147.258 274.196,142.913 276.849,139.153 279.676 C 135.951 282.083,134.534 283.065,133.164 283.826 C 130.675 285.207,129.709 285.787,129.262 286.168 C 127.737 287.466,120.681 290.364,115.866 291.671 C 105.109 294.589,94.317 289.738,89.678 279.898 C 88.165 276.690,87.532 275.138,87.532 274.639 C 87.532 274.354,87.391 273.856,87.219 273.532 C 85.317 269.956,84.036 259.454,83.960 246.819 C 83.901 237.046,83.660 234.914,81.930 228.838 C 80.907 225.243,81.149 225.829,77.896 219.079 C 76.478 216.137,75.318 213.661,75.318 213.576 C 75.318 213.491,74.954 212.615,74.509 211.630 C 73.422 209.221,70.568 200.757,70.568 199.940 C 70.568 199.581,70.429 199.142,70.259 198.965 C 69.757 198.443,67.640 189.483,66.976 185.072 C 66.120 179.383,66.100 165.776,66.942 161.154 C 68.011 155.285,69.537 149.638,70.285 148.787 C 70.441 148.610,70.568 148.219,70.568 147.918 C 70.568 147.617,70.874 146.739,71.247 145.966 C 71.620 145.194,71.925 144.425,71.925 144.259 C 71.925 143.178,77.333 133.762,79.478 131.108 C 84.381 125.041,86.561 122.778,91.942 118.174 C 96.632 114.162,107.794 107.853,114.334 105.518 C 114.987 105.285,115.980 104.902,116.539 104.666 C 123.271 101.833,132.948 99.739,145.377 98.426 C 149.380 98.004,162.014 97.995,166.544 98.412 " stroke="none" fill="#fbfbfb" fill-rule="evenodd"></path><path id="path2" d="M212.892 189.589 C 204.063 195.450,201.358 203.101,204.205 214.160 C 205.425 218.899,205.167 219.131,202.390 215.798 C 197.474 209.897,195.797 209.521,190.459 213.126 C 186.807 215.594,185.073 215.027,186.603 211.866 C 187.405 210.210,187.329 209.889,185.969 209.185 C 185.076 208.723,183.796 208.574,171.162 207.452 C 161.698 206.611,158.677 205.586,154.125 201.668 C 138.109 187.883,114.747 195.915,116.130 214.730 C 117.133 228.358,130.116 233.860,145.038 226.980 C 145.785 226.636,147.082 226.037,147.922 225.651 C 148.762 225.264,150.594 224.324,151.993 223.562 C 154.512 222.191,154.564 222.179,157.117 222.400 C 163.937 222.990,172.096 220.868,178.448 216.852 C 180.993 215.243,181.013 215.247,181.307 217.464 C 182.314 225.053,187.709 225.923,194.678 219.621 L 197.160 217.377 199.118 219.391 C 202.498 222.866,205.749 229.818,206.784 235.783 C 207.089 237.543,207.408 239.095,207.492 239.231 C 208.412 240.719,208.857 260.451,208.309 275.434 C 207.903 286.520,207.653 285.825,211.962 285.568 C 214.085 285.441,215.299 285.221,215.492 284.927 C 216.089 284.020,215.242 255.941,214.414 249.177 C 214.230 247.674,214.081 245.766,214.082 244.936 C 214.084 243.476,212.808 234.693,211.989 230.534 C 211.769 229.415,211.485 227.583,211.358 226.463 C 211.231 225.344,210.653 222.137,210.072 219.338 C 207.101 205.011,209.152 198.976,218.660 194.078 C 221.658 192.533,222.039 191.231,220.110 189.126 C 218.157 186.996,216.654 187.092,212.892 189.589 " stroke="none" fill="#f9c90c" fill-rule="evenodd"></path><path id="path3" d="M145.377 98.426 C 133.905 99.638,127.068 101.014,119.104 103.716 C 117.694 104.194,116.394 104.718,116.217 104.880 C 115.669 105.380,116.417 105.220,118.916 104.302 C 137.767 97.374,164.256 96.629,188.804 102.336 C 198.168 104.513,211.176 108.765,216.339 111.337 C 216.748 111.540,217.647 111.604,218.374 111.482 C 224.200 110.500,226.778 110.515,245.123 111.642 C 264.573 112.838,277.703 112.293,290.246 109.770 C 303.272 107.151,321.292 107.456,332.146 110.479 C 350.715 115.652,365.740 131.236,358.241 137.546 C 356.307 139.174,355.358 139.436,348.863 140.136 C 339.230 141.174,326.770 142.991,326.378 143.415 C 326.285 143.516,326.743 143.516,327.396 143.417 C 328.049 143.317,331.561 142.832,335.199 142.339 C 338.838 141.846,342.807 141.301,344.020 141.129 C 345.233 140.957,348.327 140.602,350.896 140.342 C 373.317 138.068,354.180 113.677,326.039 108.661 C 316.565 106.973,300.111 107.387,288.403 109.610 C 276.947 111.784,262.712 112.259,244.444 111.078 C 233.461 110.367,220.944 110.250,219.047 110.839 C 217.678 111.265,217.290 111.146,207.164 107.180 C 206.253 106.823,205.297 106.531,205.039 106.531 C 204.782 106.531,204.306 106.392,203.982 106.221 C 202.055 105.209,191.062 102.197,184.185 100.797 C 172.875 98.494,155.047 97.405,145.377 98.426 M113.825 105.669 C 113.265 105.897,112.273 106.284,111.620 106.529 C 107.097 108.225,95.660 114.994,91.942 118.174 C 86.561 122.778,84.381 125.041,79.478 131.108 C 77.348 133.744,71.925 143.177,71.925 144.246 C 71.925 144.406,71.606 145.217,71.215 146.048 C 70.824 146.880,70.565 147.743,70.640 147.967 C 70.714 148.191,71.131 147.394,71.565 146.197 C 77.346 130.265,93.233 114.781,111.787 106.994 C 113.841 106.131,115.585 105.369,115.663 105.300 C 115.955 105.039,114.805 105.271,113.825 105.669 M322.816 143.905 C 307.944 147.445,300.858 150.773,296.627 156.204 L 295.358 157.833 295.453 163.989 C 295.526 168.687,295.426 170.586,295.033 172.010 C 294.044 175.593,294.025 175.716,294.638 174.659 C 295.997 172.312,296.583 165.517,295.828 160.864 C 294.869 154.954,305.080 148.326,320.441 144.887 C 325.749 143.698,326.158 143.586,325.191 143.584 C 324.631 143.583,323.562 143.727,322.816 143.905 M69.890 149.486 C 69.693 150.025,69.393 150.848,69.222 151.315 C 65.462 161.588,65.269 179.805,68.769 193.893 C 69.418 196.506,70.109 198.796,70.305 198.982 C 70.551 199.217,70.589 199.060,70.429 198.473 C 70.302 198.007,69.990 196.862,69.736 195.929 C 65.615 180.803,65.885 158.276,70.290 149.704 C 70.506 149.284,70.585 148.843,70.465 148.724 C 70.346 148.604,70.087 148.947,69.890 149.486 M293.247 177.163 C 290.515 182.736,284.480 187.408,276.187 190.372 C 272.157 191.812,272.097 192.152,276.106 190.828 C 282.229 188.806,288.362 184.848,291.175 181.105 C 292.943 178.752,294.235 176.514,294.085 176.065 C 294.019 175.864,293.641 176.358,293.247 177.163 M270.738 192.027 C 270.317 192.299,270.346 192.356,270.908 192.356 C 271.281 192.356,271.815 192.208,272.095 192.027 C 272.516 191.755,272.487 191.698,271.925 191.698 C 271.552 191.698,271.018 191.846,270.738 192.027 M268.309 192.534 C 267.942 192.901,259.715 194.192,255.131 194.602 C 251.848 194.895,251.570 195.065,250.875 197.198 C 246.965 209.206,237.329 218.546,223.534 223.697 C 220.010 225.013,213.134 226.972,212.038 226.972 C 211.229 226.972,211.234 226.896,211.858 229.856 C 212.664 233.677,214.082 243.295,214.081 244.936 C 214.080 245.766,214.230 247.674,214.414 249.177 C 215.242 255.941,216.089 284.020,215.492 284.927 C 215.299 285.221,214.085 285.441,211.962 285.568 C 207.653 285.825,207.903 286.520,208.309 275.434 C 209.110 253.544,208.328 239.845,205.826 231.938 C 204.952 229.177,204.684 229.098,203.558 231.267 C 195.523 246.748,188.693 252.188,177.928 251.678 L 175.626 251.569 173.580 254.453 C 168.854 261.112,164.119 264.898,153.859 270.222 C 147.787 273.374,142.951 276.282,139.802 278.676 C 112.118 299.724,91.201 295.342,86.018 267.407 C 85.752 265.974,85.349 263.808,85.121 262.595 C 84.869 261.253,84.676 256.474,84.628 250.382 C 84.502 234.534,83.611 229.860,78.805 219.847 C 76.087 214.185,73.471 207.928,71.783 203.053 C 71.137 201.187,70.599 199.870,70.588 200.127 C 70.561 200.764,73.511 209.418,74.509 211.630 C 74.954 212.615,75.318 213.491,75.318 213.576 C 75.318 213.661,76.478 216.137,77.896 219.079 C 81.149 225.829,80.907 225.243,81.930 228.838 C 83.660 234.914,83.901 237.046,83.960 246.819 C 84.036 259.454,85.317 269.956,87.219 273.532 C 87.391 273.856,87.532 274.354,87.532 274.639 C 87.532 275.138,88.165 276.690,89.678 279.898 C 95.744 292.764,109.117 295.877,125.360 288.203 C 127.226 287.322,128.982 286.406,129.262 286.168 C 129.709 285.787,130.675 285.207,133.164 283.826 C 134.534 283.065,135.951 282.083,139.153 279.676 C 142.913 276.849,147.258 274.196,153.535 270.893 C 160.722 267.112,161.836 266.477,164.004 264.925 C 167.091 262.715,171.647 258.031,173.694 254.962 C 174.690 253.469,175.551 252.191,175.608 252.122 C 175.664 252.053,177.588 251.953,179.882 251.900 C 187.189 251.731,193.572 248.242,197.559 242.239 C 200.062 238.470,201.754 235.676,202.919 233.389 C 204.778 229.742,205.026 229.889,206.122 235.284 C 207.767 243.389,207.786 243.727,207.795 265.207 C 207.801 280.105,207.909 285.736,208.192 286.020 C 208.451 286.279,209.740 286.371,212.037 286.292 C 216.768 286.131,216.476 286.801,216.284 276.536 C 215.947 258.560,215.147 247.502,213.229 234.313 C 212.196 227.208,212.124 227.595,214.589 226.963 C 216.324 226.517,223.588 224.216,224.258 223.899 C 224.538 223.767,225.148 223.511,225.615 223.332 C 237.255 218.846,247.624 208.712,250.703 198.813 C 250.965 197.973,251.304 197.141,251.458 196.964 C 251.613 196.786,251.739 196.385,251.739 196.072 C 251.739 195.606,252.333 195.434,255.047 195.113 C 263.770 194.084,272.252 192.469,269.353 192.390 C 268.871 192.377,268.401 192.442,268.309 192.534 " stroke="none" fill="#d0b39c" fill-rule="evenodd"></path><path id="path4" d="M145.208 98.911 C 109.753 101.968,80.903 120.606,71.441 146.565 C 70.931 147.964,70.375 149.415,70.206 149.788 C 65.824 159.448,65.628 180.822,69.781 196.098 C 70.060 197.125,70.421 198.499,70.584 199.152 C 71.645 203.416,75.309 212.620,78.957 220.187 C 82.214 226.940,83.503 231.394,84.292 238.628 C 84.674 242.124,84.747 242.414,84.773 240.543 C 84.809 237.894,83.872 231.982,82.836 228.329 C 82.056 225.579,81.702 224.725,79.292 219.779 C 77.001 215.077,74.697 209.614,72.883 204.580 C 72.513 203.554,72.070 202.449,71.898 202.125 C 71.727 201.801,71.586 201.238,71.586 200.873 C 71.586 200.508,71.450 200.126,71.284 200.023 C 71.118 199.921,70.904 199.339,70.807 198.731 C 70.710 198.123,70.462 197.014,70.256 196.268 C 66.439 182.484,66.181 166.140,69.580 153.520 C 69.781 152.774,70.027 151.741,70.126 151.226 C 70.226 150.710,70.442 150.205,70.607 150.103 C 70.772 150.001,70.908 149.619,70.908 149.254 C 70.908 148.890,71.047 148.326,71.218 148.002 C 71.389 147.678,71.789 146.802,72.106 146.056 C 72.934 144.112,75.581 138.802,76.420 137.405 C 77.553 135.518,79.517 132.501,79.733 132.316 C 79.841 132.222,80.629 131.227,81.484 130.105 C 88.171 121.325,99.143 113.092,111.281 107.747 C 113.240 106.884,115.108 106.029,115.432 105.846 C 115.756 105.663,116.254 105.513,116.539 105.513 C 116.824 105.513,117.323 105.375,117.647 105.207 C 117.971 105.039,118.923 104.711,119.763 104.479 C 120.602 104.248,121.976 103.840,122.816 103.573 C 138.408 98.619,160.388 97.668,179.986 101.098 C 184.383 101.868,190.731 103.232,193.723 104.050 C 194.750 104.331,196.124 104.689,196.777 104.845 C 199.155 105.413,200.401 105.801,203.562 106.957 C 210.224 109.392,213.282 110.554,214.928 111.278 C 216.384 111.918,216.913 111.984,218.660 111.742 C 221.656 111.327,236.419 111.453,243.257 111.951 C 246.522 112.190,254.112 112.454,260.123 112.539 C 273.719 112.732,280.218 112.224,290.755 110.143 C 304.342 107.459,322.394 107.989,333.673 111.402 C 351.168 116.697,365.258 131.871,357.840 137.428 C 355.891 138.889,355.301 139.051,349.874 139.608 C 336.799 140.950,321.336 143.419,318.750 144.577 C 317.980 144.922,318.797 144.814,321.798 144.173 C 323.481 143.815,324.203 143.682,329.771 142.705 C 334.307 141.910,341.928 140.884,348.863 140.136 C 355.357 139.436,356.307 139.173,358.241 137.546 C 365.740 131.236,350.715 115.652,332.146 110.479 C 321.292 107.456,303.272 107.151,290.246 109.770 C 277.703 112.293,264.573 112.838,245.123 111.642 C 226.778 110.515,224.200 110.500,218.374 111.482 C 217.647 111.604,216.748 111.540,216.339 111.337 C 214.260 110.301,206.802 107.492,202.375 106.077 C 182.712 99.792,163.264 97.354,145.208 98.911 M316.200 145.208 C 315.526 145.644,316.373 145.644,317.388 145.208 L 318.066 144.916 317.388 144.898 C 317.014 144.887,316.480 145.027,316.200 145.208 M312.299 146.264 C 311.366 146.623,309.982 147.131,309.223 147.394 C 303.581 149.347,298.068 153.165,295.823 156.673 L 294.891 158.131 295.078 163.515 C 295.410 173.086,293.990 177.250,288.520 182.738 C 285.730 185.538,279.603 189.004,275.148 190.302 C 274.309 190.547,273.316 190.871,272.943 191.022 C 272.570 191.174,271.883 191.375,271.416 191.469 C 270.950 191.563,269.958 191.802,269.211 191.999 C 266.965 192.591,260.310 193.640,255.980 194.084 C 251.870 194.506,250.721 194.938,250.721 196.060 C 250.721 196.863,249.417 199.953,247.560 203.547 C 246.649 205.312,246.129 206.568,246.405 206.339 C 247.058 205.797,250.147 199.493,250.883 197.198 C 251.568 195.066,251.847 194.895,255.131 194.602 C 260.775 194.097,266.315 193.149,271.949 191.722 C 283.051 188.911,291.991 182.158,294.214 174.904 C 295.463 170.827,295.547 170.080,295.453 163.989 L 295.358 157.833 296.627 156.204 C 299.553 152.448,304.932 149.182,312.207 146.742 C 314.123 146.100,315.310 145.582,314.843 145.593 C 314.377 145.603,313.232 145.905,312.299 146.264 M243.657 209.415 C 239.132 214.930,227.076 223.240,223.600 223.240 C 223.397 223.240,222.966 223.375,222.642 223.540 C 221.107 224.322,213.511 226.371,212.129 226.376 C 211.709 226.377,211.366 226.512,211.366 226.675 C 211.366 227.830,223.338 224.210,229.177 221.289 C 235.794 217.979,241.798 213.037,245.252 208.058 C 246.565 206.166,245.764 206.847,243.657 209.415 M204.265 228.471 C 204.242 229.084,202.388 232.730,200.368 236.132 C 199.869 236.972,199.374 237.926,199.267 238.253 C 199.160 238.579,198.938 238.846,198.773 238.846 C 198.608 238.846,198.473 239.040,198.473 239.275 C 198.473 239.781,195.582 243.417,193.748 245.219 C 189.434 249.454,186.505 250.667,179.878 250.959 L 175.363 251.158 174.535 252.244 C 174.079 252.841,173.707 253.493,173.707 253.693 C 173.707 253.893,173.592 254.108,173.452 254.170 C 173.312 254.232,172.743 254.894,172.186 255.640 C 168.111 261.110,163.071 264.979,153.792 269.766 C 147.338 273.095,144.126 274.994,140.967 277.347 C 131.336 284.523,121.865 289.510,115.522 290.744 C 114.402 290.962,112.934 291.283,112.259 291.457 C 107.319 292.729,100.149 290.491,95.381 286.187 C 93.121 284.148,88.550 276.429,88.550 274.653 C 88.550 274.388,88.397 274.076,88.210 273.961 C 88.024 273.846,87.871 273.388,87.871 272.943 C 87.871 272.499,87.735 272.051,87.569 271.949 C 87.403 271.846,87.181 271.264,87.075 270.656 C 86.968 270.048,86.720 268.711,86.522 267.684 C 86.324 266.658,85.877 263.834,85.529 261.408 C 85.018 257.846,84.888 257.362,84.857 258.892 C 84.819 260.705,84.929 261.512,86.020 267.407 C 91.186 295.336,112.120 299.722,139.802 278.676 C 142.951 276.282,147.787 273.374,153.859 270.222 C 164.119 264.898,168.854 261.112,173.580 254.453 L 175.626 251.569 177.928 251.678 C 188.435 252.176,196.348 245.983,203.212 231.891 C 203.484 231.332,203.960 230.492,204.269 230.025 C 204.639 229.466,204.737 228.946,204.559 228.499 C 204.301 227.851,204.287 227.850,204.265 228.471 M84.613 251.739 C 84.613 254.444,84.666 255.551,84.730 254.198 C 84.795 252.846,84.795 250.632,84.730 249.279 C 84.666 247.926,84.613 249.033,84.613 251.739 " stroke="none" fill="#aa817c" fill-rule="evenodd"></path></g></svg>