<svg id="svg" version="1.1" xmlns="http://www.w3.org/2000/svg" xmlns:xlink="http://www.w3.org/1999/xlink" width="400" height="402.3952095808383" viewBox="0, 0, 400,402.3952095808383"><g id="svgg"><path id="path0" d="M218.104 49.450 C 218.197 65.603,212.332 73.903,187.284 93.066 C 167.699 108.049,164.362 118.536,174.462 133.366 C 175.638 135.092,176.872 136.909,177.205 137.403 C 179.065 140.166,192.712 153.600,193.658 153.600 C 194.115 153.600,192.496 150.411,190.642 147.660 C 189.849 146.483,189.200 145.390,189.200 145.232 C 189.200 145.074,188.597 144.237,187.861 143.372 C 174.547 127.746,176.937 112.613,195.000 98.161 C 201.930 92.616,211.014 83.605,213.709 79.600 C 214.375 78.610,215.242 77.440,215.636 77.000 C 221.068 70.929,223.545 57.220,220.659 49.201 C 218.702 43.763,218.072 43.824,218.104 49.450 M231.400 88.758 C 197.634 101.640,187.878 120.491,204.605 140.531 C 209.893 146.865,211.094 154.857,207.412 159.200 C 203.615 163.678,209.316 160.286,214.230 155.143 C 221.263 147.783,221.456 141.218,214.909 132.023 C 203.218 115.603,205.939 108.705,230.600 92.247 C 239.219 86.495,239.400 85.707,231.400 88.758 M125.300 264.665 C 124.906 264.824,124.800 271.358,124.800 295.454 C 124.800 332.304,124.924 331.174,120.331 336.200 C 119.176 337.463,117.550 338.927,116.716 339.453 C 114.739 340.701,114.796 341.129,117.300 343.818 L 119.400 346.074 121.200 345.373 C 127.244 343.020,131.957 337.755,134.065 331.000 C 134.768 328.747,135.058 265.793,134.369 264.963 C 133.909 264.408,126.537 264.166,125.300 264.665 M157.000 281.059 C 145.522 283.450,144.716 283.914,145.606 287.624 C 146.224 290.202,146.056 290.160,150.856 288.932 C 163.506 285.695,169.425 288.059,170.186 296.652 C 170.530 300.528,170.235 300.799,165.671 300.803 C 150.812 300.815,142.410 306.626,142.402 316.896 C 142.394 328.985,154.742 333.926,167.226 326.829 C 171.518 324.388,171.461 324.393,171.803 326.416 C 172.195 328.741,173.134 329.223,176.600 328.878 L 179.400 328.600 179.513 310.200 L 179.627 291.800 178.578 289.101 C 177.483 286.281,174.210 282.740,172.265 282.271 C 171.789 282.156,170.320 281.785,169.000 281.445 C 166.771 280.873,159.085 280.625,157.000 281.059 M244.600 281.459 C 243.060 281.763,241.156 282.118,240.368 282.249 C 239.581 282.380,237.961 282.962,236.768 283.544 L 234.600 284.600 234.713 286.350 C 234.944 289.928,235.184 290.012,241.200 288.624 C 253.393 285.809,259.230 288.431,259.342 296.772 C 259.397 300.877,259.487 300.800,254.621 300.800 C 239.515 300.800,230.806 307.511,231.722 318.443 C 232.621 329.160,243.611 333.289,255.421 327.347 C 260.246 324.918,261.200 324.861,261.200 327.000 C 261.200 328.680,267.128 329.831,268.536 328.425 C 270.004 326.958,269.236 292.563,267.645 288.513 C 265.176 282.226,255.595 279.294,244.600 281.459 M186.400 282.380 C 186.400 283.286,187.146 286.220,188.388 290.200 C 188.869 291.740,190.136 295.790,191.203 299.200 C 192.271 302.610,193.715 307.290,194.412 309.600 C 195.110 311.910,196.184 315.420,196.799 317.400 C 197.414 319.380,198.427 322.662,199.050 324.693 C 200.391 329.063,200.605 329.202,205.960 329.196 C 212.727 329.187,212.512 329.337,215.113 322.800 C 215.857 320.930,216.702 318.860,216.990 318.200 C 220.236 310.779,226.421 288.156,226.561 283.200 L 226.600 281.800 222.121 281.687 C 216.810 281.553,217.149 281.247,216.204 287.022 C 214.233 299.066,208.753 318.318,207.422 317.874 C 207.212 317.804,206.378 315.329,205.568 312.373 C 204.757 309.418,203.368 304.750,202.480 302.000 C 201.592 299.250,200.219 294.840,199.430 292.200 C 197.138 284.531,196.335 282.220,195.852 281.906 C 194.689 281.150,186.400 281.566,186.400 282.380 M169.800 307.272 C 170.027 307.481,170.200 309.875,170.200 312.807 L 170.200 317.975 168.800 319.160 C 161.436 325.392,152.505 323.728,152.070 316.043 C 151.827 311.744,153.534 309.108,157.400 307.808 C 160.996 306.600,168.707 306.266,169.800 307.272 M259.113 307.487 C 260.140 308.891,259.592 317.731,258.400 319.001 C 255.614 321.968,249.230 323.664,245.493 322.431 C 240.495 320.781,239.543 312.685,243.950 309.311 C 247.319 306.731,257.651 305.489,259.113 307.487 " stroke="none" fill="#aa2e3d" fill-rule="evenodd"></path><path id="path1" d="M0.000 201.000 L 0.000 402.000 200.000 402.000 L 400.000 402.000 400.000 201.000 L 400.000 0.000 200.000 0.000 L 0.000 0.000 0.000 201.000 M219.557 44.598 C 223.583 50.564,224.538 64.305,221.168 67.780 C 220.966 67.989,220.800 68.480,220.800 68.871 C 220.800 69.767,216.764 77.640,215.320 79.562 C 211.928 84.076,206.662 89.537,200.920 94.493 C 199.204 95.975,196.000 98.743,193.800 100.646 C 188.958 104.833,185.487 108.638,184.226 111.140 C 183.710 112.163,182.716 114.134,182.017 115.520 C 180.510 118.509,179.743 123.915,180.443 126.600 C 181.675 131.318,184.323 136.914,186.819 140.072 C 188.885 142.685,192.800 148.647,192.800 149.179 C 192.800 149.411,192.980 149.600,193.200 149.600 C 193.420 149.600,193.600 149.898,193.600 150.262 C 193.600 150.626,194.011 151.481,194.514 152.162 C 196.982 155.507,196.626 158.029,194.010 155.734 C 182.538 145.675,176.972 139.450,170.909 129.899 C 168.430 125.994,167.155 119.034,168.143 114.799 C 168.830 111.850,170.608 107.600,171.153 107.600 C 171.353 107.600,172.076 106.728,172.760 105.662 C 174.063 103.632,180.795 96.764,183.200 95.011 C 185.075 93.645,187.079 92.018,188.389 90.800 C 188.980 90.250,190.185 89.301,191.066 88.692 C 191.946 88.082,193.012 87.267,193.434 86.881 C 193.855 86.494,194.828 85.736,195.595 85.195 C 196.362 84.653,197.281 83.938,197.638 83.605 C 197.995 83.272,199.509 81.920,201.003 80.600 C 203.627 78.281,205.770 76.175,206.600 75.097 C 206.820 74.811,207.720 73.762,208.600 72.765 C 211.811 69.127,212.201 68.537,213.724 65.000 C 214.577 63.020,215.431 61.210,215.622 60.978 C 216.821 59.517,217.522 50.222,216.778 45.637 C 216.089 41.389,217.129 41.000,219.557 44.598 M242.400 85.173 C 242.400 85.717,240.597 87.115,238.495 88.201 C 237.337 88.800,236.257 89.510,236.095 89.780 C 235.933 90.050,234.720 90.858,233.400 91.576 C 232.080 92.294,230.904 93.036,230.786 93.225 C 230.668 93.414,229.419 94.314,228.009 95.225 C 226.600 96.136,224.615 97.583,223.598 98.441 C 222.581 99.298,221.562 100.000,221.334 100.000 C 221.106 100.000,218.940 101.951,216.520 104.335 C 207.889 112.839,206.999 118.297,212.847 126.852 C 213.804 128.253,214.930 130.030,215.348 130.800 C 215.766 131.570,216.708 132.900,217.440 133.755 C 219.779 136.488,221.091 141.792,220.387 145.673 C 219.716 149.372,216.065 155.875,213.738 157.516 C 213.205 157.892,211.721 159.017,210.440 160.015 C 204.463 164.673,202.194 164.764,205.262 160.223 C 210.244 152.849,209.344 147.040,201.976 139.000 C 200.326 137.200,196.555 129.015,195.807 125.610 C 194.428 119.337,197.383 110.268,202.492 105.094 C 203.532 104.041,204.572 102.825,204.804 102.393 C 205.035 101.962,205.803 101.311,206.512 100.948 C 207.220 100.585,209.272 99.222,211.070 97.919 C 214.039 95.768,225.291 89.713,227.637 89.003 C 228.167 88.842,229.140 88.476,229.800 88.188 C 232.071 87.200,235.855 86.000,236.703 86.000 C 237.170 86.000,237.664 85.820,237.800 85.600 C 237.936 85.380,238.532 85.197,239.124 85.194 C 239.716 85.191,240.454 85.027,240.764 84.831 C 241.353 84.458,242.400 84.677,242.400 85.173 M261.582 155.466 C 272.123 158.203,276.443 169.724,270.405 178.992 C 266.455 185.055,257.500 190.831,246.109 194.664 C 238.121 197.352,237.064 196.446,243.703 192.601 C 252.406 187.561,259.833 181.086,261.622 176.981 C 264.348 170.726,264.353 167.541,261.642 163.524 C 259.058 159.696,253.762 157.455,249.378 158.336 C 244.903 159.234,243.564 158.901,245.300 157.320 C 248.027 154.837,255.766 153.956,261.582 155.466 M171.438 156.861 C 171.829 157.494,170.553 158.347,168.831 158.602 C 164.307 159.272,152.905 163.748,151.825 165.278 C 151.016 166.424,152.376 167.765,154.761 168.173 C 167.040 170.270,197.241 169.996,216.400 167.612 C 226.223 166.390,228.698 166.048,235.155 165.014 C 241.731 163.962,241.550 164.688,234.315 168.372 C 229.876 170.633,226.577 171.621,220.800 172.418 C 219.590 172.585,216.170 173.087,213.200 173.533 C 182.728 178.109,137.460 175.550,135.383 169.134 C 134.694 167.005,135.793 166.018,141.938 163.245 C 146.137 161.351,147.663 160.792,152.600 159.341 C 160.322 157.071,170.721 155.702,171.438 156.861 M162.919 181.053 C 163.058 181.192,162.714 182.086,162.155 183.040 C 160.940 185.113,161.132 186.091,162.915 186.921 C 167.165 188.900,191.122 190.380,199.600 189.188 C 201.030 188.986,204.450 188.538,207.200 188.191 C 213.581 187.386,219.766 186.459,221.751 186.010 C 223.572 185.598,224.723 185.956,226.758 187.565 C 227.551 188.193,229.238 189.237,230.506 189.886 C 233.392 191.362,232.941 192.030,228.381 193.032 C 226.742 193.393,224.680 193.851,223.800 194.051 C 199.222 199.622,169.481 199.340,156.562 193.412 C 149.497 190.170,150.082 186.276,158.246 182.218 C 160.907 180.895,162.392 180.525,162.919 181.053 M167.357 205.322 C 166.514 207.090,166.856 207.619,169.269 208.283 C 176.331 210.227,191.494 210.917,201.800 209.765 C 207.114 209.171,208.689 208.962,214.800 208.033 L 217.400 207.638 222.912 210.319 C 230.377 213.951,230.311 214.202,221.200 216.802 C 220.210 217.084,218.590 217.573,217.600 217.887 C 214.595 218.842,208.719 219.942,203.178 220.588 C 172.337 224.182,144.403 212.099,165.200 204.160 C 167.824 203.159,168.273 203.401,167.357 205.322 M149.371 218.393 C 151.351 218.717,152.709 219.424,152.244 219.889 C 152.182 219.951,150.437 220.283,148.366 220.626 C 144.667 221.240,142.586 221.736,141.000 222.381 C 140.560 222.560,138.982 223.199,137.493 223.801 C 130.014 226.826,131.882 229.410,143.000 231.421 C 144.760 231.739,147.730 232.286,149.600 232.637 C 166.228 235.752,214.459 235.290,236.800 231.801 C 247.662 230.104,249.298 229.788,252.800 228.706 C 258.614 226.910,260.642 225.052,260.149 221.973 C 259.863 220.183,260.218 220.011,262.008 221.069 C 264.771 222.701,264.795 225.828,262.064 228.240 C 258.404 231.471,246.260 235.475,233.692 237.594 C 220.552 239.810,211.759 240.597,191.000 241.415 C 184.346 241.677,160.296 240.702,155.800 239.987 C 154.480 239.778,152.511 239.605,151.424 239.603 C 150.337 239.601,148.447 239.427,147.224 239.215 C 146.001 239.003,142.480 238.543,139.400 238.194 C 123.809 236.423,119.103 234.747,118.879 230.887 C 118.813 229.739,118.919 228.800,119.115 228.800 C 119.311 228.800,119.670 228.364,119.913 227.831 C 121.180 225.050,133.903 219.739,142.000 218.612 C 146.886 217.931,146.603 217.940,149.371 218.393 M273.200 232.488 C 273.200 236.428,266.507 241.371,256.887 244.536 C 251.909 246.174,248.116 247.015,237.800 248.770 C 217.885 252.156,173.738 252.036,157.800 248.552 C 156.260 248.215,154.190 247.780,153.200 247.584 C 149.436 246.841,147.806 246.155,147.672 245.258 C 147.584 244.664,147.768 244.381,148.272 244.337 C 149.116 244.264,149.088 244.260,153.758 245.017 C 169.213 247.523,197.937 247.853,218.800 245.766 C 229.042 244.741,239.900 243.299,242.200 242.659 C 242.640 242.536,244.800 242.051,247.000 241.581 C 258.119 239.205,266.913 235.850,271.168 232.360 C 272.653 231.143,273.200 231.177,273.200 232.488 M135.200 263.991 C 135.723 264.322,135.816 268.176,135.923 293.885 C 136.077 330.577,135.873 332.732,131.732 338.269 C 130.779 339.542,130.000 340.682,130.000 340.801 C 130.000 340.920,129.370 341.357,128.600 341.772 C 127.830 342.187,127.200 342.669,127.200 342.844 C 127.200 343.395,123.588 345.673,121.510 346.433 C 119.197 347.278,118.799 347.124,116.316 344.423 C 113.513 341.372,113.586 340.162,116.707 338.000 C 123.794 333.089,123.973 331.960,124.028 291.613 C 124.050 275.575,124.216 264.744,124.446 264.313 C 124.877 263.509,134.004 263.236,135.200 263.991 M169.800 280.553 C 176.111 282.370,178.956 285.284,180.202 291.211 C 181.049 295.238,181.088 327.853,180.247 329.004 C 178.766 331.028,172.083 330.426,171.014 328.172 C 170.217 326.494,170.000 326.485,167.486 328.032 C 162.426 331.146,152.745 331.854,148.096 329.450 C 146.320 328.531,142.800 324.980,142.800 324.106 C 142.800 323.696,142.586 323.146,142.325 322.885 C 141.379 321.939,141.658 312.100,142.692 309.921 C 145.455 304.102,151.368 301.117,161.944 300.203 C 168.995 299.593,169.000 299.590,168.999 296.280 C 168.995 289.651,162.146 286.731,153.200 289.543 C 145.976 291.815,145.162 291.609,144.416 287.324 C 143.928 284.521,144.739 282.800,146.547 282.800 C 146.824 282.800,147.793 282.441,148.702 282.002 C 149.611 281.562,151.580 281.005,153.077 280.763 C 154.575 280.521,156.610 280.173,157.600 279.989 C 160.107 279.524,167.396 279.861,169.800 280.553 M259.386 280.433 C 260.258 280.681,261.892 281.474,263.017 282.194 C 264.143 282.914,265.436 283.621,265.892 283.766 C 266.843 284.067,268.609 287.524,269.445 290.720 C 270.367 294.240,270.231 328.286,269.291 329.471 C 268.136 330.927,262.287 330.286,260.227 328.477 C 258.694 327.131,257.783 327.061,256.400 328.180 C 253.408 330.602,243.339 331.570,238.600 329.892 C 234.266 328.357,230.400 322.629,230.400 317.742 C 230.400 307.160,237.926 300.833,251.341 300.136 C 258.482 299.765,258.999 299.356,258.012 294.858 C 256.622 288.526,252.373 287.283,240.755 289.809 C 234.989 291.063,235.076 291.068,234.293 289.427 C 233.593 287.959,233.363 284.584,233.906 283.747 C 234.585 282.701,243.050 280.475,248.800 279.831 C 251.099 279.573,257.683 279.948,259.386 280.433 M196.323 280.947 C 197.127 281.452,198.620 285.039,199.575 288.761 C 200.049 290.609,200.609 292.443,200.819 292.835 C 201.028 293.227,201.200 293.874,201.199 294.274 C 201.198 294.673,202.091 297.790,203.182 301.200 C 204.274 304.610,205.658 309.069,206.258 311.108 C 207.690 315.972,208.582 315.318,210.227 308.200 C 210.532 306.880,211.511 303.010,212.401 299.600 C 213.292 296.190,214.284 291.600,214.607 289.400 C 215.908 280.515,215.845 280.590,222.079 280.635 C 228.713 280.684,228.580 280.421,226.524 289.400 C 224.048 300.215,222.646 305.613,221.592 308.400 C 220.968 310.050,219.985 312.930,219.407 314.800 C 218.830 316.670,217.827 319.275,217.179 320.590 C 216.531 321.904,216.000 323.213,216.000 323.499 C 216.000 324.536,213.664 329.138,212.942 329.523 C 212.271 329.881,206.414 330.164,202.116 330.046 C 199.900 329.985,199.056 329.038,198.217 325.668 C 197.852 324.201,197.106 321.754,196.560 320.231 C 196.014 318.707,195.238 316.277,194.835 314.831 C 193.426 309.766,188.882 294.973,187.823 292.000 C 184.971 283.999,184.573 281.416,186.100 280.827 C 187.213 280.398,195.606 280.496,196.323 280.947 M275.323 280.980 C 275.816 281.474,276.013 281.478,276.651 281.010 C 278.138 279.920,279.449 282.643,278.557 284.967 C 278.272 285.710,273.430 285.895,272.988 285.181 C 272.811 284.894,272.550 284.909,272.164 285.230 C 271.418 285.849,270.400 285.041,270.400 283.831 C 270.400 283.352,270.192 282.752,269.937 282.497 C 269.114 281.674,270.329 280.734,272.053 280.858 C 272.885 280.918,273.694 280.840,273.850 280.684 C 274.277 280.257,274.681 280.338,275.323 280.980 M162.800 307.852 C 155.552 308.890,153.979 309.892,153.207 313.964 C 152.560 317.374,154.265 321.200,156.431 321.200 C 156.828 321.200,157.264 321.380,157.400 321.600 C 157.944 322.480,161.809 322.032,164.236 320.808 C 168.786 318.515,168.898 318.347,169.112 313.534 C 169.381 307.481,168.834 306.988,162.800 307.852 M250.400 307.985 C 245.642 308.482,243.186 310.338,242.502 313.953 C 241.204 320.810,246.685 323.892,253.890 320.356 C 258.326 318.179,258.507 317.863,258.337 312.599 C 258.161 307.170,258.167 307.174,250.400 307.985 " stroke="none" fill="#fbfbfb" fill-rule="evenodd"></path><path id="path2" d="M252.200 155.797 C 251.980 155.870,251.269 156.048,250.621 156.192 C 248.955 156.563,250.060 157.186,252.400 157.194 C 253.550 157.198,255.066 157.616,256.600 158.353 C 267.992 163.821,267.072 176.418,254.554 186.395 C 253.039 187.602,251.710 188.707,251.600 188.850 C 251.346 189.180,243.917 193.816,243.163 194.114 C 242.821 194.250,242.955 194.349,243.505 194.368 C 244.003 194.386,244.723 194.230,245.105 194.023 C 245.487 193.815,247.851 192.891,250.357 191.970 C 269.228 185.031,277.532 171.029,268.710 161.023 C 265.155 156.991,256.671 154.305,252.200 155.797 M160.800 158.444 C 159.810 158.641,158.010 158.997,156.800 159.234 C 154.728 159.641,151.182 160.759,145.200 162.893 C 137.338 165.698,134.158 169.004,138.136 170.237 C 138.611 170.384,139.720 170.821,140.600 171.208 C 147.271 174.143,180.752 175.774,199.400 174.071 C 213.483 172.786,217.785 172.217,224.000 170.817 C 226.090 170.347,228.340 169.856,229.000 169.726 C 230.348 169.461,235.346 166.812,235.052 166.519 C 234.858 166.324,226.813 167.182,219.000 168.230 C 203.342 170.330,170.047 171.386,160.400 170.089 C 147.186 168.312,147.168 164.449,160.355 160.035 C 166.096 158.114,166.310 157.347,160.800 158.444 M159.200 182.766 C 158.650 183.162,157.181 184.081,155.936 184.806 C 151.251 187.536,151.712 189.902,157.467 192.671 C 160.310 194.039,161.136 194.297,165.600 195.213 C 177.100 197.574,195.504 197.560,212.800 195.178 C 214.230 194.981,216.300 194.712,217.400 194.581 C 218.500 194.449,219.760 194.202,220.200 194.032 C 220.640 193.862,222.970 193.247,225.377 192.664 C 230.534 191.417,230.935 191.145,228.982 190.218 C 228.176 189.836,226.820 188.893,225.967 188.122 C 224.175 186.504,224.800 186.502,214.200 188.159 C 202.551 189.980,200.139 190.167,188.400 190.157 C 166.477 190.140,159.385 188.619,160.419 184.159 C 161.001 181.651,160.902 181.538,159.200 182.766 M162.370 206.440 C 148.957 213.515,177.781 222.883,203.000 219.645 C 207.889 219.018,219.237 216.851,220.095 216.381 C 220.477 216.171,221.034 216.000,221.333 216.000 C 221.632 216.000,222.400 215.750,223.039 215.444 C 223.677 215.138,224.886 214.572,225.724 214.187 L 227.248 213.486 225.924 212.903 C 224.031 212.070,222.162 211.143,219.290 209.614 C 216.975 208.381,216.666 208.314,215.290 208.745 C 209.387 210.594,192.923 211.917,184.290 211.236 C 169.432 210.063,166.000 209.138,166.000 206.305 C 166.000 204.879,165.279 204.906,162.370 206.440 M144.600 219.493 C 132.156 220.506,117.466 227.613,119.595 231.591 C 120.204 232.729,122.420 234.272,123.800 234.520 C 124.460 234.638,125.742 234.925,126.648 235.158 C 131.032 236.283,150.355 238.745,162.000 239.661 C 170.363 240.320,202.140 240.327,209.200 239.672 C 219.389 238.727,223.003 238.348,225.200 237.995 C 230.095 237.208,237.083 235.954,238.400 235.627 C 239.170 235.435,241.060 235.057,242.600 234.786 C 253.301 232.905,264.046 227.078,262.810 223.826 C 262.319 222.536,261.759 222.512,261.443 223.769 C 260.736 226.587,257.615 228.564,251.600 230.004 C 250.830 230.188,249.120 230.609,247.800 230.938 C 244.688 231.715,235.842 233.027,230.000 233.578 C 227.470 233.816,223.690 234.184,221.600 234.395 C 203.771 236.196,171.698 236.188,156.400 234.379 C 135.706 231.931,129.344 229.450,133.100 225.290 C 134.782 223.428,142.507 220.353,146.600 219.915 C 148.251 219.739,146.395 219.347,144.600 219.493 M269.200 235.043 C 265.942 237.380,254.366 241.246,246.000 242.791 C 245.010 242.974,242.311 243.501,240.003 243.961 C 221.118 247.731,189.233 249.116,165.200 247.211 C 162.450 246.993,158.689 246.696,156.841 246.550 C 154.572 246.372,153.565 246.420,153.738 246.699 C 154.067 247.233,157.721 247.812,167.000 248.803 C 185.077 250.732,208.307 250.809,227.000 249.003 C 230.300 248.684,234.080 248.320,235.400 248.194 C 239.435 247.810,242.760 247.151,252.800 244.746 C 254.670 244.298,256.513 243.767,256.895 243.566 C 257.277 243.364,257.877 243.200,258.229 243.200 C 259.635 243.200,267.009 238.999,268.785 237.186 C 272.078 233.826,272.268 232.843,269.200 235.043 " stroke="none" fill="#2458a2" fill-rule="evenodd"></path><path id="path3" d="M216.575 42.520 C 216.458 42.825,216.549 44.228,216.778 45.637 C 217.522 50.222,216.821 59.517,215.622 60.978 C 215.431 61.210,214.577 63.020,213.724 65.000 C 212.201 68.537,211.811 69.127,208.600 72.765 C 207.720 73.762,206.820 74.811,206.600 75.097 C 205.770 76.175,203.627 78.281,201.003 80.600 C 199.509 81.920,197.995 83.272,197.638 83.605 C 197.281 83.938,196.362 84.653,195.595 85.195 C 194.828 85.736,193.855 86.494,193.434 86.881 C 193.012 87.267,191.946 88.082,191.066 88.692 C 190.185 89.301,188.980 90.250,188.389 90.800 C 187.079 92.018,185.075 93.645,183.200 95.011 C 180.795 96.764,174.063 103.632,172.760 105.662 C 172.076 106.728,171.353 107.600,171.153 107.600 C 170.608 107.600,168.830 111.850,168.143 114.799 C 167.155 119.034,168.430 125.994,170.909 129.899 C 176.972 139.450,182.538 145.675,194.010 155.734 C 196.626 158.029,196.982 155.507,194.514 152.162 C 194.011 151.481,193.600 150.626,193.600 150.262 C 193.600 149.898,193.420 149.600,193.200 149.600 C 192.980 149.600,192.800 149.411,192.800 149.179 C 192.800 148.647,188.885 142.685,186.819 140.072 C 184.323 136.914,181.675 131.318,180.443 126.600 C 179.743 123.915,180.510 118.509,182.017 115.520 C 182.716 114.134,183.710 112.163,184.226 111.140 C 185.487 108.638,188.958 104.833,193.800 100.646 C 196.000 98.743,199.204 95.975,200.920 94.493 C 206.662 89.537,211.928 84.076,215.320 79.562 C 216.764 77.640,220.800 69.767,220.800 68.871 C 220.800 68.480,220.966 67.989,221.168 67.780 C 223.472 65.404,223.915 55.780,221.986 50.022 C 220.280 44.931,217.258 40.741,216.575 42.520 M219.354 46.100 C 222.511 52.886,222.889 59.885,220.502 67.343 C 219.748 69.699,216.627 75.892,215.636 77.000 C 215.242 77.440,214.375 78.610,213.709 79.600 C 211.014 83.605,201.930 92.616,195.000 98.161 C 176.937 112.613,174.547 127.746,187.861 143.372 C 188.597 144.237,189.200 145.080,189.200 145.247 C 189.200 145.413,189.973 146.686,190.919 148.075 C 193.142 151.340,194.869 154.465,194.600 154.733 C 194.235 155.098,179.026 140.039,177.455 137.758 C 169.887 126.767,168.526 123.497,168.901 117.200 C 169.315 110.232,175.557 102.038,187.284 93.066 C 211.869 74.258,218.063 65.690,218.131 50.400 C 218.140 48.310,217.958 46.240,217.728 45.800 C 217.280 44.947,217.435 44.000,218.022 44.000 C 218.217 44.000,218.816 44.945,219.354 46.100 M240.764 84.831 C 240.454 85.027,239.716 85.191,239.124 85.194 C 238.532 85.197,237.936 85.380,237.800 85.600 C 237.664 85.820,237.170 86.000,236.703 86.000 C 235.855 86.000,232.071 87.200,229.800 88.188 C 229.140 88.476,228.167 88.842,227.637 89.003 C 225.291 89.713,214.039 95.768,211.070 97.919 C 209.272 99.222,207.220 100.585,206.512 100.948 C 205.803 101.311,205.035 101.962,204.804 102.393 C 204.572 102.825,203.532 104.041,202.492 105.094 C 197.383 110.268,194.428 119.337,195.807 125.610 C 196.555 129.015,200.326 137.200,201.976 139.000 C 209.344 147.040,210.244 152.849,205.262 160.223 C 202.194 164.764,204.463 164.673,210.440 160.015 C 211.721 159.017,213.205 157.892,213.738 157.516 C 216.065 155.875,219.716 149.372,220.387 145.673 C 221.091 141.792,219.779 136.488,217.440 133.755 C 216.708 132.900,215.766 131.570,215.348 130.800 C 214.930 130.030,213.804 128.253,212.847 126.852 C 206.999 118.297,207.889 112.839,216.520 104.335 C 218.940 101.951,221.106 100.000,221.334 100.000 C 221.562 100.000,222.581 99.298,223.598 98.441 C 224.615 97.583,226.600 96.136,228.009 95.225 C 229.419 94.314,230.668 93.414,230.786 93.225 C 230.904 93.036,232.080 92.294,233.400 91.576 C 234.720 90.858,235.933 90.050,236.095 89.780 C 236.257 89.510,237.337 88.800,238.495 88.201 C 240.597 87.115,242.400 85.717,242.400 85.173 C 242.400 84.677,241.353 84.458,240.764 84.831 M239.630 86.568 C 239.130 87.100,238.154 87.763,237.460 88.040 C 233.418 89.656,220.091 99.369,214.927 104.462 C 205.768 113.496,205.764 119.179,214.909 132.023 C 222.629 142.866,220.928 150.803,208.947 159.847 C 205.405 162.521,204.616 162.318,207.212 159.400 C 211.111 155.016,210.004 146.998,204.605 140.531 C 187.339 119.845,197.970 100.969,234.400 87.628 C 240.699 85.321,240.825 85.296,239.630 86.568 M247.400 156.082 C 246.140 156.523,244.400 157.907,244.400 158.470 C 244.400 158.973,247.120 158.832,249.800 158.190 L 252.200 157.614 250.200 157.836 C 249.100 157.958,247.480 158.164,246.600 158.294 C 244.562 158.594,245.235 157.512,247.797 156.371 C 249.550 155.590,249.309 155.415,247.400 156.082 M265.276 157.374 C 268.182 159.127,270.240 161.272,271.442 163.800 C 271.964 164.900,272.394 165.568,272.396 165.284 C 272.415 162.853,265.735 155.994,263.356 156.001 C 263.160 156.002,264.024 156.620,265.276 157.374 M164.200 156.823 C 160.881 157.296,157.149 158.082,157.335 158.268 C 157.420 158.354,159.068 158.148,160.997 157.812 C 162.926 157.475,165.786 157.215,167.352 157.232 L 170.200 157.265 168.600 158.022 C 166.595 158.971,168.033 159.131,170.248 158.206 C 173.459 156.864,169.794 156.026,164.200 156.823 M253.800 158.400 C 254.240 158.589,254.870 158.744,255.200 158.744 C 255.578 158.744,255.504 158.617,255.000 158.400 C 254.560 158.211,253.930 158.056,253.600 158.056 C 253.222 158.056,253.296 158.183,253.800 158.400 M154.400 158.818 C 153.962 159.115,154.124 159.152,155.000 158.956 C 156.471 158.627,156.790 158.398,155.767 158.406 C 155.345 158.409,154.730 158.595,154.400 158.818 M164.800 159.200 C 164.267 159.545,164.267 159.588,164.800 159.588 C 165.130 159.588,165.670 159.413,166.000 159.200 C 166.533 158.855,166.533 158.812,166.000 158.812 C 165.670 158.812,165.130 158.987,164.800 159.200 M159.000 161.207 C 158.120 161.639,157.838 161.882,158.374 161.746 C 159.874 161.366,161.873 160.432,161.200 160.426 C 160.870 160.423,159.880 160.775,159.000 161.207 M145.200 161.800 C 144.650 162.114,144.380 162.372,144.600 162.372 C 144.820 162.372,145.450 162.114,146.000 161.800 C 146.550 161.486,146.820 161.228,146.600 161.228 C 146.380 161.228,145.750 161.486,145.200 161.800 M152.001 164.598 C 151.486 165.148,151.139 165.648,151.232 165.711 C 151.324 165.774,151.884 165.324,152.474 164.712 C 153.065 164.101,153.412 163.600,153.244 163.600 C 153.077 163.600,152.517 164.049,152.001 164.598 M137.280 165.489 C 136.356 166.089,135.600 166.735,135.600 166.925 C 135.600 167.115,136.116 166.850,136.746 166.336 C 137.377 165.821,138.232 165.186,138.646 164.924 C 139.061 164.661,139.301 164.436,139.180 164.424 C 139.059 164.411,138.204 164.890,137.280 165.489 M234.460 165.028 C 232.622 165.314,231.002 165.674,230.860 165.829 C 230.717 165.984,231.320 166.008,232.200 165.881 C 233.080 165.754,234.655 165.529,235.700 165.380 C 238.395 164.996,238.127 165.657,234.800 167.600 C 231.059 169.785,231.267 169.868,235.369 167.827 C 241.860 164.596,241.638 163.911,234.460 165.028 M227.905 166.283 C 228.402 166.379,229.122 166.375,229.505 166.275 C 229.887 166.175,229.480 166.096,228.600 166.101 C 227.720 166.105,227.407 166.187,227.905 166.283 M272.676 167.846 C 272.940 170.555,273.132 170.933,273.162 168.800 C 273.176 167.810,273.030 166.751,272.837 166.446 C 272.621 166.105,272.559 166.642,272.676 167.846 M263.473 168.000 C 263.604 168.990,263.776 169.875,263.856 169.967 C 264.157 170.314,263.928 167.764,263.590 167.000 C 263.353 166.466,263.314 166.798,263.473 168.000 M217.905 167.483 C 218.402 167.579,219.122 167.575,219.505 167.475 C 219.887 167.375,219.480 167.296,218.600 167.301 C 217.720 167.305,217.407 167.387,217.905 167.483 M135.253 168.200 C 135.194 169.364,137.368 171.602,138.554 171.599 C 138.799 171.598,138.460 171.267,137.800 170.863 C 136.370 169.989,135.755 169.280,135.489 168.200 L 135.293 167.400 135.253 168.200 M154.033 168.144 C 154.125 168.223,154.740 168.408,155.400 168.556 C 156.276 168.752,156.438 168.715,156.000 168.418 C 155.460 168.053,153.632 167.798,154.033 168.144 M210.707 168.290 C 211.426 168.379,212.506 168.377,213.107 168.286 C 213.708 168.195,213.120 168.122,211.800 168.124 C 210.480 168.126,209.988 168.201,210.707 168.290 M205.500 168.682 C 205.995 168.778,206.805 168.778,207.300 168.682 C 207.795 168.587,207.390 168.509,206.400 168.509 C 205.410 168.509,205.005 168.587,205.500 168.682 M157.900 169.082 C 158.395 169.178,159.205 169.178,159.700 169.082 C 160.195 168.987,159.790 168.909,158.800 168.909 C 157.810 168.909,157.405 168.987,157.900 169.082 M200.291 169.089 C 201.001 169.177,202.261 169.179,203.091 169.092 C 203.921 169.005,203.340 168.933,201.800 168.931 C 200.260 168.929,199.581 169.000,200.291 169.089 M162.500 169.487 C 163.105 169.578,164.095 169.578,164.700 169.487 C 165.305 169.395,164.810 169.320,163.600 169.320 C 162.390 169.320,161.895 169.395,162.500 169.487 M192.112 169.495 C 193.164 169.577,194.784 169.576,195.712 169.492 C 196.640 169.408,195.780 169.341,193.800 169.342 C 191.820 169.343,191.060 169.412,192.112 169.495 M169.300 169.896 C 170.565 169.975,172.635 169.975,173.900 169.896 C 175.165 169.816,174.130 169.751,171.600 169.751 C 169.070 169.751,168.035 169.816,169.300 169.896 M181.300 169.897 C 182.785 169.974,185.215 169.974,186.700 169.897 C 188.185 169.820,186.970 169.757,184.000 169.757 C 181.030 169.757,179.815 169.820,181.300 169.897 M229.200 170.400 C 228.376 170.664,228.341 170.726,229.000 170.754 C 229.440 170.773,230.070 170.613,230.400 170.400 C 231.101 169.947,230.614 169.947,229.200 170.400 M225.600 171.200 C 224.808 171.454,224.767 171.520,225.400 171.520 C 225.840 171.520,226.650 171.376,227.200 171.200 C 227.992 170.946,228.033 170.880,227.400 170.880 C 226.960 170.880,226.150 171.024,225.600 171.200 M139.600 172.000 C 139.930 172.213,140.470 172.388,140.800 172.388 C 141.333 172.388,141.333 172.345,140.800 172.000 C 140.470 171.787,139.930 171.612,139.600 171.612 C 139.067 171.612,139.067 171.655,139.600 172.000 M221.800 172.000 C 220.711 172.277,220.693 172.307,221.600 172.325 C 222.150 172.335,222.960 172.189,223.400 172.000 C 224.386 171.576,223.466 171.576,221.800 172.000 M272.846 172.067 C 272.821 172.434,272.696 173.064,272.570 173.467 C 272.352 174.162,272.363 174.163,272.797 173.487 C 273.048 173.096,273.173 172.466,273.073 172.087 C 272.911 171.468,272.888 171.466,272.846 172.067 M142.200 172.800 C 142.640 172.989,143.270 173.144,143.600 173.144 C 143.978 173.144,143.904 173.017,143.400 172.800 C 142.960 172.611,142.330 172.456,142.000 172.456 C 141.622 172.456,141.696 172.583,142.200 172.800 M212.900 173.476 C 213.285 173.576,213.915 173.576,214.300 173.476 C 214.685 173.375,214.370 173.293,213.600 173.293 C 212.830 173.293,212.515 173.375,212.900 173.476 M262.714 174.210 C 262.589 174.645,262.195 175.675,261.838 176.500 C 261.481 177.325,261.273 178.000,261.376 178.000 C 261.700 178.000,263.225 174.275,263.079 173.838 C 263.003 173.609,262.838 173.776,262.714 174.210 M149.905 174.283 C 150.402 174.379,151.122 174.375,151.505 174.275 C 151.887 174.175,151.480 174.096,150.600 174.101 C 149.720 174.105,149.407 174.187,149.905 174.283 M206.100 174.287 C 206.705 174.378,207.695 174.378,208.300 174.287 C 208.905 174.195,208.410 174.120,207.200 174.120 C 205.990 174.120,205.495 174.195,206.100 174.287 M153.105 174.683 C 153.602 174.779,154.322 174.775,154.705 174.675 C 155.087 174.575,154.680 174.496,153.800 174.501 C 152.920 174.505,152.607 174.587,153.105 174.683 M202.300 174.682 C 202.795 174.778,203.605 174.778,204.100 174.682 C 204.595 174.587,204.190 174.509,203.200 174.509 C 202.210 174.509,201.805 174.587,202.300 174.682 M157.107 175.090 C 157.826 175.179,158.906 175.177,159.507 175.086 C 160.108 174.995,159.520 174.922,158.200 174.924 C 156.880 174.926,156.388 175.001,157.107 175.090 M192.800 175.200 L 188.600 175.443 192.400 175.478 C 194.490 175.497,197.280 175.379,198.600 175.215 L 201.000 174.918 199.000 174.937 C 197.900 174.948,195.110 175.066,192.800 175.200 M271.314 176.775 C 270.827 177.788,269.327 179.963,267.980 181.609 L 265.532 184.600 267.666 182.366 C 269.837 180.093,272.591 175.918,272.339 175.283 C 272.262 175.091,271.801 175.762,271.314 176.775 M162.711 175.493 C 163.651 175.578,165.091 175.577,165.911 175.491 C 166.730 175.405,165.960 175.336,164.200 175.337 C 162.440 175.339,161.770 175.409,162.711 175.493 M175.715 175.896 C 176.988 175.976,178.968 175.975,180.115 175.894 C 181.262 175.814,180.220 175.749,177.800 175.750 C 175.380 175.751,174.442 175.816,175.715 175.896 M256.591 183.272 C 254.836 185.072,254.030 186.017,254.800 185.372 C 256.273 184.139,260.242 180.000,259.951 180.000 C 259.858 180.000,258.345 181.472,256.591 183.272 M158.246 182.218 C 152.082 185.283,150.421 187.779,152.625 190.668 C 153.547 191.877,157.444 194.289,157.839 193.895 C 157.926 193.807,157.095 193.313,155.992 192.796 C 149.602 189.803,151.407 185.184,160.309 181.745 C 162.297 180.977,162.737 181.183,161.841 182.463 C 161.488 182.966,161.201 183.653,161.202 183.989 C 161.203 184.325,161.638 183.883,162.168 183.007 C 163.788 180.331,162.545 180.081,158.246 182.218 M261.681 186.972 C 259.823 188.285,259.562 188.661,261.131 187.762 C 261.863 187.343,262.650 186.775,262.880 186.500 C 263.471 185.793,263.193 185.902,261.681 186.972 M210.705 187.883 C 211.202 187.979,211.922 187.975,212.305 187.875 C 212.687 187.775,212.280 187.696,211.400 187.701 C 210.520 187.705,210.207 187.787,210.705 187.883 M227.367 188.305 C 227.789 188.803,228.914 189.600,229.867 190.076 C 232.238 191.260,231.914 191.784,228.281 192.634 C 227.666 192.778,227.237 192.971,227.328 193.062 C 227.663 193.396,231.409 192.335,232.099 191.710 C 232.770 191.103,232.677 190.997,230.506 189.893 C 229.238 189.248,227.840 188.423,227.400 188.060 C 226.606 187.405,226.605 187.406,227.367 188.305 M167.800 188.423 C 169.826 188.842,171.463 188.823,169.800 188.400 C 169.140 188.232,168.060 188.094,167.400 188.093 C 166.391 188.092,166.455 188.145,167.800 188.423 M249.000 189.357 C 247.900 190.099,245.516 191.562,243.703 192.608 C 238.464 195.631,238.003 197.391,242.898 195.681 C 245.178 194.885,244.995 194.843,241.947 195.463 C 240.305 195.797,240.292 195.037,241.924 194.188 C 242.736 193.766,243.940 193.037,244.600 192.567 C 245.260 192.097,246.700 191.231,247.800 190.641 C 250.077 189.421,251.995 188.020,251.400 188.012 C 251.180 188.009,250.100 188.614,249.000 189.357 M205.105 188.683 C 205.602 188.779,206.322 188.775,206.705 188.675 C 207.087 188.575,206.680 188.496,205.800 188.501 C 204.920 188.505,204.607 188.587,205.105 188.683 M174.105 189.087 C 174.714 189.179,175.614 189.177,176.105 189.082 C 176.597 188.987,176.100 188.911,175.000 188.914 C 173.900 188.917,173.497 188.995,174.105 189.087 M200.900 189.076 C 201.285 189.176,201.915 189.176,202.300 189.076 C 202.685 188.975,202.370 188.893,201.600 188.893 C 200.830 188.893,200.515 188.975,200.900 189.076 M177.905 189.483 C 178.402 189.579,179.122 189.575,179.505 189.475 C 179.887 189.375,179.480 189.296,178.600 189.301 C 177.720 189.305,177.407 189.387,177.905 189.483 M252.200 192.029 C 250.880 192.672,250.070 193.190,250.400 193.180 C 250.730 193.170,251.990 192.639,253.200 192.000 C 256.053 190.493,255.313 190.514,252.200 192.029 M161.400 195.200 C 161.840 195.389,162.470 195.544,162.800 195.544 C 163.178 195.544,163.104 195.417,162.600 195.200 C 162.160 195.011,161.530 194.856,161.200 194.856 C 160.822 194.856,160.896 194.983,161.400 195.200 M213.300 195.876 C 213.685 195.976,214.315 195.976,214.700 195.876 C 215.085 195.775,214.770 195.693,214.000 195.693 C 213.230 195.693,212.915 195.775,213.300 195.876 M207.905 196.683 C 208.402 196.779,209.122 196.775,209.505 196.675 C 209.887 196.575,209.480 196.496,208.600 196.501 C 207.720 196.505,207.407 196.587,207.905 196.683 M170.100 197.076 C 170.485 197.176,171.115 197.176,171.500 197.076 C 171.885 196.975,171.570 196.893,170.800 196.893 C 170.030 196.893,169.715 196.975,170.100 197.076 M204.900 197.076 C 205.285 197.176,205.915 197.176,206.300 197.076 C 206.685 196.975,206.370 196.893,205.600 196.893 C 204.830 196.893,204.515 196.975,204.900 197.076 M173.305 197.487 C 173.914 197.579,174.814 197.577,175.305 197.482 C 175.797 197.387,175.300 197.311,174.200 197.314 C 173.100 197.317,172.697 197.395,173.305 197.487 M200.900 197.476 C 201.285 197.576,201.915 197.576,202.300 197.476 C 202.685 197.375,202.370 197.293,201.600 197.293 C 200.830 197.293,200.515 197.375,200.900 197.476 M178.900 197.894 C 179.945 197.976,181.655 197.976,182.700 197.894 C 183.745 197.812,182.890 197.744,180.800 197.744 C 178.710 197.744,177.855 197.812,178.900 197.894 M193.513 197.895 C 194.676 197.976,196.476 197.976,197.513 197.893 C 198.551 197.811,197.600 197.745,195.400 197.746 C 193.200 197.747,192.351 197.814,193.513 197.895 M165.816 203.887 C 163.858 204.564,163.388 204.963,165.001 204.581 C 166.928 204.125,167.005 204.151,166.893 205.200 C 166.788 206.185,166.796 206.183,167.429 205.056 C 168.266 203.567,167.775 203.211,165.816 203.887 M161.500 205.829 C 159.432 207.183,159.603 207.458,161.700 206.151 C 163.717 204.895,163.845 204.793,163.367 204.824 C 163.165 204.836,162.325 205.289,161.500 205.829 M213.300 208.276 C 213.685 208.376,214.315 208.376,214.700 208.276 C 215.085 208.175,214.770 208.093,214.000 208.093 C 213.230 208.093,212.915 208.175,213.300 208.276 M158.267 208.667 C 157.902 209.032,157.929 211.509,158.300 211.738 C 158.465 211.840,158.600 211.131,158.600 210.162 C 158.600 209.193,158.585 208.400,158.567 208.400 C 158.548 208.400,158.413 208.520,158.267 208.667 M208.500 209.076 C 208.885 209.176,209.515 209.176,209.900 209.076 C 210.285 208.975,209.970 208.893,209.200 208.893 C 208.430 208.893,208.115 208.975,208.500 209.076 M177.105 209.883 C 177.602 209.979,178.322 209.975,178.705 209.875 C 179.087 209.775,178.680 209.696,177.800 209.701 C 176.920 209.705,176.607 209.787,177.105 209.883 M202.705 209.883 C 203.202 209.979,203.922 209.975,204.305 209.875 C 204.687 209.775,204.280 209.696,203.400 209.701 C 202.520 209.705,202.207 209.787,202.705 209.883 M181.900 210.282 C 182.395 210.378,183.205 210.378,183.700 210.282 C 184.195 210.187,183.790 210.109,182.800 210.109 C 181.810 210.109,181.405 210.187,181.900 210.282 M198.500 210.287 C 199.105 210.378,200.095 210.378,200.700 210.287 C 201.305 210.195,200.810 210.120,199.600 210.120 C 198.390 210.120,197.895 210.195,198.500 210.287 M188.517 210.697 C 190.011 210.774,192.351 210.774,193.717 210.696 C 195.082 210.618,193.860 210.555,191.000 210.555 C 188.140 210.556,187.022 210.620,188.517 210.697 M222.833 210.549 C 223.245 210.917,225.600 212.000,225.600 211.821 C 225.600 211.590,223.382 210.400,222.953 210.400 C 222.796 210.400,222.742 210.467,222.833 210.549 M226.900 212.629 C 228.411 213.449,228.284 213.910,226.300 214.811 C 224.332 215.704,224.945 215.884,227.013 215.020 C 228.686 214.321,228.856 213.136,227.381 212.464 C 225.930 211.803,225.592 211.919,226.900 212.629 M159.217 213.000 C 159.538 213.440,160.070 214.028,160.400 214.307 C 161.083 214.884,162.813 215.884,162.200 215.348 C 161.980 215.155,161.088 214.368,160.217 213.599 C 159.347 212.830,158.897 212.560,159.217 213.000 M166.825 217.559 C 167.597 218.050,173.161 219.611,173.992 219.570 C 174.326 219.554,173.160 219.138,171.400 218.646 C 169.640 218.153,167.750 217.618,167.200 217.456 C 166.465 217.240,166.366 217.267,166.825 217.559 M142.000 218.609 C 139.910 218.898,137.750 219.335,137.200 219.579 L 136.200 220.023 137.200 219.805 C 140.234 219.145,147.111 218.440,148.442 218.653 C 151.586 219.156,150.997 219.798,146.715 220.536 C 144.488 220.921,142.382 221.419,142.033 221.645 C 141.541 221.964,141.623 222.001,142.400 221.811 C 142.950 221.677,145.367 221.213,147.771 220.780 C 150.174 220.347,152.190 219.944,152.249 219.885 C 152.709 219.424,151.343 218.716,149.371 218.393 C 146.604 217.940,146.890 217.931,142.000 218.609 M214.400 218.400 C 213.596 218.657,213.557 218.723,214.200 218.732 C 214.640 218.738,215.360 218.589,215.800 218.400 C 216.819 217.962,215.768 217.962,214.400 218.400 M177.700 220.276 C 178.085 220.376,178.715 220.376,179.100 220.276 C 179.485 220.175,179.170 220.093,178.400 220.093 C 177.630 220.093,177.315 220.175,177.700 220.276 M204.900 220.276 C 205.285 220.376,205.915 220.376,206.300 220.276 C 206.685 220.175,206.370 220.093,205.600 220.093 C 204.830 220.093,204.515 220.175,204.900 220.276 M260.123 222.569 C 260.174 224.009,260.315 224.534,260.542 224.129 C 260.730 223.795,260.780 222.999,260.652 222.360 C 260.355 220.876,261.233 220.797,262.618 222.182 C 264.804 224.368,263.340 227.488,259.118 229.642 C 258.240 230.090,257.609 230.542,257.715 230.648 C 257.942 230.875,260.655 229.347,262.087 228.185 C 264.787 225.995,264.751 222.688,262.008 221.069 C 260.254 220.032,260.039 220.203,260.123 222.569 M185.305 221.087 C 185.914 221.179,186.814 221.177,187.305 221.082 C 187.797 220.987,187.300 220.911,186.200 220.914 C 185.100 220.917,184.697 220.995,185.305 221.087 M191.282 221.096 C 192.758 221.173,195.278 221.173,196.882 221.097 C 198.487 221.021,197.280 220.958,194.200 220.958 C 191.120 220.957,189.807 221.019,191.282 221.096 M135.500 224.229 C 133.949 225.070,134.125 225.361,135.700 224.559 C 137.208 223.793,137.475 223.594,136.967 223.616 C 136.765 223.625,136.105 223.901,135.500 224.229 M121.543 226.180 C 120.750 226.719,119.977 227.484,119.826 227.880 C 119.658 228.321,120.143 228.057,121.075 227.201 C 121.914 226.432,122.771 225.667,122.980 225.501 C 123.846 224.815,122.882 225.271,121.543 226.180 M257.600 226.630 C 256.390 227.382,255.548 227.997,255.729 227.998 C 256.191 228.001,259.552 226.001,259.823 225.562 C 260.131 225.064,260.086 225.086,257.600 226.630 M247.800 230.000 C 247.296 230.217,247.222 230.344,247.600 230.344 C 247.930 230.344,248.560 230.189,249.000 230.000 C 249.504 229.783,249.578 229.656,249.200 229.656 C 248.870 229.656,248.240 229.811,247.800 230.000 M255.200 231.600 C 254.430 232.022,253.913 232.374,254.051 232.383 C 254.465 232.411,257.200 231.205,257.200 230.995 C 257.200 230.646,256.625 230.820,255.200 231.600 M142.200 231.575 C 142.640 231.753,143.990 232.005,145.200 232.134 L 147.400 232.369 145.000 231.802 C 142.338 231.173,140.925 231.058,142.200 231.575 M237.800 231.620 C 237.011 231.835,237.422 231.870,239.000 231.723 C 240.320 231.600,241.475 231.432,241.567 231.350 C 241.864 231.082,239.034 231.285,237.800 231.620 M270.944 232.526 C 270.054 233.227,268.130 234.417,266.668 235.171 C 265.205 235.925,264.069 236.602,264.143 236.676 C 264.310 236.844,269.062 234.422,270.389 233.493 C 272.435 232.060,273.075 233.090,271.536 235.338 C 270.285 237.166,268.104 239.079,265.700 240.456 C 264.545 241.117,263.600 241.749,263.600 241.859 C 263.600 242.304,268.303 239.364,269.725 238.030 C 273.592 234.403,274.655 229.601,270.944 232.526 M118.800 232.262 C 118.800 232.712,119.841 233.705,120.800 234.169 C 121.130 234.329,121.040 234.172,120.600 233.821 C 120.160 233.470,119.575 232.882,119.300 232.515 C 119.025 232.148,118.800 232.034,118.800 232.262 M234.500 232.276 C 234.885 232.376,235.515 232.376,235.900 232.276 C 236.285 232.175,235.970 232.093,235.200 232.093 C 234.430 232.093,234.115 232.175,234.500 232.276 M231.700 232.676 C 232.085 232.776,232.715 232.776,233.100 232.676 C 233.485 232.575,233.170 232.493,232.400 232.493 C 231.630 232.493,231.315 232.575,231.700 232.676 M227.505 233.083 C 228.002 233.179,228.722 233.175,229.105 233.075 C 229.487 232.975,229.080 232.896,228.200 232.901 C 227.320 232.905,227.007 232.987,227.505 233.083 M158.100 233.876 C 158.485 233.976,159.115 233.976,159.500 233.876 C 159.885 233.775,159.570 233.693,158.800 233.693 C 158.030 233.693,157.715 233.775,158.100 233.876 M217.900 233.882 C 218.395 233.978,219.205 233.978,219.700 233.882 C 220.195 233.787,219.790 233.709,218.800 233.709 C 217.810 233.709,217.405 233.787,217.900 233.882 M122.600 235.014 C 123.260 235.317,124.070 235.558,124.400 235.552 C 124.730 235.545,124.370 235.297,123.600 235.000 C 121.774 234.297,121.055 234.307,122.600 235.014 M169.511 234.693 C 170.451 234.778,171.891 234.777,172.711 234.691 C 173.530 234.605,172.760 234.536,171.000 234.537 C 169.240 234.539,168.570 234.609,169.511 234.693 M202.500 234.694 C 203.545 234.776,205.255 234.776,206.300 234.694 C 207.345 234.612,206.490 234.544,204.400 234.544 C 202.310 234.544,201.455 234.612,202.500 234.694 M184.123 235.099 C 186.720 235.169,190.860 235.168,193.323 235.098 C 195.785 235.028,193.660 234.971,188.600 234.972 C 183.540 234.972,181.525 235.029,184.123 235.099 M243.800 235.200 C 243.296 235.417,243.222 235.544,243.600 235.544 C 243.930 235.544,244.560 235.389,245.000 235.200 C 245.504 234.983,245.578 234.856,245.200 234.856 C 244.870 234.856,244.240 235.011,243.800 235.200 M125.600 235.982 C 125.930 236.205,126.545 236.391,126.967 236.394 C 127.990 236.402,127.671 236.173,126.200 235.844 C 125.324 235.648,125.162 235.685,125.600 235.982 M240.400 236.000 C 239.596 236.257,239.557 236.323,240.200 236.332 C 240.640 236.338,241.360 236.189,241.800 236.000 C 242.819 235.562,241.768 235.562,240.400 236.000 M131.800 237.200 C 132.460 237.368,133.450 237.505,134.000 237.505 C 134.892 237.505,134.870 237.472,133.800 237.200 C 133.140 237.032,132.150 236.895,131.600 236.895 C 130.708 236.895,130.730 236.928,131.800 237.200 M261.400 237.578 C 260.520 237.995,259.980 238.336,260.200 238.338 C 260.746 238.342,263.902 236.864,263.400 236.840 C 263.180 236.830,262.280 237.162,261.400 237.578 M136.500 237.876 C 136.885 237.976,137.515 237.976,137.900 237.876 C 138.285 237.775,137.970 237.693,137.200 237.693 C 136.430 237.693,136.115 237.775,136.500 237.876 M139.505 238.283 C 140.002 238.379,140.722 238.375,141.105 238.275 C 141.487 238.175,141.080 238.096,140.200 238.101 C 139.320 238.105,139.007 238.187,139.505 238.283 M142.700 238.682 C 143.195 238.778,144.005 238.778,144.500 238.682 C 144.995 238.587,144.590 238.509,143.600 238.509 C 142.610 238.509,142.205 238.587,142.700 238.682 M225.700 238.676 C 226.085 238.776,226.715 238.776,227.100 238.676 C 227.485 238.575,227.170 238.493,226.400 238.493 C 225.630 238.493,225.315 238.575,225.700 238.676 M147.600 239.203 C 148.589 239.517,152.688 239.734,152.367 239.456 C 152.275 239.377,150.940 239.216,149.400 239.099 C 147.773 238.975,147.019 239.019,147.600 239.203 M156.000 240.020 C 156.990 240.197,158.430 240.330,159.200 240.317 C 160.345 240.297,160.235 240.236,158.600 239.982 C 155.853 239.554,153.569 239.588,156.000 240.020 M215.505 239.883 C 216.002 239.979,216.722 239.975,217.105 239.875 C 217.487 239.775,217.080 239.696,216.200 239.701 C 215.320 239.705,215.007 239.787,215.505 239.883 M211.305 240.287 C 211.914 240.379,212.814 240.377,213.305 240.282 C 213.797 240.187,213.300 240.111,212.200 240.114 C 211.100 240.117,210.697 240.195,211.305 240.287 M164.311 240.693 C 165.251 240.778,166.691 240.777,167.511 240.691 C 168.330 240.605,167.560 240.536,165.800 240.537 C 164.040 240.539,163.370 240.609,164.311 240.693 M204.711 240.693 C 205.651 240.778,207.091 240.777,207.911 240.691 C 208.730 240.605,207.960 240.536,206.200 240.537 C 204.440 240.539,203.770 240.609,204.711 240.693 M173.111 241.093 C 174.051 241.178,175.491 241.177,176.311 241.091 C 177.130 241.005,176.360 240.936,174.600 240.937 C 172.840 240.939,172.170 241.009,173.111 241.093 M195.712 241.095 C 196.764 241.177,198.384 241.176,199.312 241.092 C 200.240 241.008,199.380 240.941,197.400 240.942 C 195.420 240.943,194.660 241.012,195.712 241.095 M182.700 241.497 C 184.295 241.573,186.905 241.573,188.500 241.497 C 190.095 241.421,188.790 241.359,185.600 241.359 C 182.410 241.359,181.105 241.421,182.700 241.497 M148.277 244.281 C 145.946 244.882,150.258 247.648,153.400 247.568 C 153.840 247.557,153.223 247.285,152.029 246.964 C 147.797 245.826,147.871 244.675,152.139 245.265 C 153.645 245.473,155.175 245.578,155.539 245.499 C 155.902 245.419,154.850 245.166,153.200 244.937 C 151.550 244.707,149.930 244.424,149.600 244.308 C 149.270 244.191,148.674 244.179,148.277 244.281 M226.305 245.083 C 226.802 245.179,227.522 245.175,227.905 245.075 C 228.287 244.975,227.880 244.896,227.000 244.901 C 226.120 244.905,225.807 244.987,226.305 245.083 M158.200 246.006 C 160.240 246.336,165.069 246.519,164.767 246.254 C 164.675 246.173,162.710 246.012,160.400 245.895 C 157.568 245.751,156.851 245.787,158.200 246.006 M216.800 246.000 L 214.200 246.262 216.400 246.296 C 217.610 246.315,219.500 246.190,220.600 246.018 C 223.225 245.610,220.793 245.598,216.800 246.000 M251.000 246.000 C 250.496 246.217,250.422 246.344,250.800 246.344 C 251.130 246.344,251.760 246.189,252.200 246.000 C 252.704 245.783,252.778 245.656,252.400 245.656 C 252.070 245.656,251.440 245.811,251.000 246.000 M168.200 246.815 C 169.520 246.979,171.410 247.106,172.400 247.098 C 174.035 247.084,173.980 247.055,171.800 246.785 C 170.480 246.621,168.590 246.494,167.600 246.502 C 165.965 246.516,166.020 246.545,168.200 246.815 M209.700 246.687 C 210.305 246.778,211.295 246.778,211.900 246.687 C 212.505 246.595,212.010 246.520,210.800 246.520 C 209.590 246.520,209.095 246.595,209.700 246.687 M203.911 247.093 C 204.851 247.178,206.291 247.177,207.111 247.091 C 207.930 247.005,207.160 246.936,205.400 246.937 C 203.640 246.939,202.970 247.009,203.911 247.093 M186.100 247.497 C 187.585 247.574,190.015 247.574,191.500 247.497 C 192.985 247.420,191.770 247.357,188.800 247.357 C 185.830 247.357,184.615 247.420,186.100 247.497 M155.200 247.994 C 155.530 248.211,156.235 248.391,156.767 248.394 C 158.051 248.402,157.725 248.175,156.000 247.858 C 155.015 247.677,154.778 247.718,155.200 247.994 M158.044 248.556 C 158.357 248.897,169.758 250.409,171.600 250.354 C 172.370 250.331,170.570 249.991,167.600 249.598 C 164.630 249.205,161.210 248.750,160.000 248.588 C 158.790 248.425,157.910 248.411,158.044 248.556 M235.000 248.800 L 233.800 249.105 235.000 249.105 C 235.660 249.105,236.740 248.968,237.400 248.800 L 238.600 248.495 237.400 248.495 C 236.740 248.495,235.660 248.632,235.000 248.800 M228.800 249.617 C 227.935 249.809,228.546 249.846,230.400 249.712 C 232.050 249.593,233.475 249.429,233.567 249.348 C 233.858 249.090,230.257 249.293,228.800 249.617 M223.700 250.287 C 224.305 250.378,225.295 250.378,225.900 250.287 C 226.505 250.195,226.010 250.120,224.800 250.120 C 223.590 250.120,223.095 250.195,223.700 250.287 M175.911 250.693 C 176.851 250.778,178.291 250.777,179.111 250.691 C 179.930 250.605,179.160 250.536,177.400 250.537 C 175.640 250.539,174.970 250.609,175.911 250.693 M216.691 250.689 C 217.401 250.777,218.661 250.779,219.491 250.692 C 220.321 250.605,219.740 250.533,218.200 250.531 C 216.660 250.529,215.981 250.600,216.691 250.689 M183.100 251.093 C 184.035 251.177,185.565 251.177,186.500 251.093 C 187.435 251.009,186.670 250.940,184.800 250.940 C 182.930 250.940,182.165 251.009,183.100 251.093 M207.113 251.095 C 208.276 251.176,210.076 251.176,211.113 251.093 C 212.151 251.011,211.200 250.945,209.000 250.946 C 206.800 250.947,205.951 251.014,207.113 251.095 M124.446 264.313 C 124.216 264.744,124.050 275.575,124.028 291.613 C 123.973 331.960,123.794 333.089,116.707 338.000 C 113.586 340.162,113.513 341.372,116.316 344.423 C 118.799 347.124,119.197 347.278,121.510 346.433 C 123.588 345.673,127.200 343.395,127.200 342.844 C 127.200 342.669,127.830 342.187,128.600 341.772 C 129.370 341.357,130.000 340.920,130.000 340.801 C 130.000 340.682,130.779 339.542,131.732 338.269 C 135.873 332.732,136.077 330.577,135.923 293.885 C 135.816 268.176,135.723 264.322,135.200 263.991 C 134.004 263.236,124.877 263.509,124.446 264.313 M134.369 264.963 C 135.058 265.793,134.768 328.747,134.065 331.000 C 131.957 337.755,127.244 343.020,121.200 345.373 L 119.400 346.074 117.300 343.818 C 114.796 341.129,114.739 340.701,116.716 339.453 C 117.550 338.927,119.176 337.463,120.331 336.200 C 124.924 331.174,124.800 332.304,124.800 295.454 C 124.800 271.358,124.906 264.824,125.300 264.665 C 126.537 264.166,133.909 264.408,134.369 264.963 M157.600 279.989 C 156.610 280.173,154.575 280.521,153.077 280.763 C 151.580 281.005,149.611 281.562,148.702 282.002 C 147.793 282.441,146.824 282.800,146.547 282.800 C 144.739 282.800,143.928 284.521,144.416 287.324 C 145.162 291.609,145.976 291.815,153.200 289.543 C 162.146 286.731,168.995 289.651,168.999 296.280 C 169.000 299.590,168.995 299.593,161.944 300.203 C 151.368 301.117,145.455 304.102,142.692 309.921 C 141.658 312.100,141.379 321.939,142.325 322.885 C 142.586 323.146,142.800 323.696,142.800 324.106 C 142.800 324.980,146.320 328.531,148.096 329.450 C 152.745 331.854,162.426 331.146,167.486 328.032 C 170.000 326.485,170.217 326.494,171.014 328.172 C 172.083 330.426,178.766 331.028,180.247 329.004 C 181.890 326.757,180.812 290.704,178.997 287.195 C 176.134 281.658,166.354 278.364,157.600 279.989 M248.800 279.831 C 243.050 280.475,234.585 282.701,233.906 283.747 C 233.363 284.584,233.593 287.959,234.293 289.427 C 235.076 291.068,234.989 291.063,240.755 289.809 C 252.373 287.283,256.622 288.526,258.012 294.858 C 258.999 299.356,258.482 299.765,251.341 300.136 C 237.926 300.833,230.400 307.160,230.400 317.742 C 230.400 322.629,234.266 328.357,238.600 329.892 C 243.339 331.570,253.408 330.602,256.400 328.180 C 257.783 327.061,258.694 327.131,260.227 328.477 C 262.287 330.286,268.136 330.927,269.291 329.471 C 270.231 328.286,270.367 294.240,269.445 290.720 C 268.609 287.524,266.843 284.067,265.892 283.766 C 265.436 283.621,264.143 282.914,263.017 282.194 C 259.878 280.186,254.142 279.232,248.800 279.831 M186.100 280.827 C 184.573 281.416,184.971 283.999,187.823 292.000 C 188.882 294.973,193.426 309.766,194.835 314.831 C 195.238 316.277,196.014 318.707,196.560 320.231 C 197.106 321.754,197.852 324.201,198.217 325.668 C 199.056 329.038,199.900 329.985,202.116 330.046 C 206.414 330.164,212.271 329.881,212.942 329.523 C 213.664 329.138,216.000 324.536,216.000 323.499 C 216.000 323.213,216.531 321.904,217.179 320.590 C 217.827 319.275,218.830 316.670,219.407 314.800 C 219.985 312.930,220.968 310.050,221.592 308.400 C 222.646 305.613,224.048 300.215,226.524 289.400 C 228.580 280.421,228.713 280.684,222.079 280.635 C 215.845 280.590,215.908 280.515,214.607 289.400 C 214.284 291.600,213.292 296.190,212.401 299.600 C 211.511 303.010,210.532 306.880,210.227 308.200 C 208.582 315.318,207.690 315.972,206.258 311.108 C 205.658 309.069,204.274 304.610,203.182 301.200 C 202.091 297.790,201.198 294.673,201.199 294.274 C 201.200 293.874,201.028 293.227,200.819 292.835 C 200.609 292.443,200.049 290.609,199.575 288.761 C 198.620 285.039,197.127 281.452,196.323 280.947 C 195.606 280.496,187.213 280.398,186.100 280.827 M273.850 280.684 C 273.694 280.840,272.885 280.918,272.053 280.858 C 270.329 280.734,269.114 281.674,269.937 282.497 C 270.192 282.752,270.400 283.352,270.400 283.831 C 270.400 285.041,271.418 285.849,272.164 285.230 C 272.550 284.909,272.811 284.894,272.988 285.181 C 273.430 285.895,278.272 285.710,278.557 284.967 C 279.449 282.643,278.138 279.920,276.651 281.010 C 276.013 281.478,275.816 281.474,275.323 280.980 C 274.681 280.338,274.277 280.257,273.850 280.684 M169.000 281.445 C 170.320 281.785,171.789 282.156,172.265 282.271 C 174.210 282.740,177.483 286.281,178.578 289.101 L 179.627 291.800 179.513 310.200 L 179.400 328.600 176.600 328.878 C 173.134 329.223,172.195 328.741,171.803 326.416 C 171.461 324.393,171.518 324.388,167.226 326.829 C 154.742 333.926,142.394 328.985,142.402 316.896 C 142.410 306.626,150.812 300.815,165.671 300.803 C 170.235 300.799,170.530 300.528,170.186 296.652 C 169.425 288.059,163.506 285.695,150.856 288.932 C 146.056 290.160,146.224 290.202,145.606 287.624 C 144.944 284.866,145.230 284.333,147.895 283.346 C 149.860 282.618,151.542 282.196,157.000 281.059 C 159.085 280.625,166.771 280.873,169.000 281.445 M257.800 281.347 C 264.781 282.857,267.727 286.098,268.802 293.450 C 269.432 297.758,269.203 327.758,268.536 328.425 C 267.128 329.831,261.200 328.680,261.200 327.000 C 261.200 324.861,260.246 324.918,255.421 327.347 C 243.611 333.289,232.621 329.160,231.722 318.443 C 230.806 307.511,239.515 300.800,254.621 300.800 C 259.487 300.800,259.397 300.877,259.342 296.772 C 259.230 288.431,253.393 285.809,241.200 288.624 C 235.184 290.012,234.944 289.928,234.713 286.350 L 234.600 284.600 236.768 283.544 C 237.961 282.962,239.581 282.380,240.368 282.249 C 241.156 282.118,243.060 281.763,244.600 281.459 C 248.233 280.744,254.755 280.689,257.800 281.347 M195.852 281.906 C 196.335 282.220,197.138 284.531,199.430 292.200 C 200.219 294.840,201.592 299.250,202.480 302.000 C 203.368 304.750,204.757 309.418,205.568 312.373 C 206.378 315.329,207.212 317.804,207.422 317.874 C 208.753 318.318,214.233 299.066,216.204 287.022 C 217.149 281.247,216.810 281.553,222.121 281.687 L 226.600 281.800 226.561 283.200 C 226.421 288.156,220.236 310.779,216.990 318.200 C 216.702 318.860,215.857 320.930,215.113 322.800 C 212.512 329.337,212.727 329.187,205.960 329.196 C 200.605 329.202,200.391 329.063,199.050 324.693 C 198.427 322.662,197.414 319.380,196.799 317.400 C 196.184 315.420,195.110 311.910,194.412 309.600 C 193.715 307.290,192.271 302.610,191.203 299.200 C 187.727 288.096,187.525 287.432,186.809 284.717 C 186.419 283.241,186.198 281.936,186.317 281.817 C 186.645 281.488,195.334 281.570,195.852 281.906 M272.106 281.839 C 272.237 281.971,272.252 282.319,272.139 282.614 C 271.883 283.282,270.800 282.913,270.800 282.157 C 270.800 281.599,271.657 281.390,272.106 281.839 M274.959 282.838 C 275.517 283.957,275.517 284.054,274.956 283.838 C 274.614 283.707,274.259 283.600,274.167 283.600 C 274.075 283.600,274.000 283.150,274.000 282.600 C 274.000 281.286,274.211 281.339,274.959 282.838 M277.938 283.024 C 277.720 284.146,276.800 284.207,276.800 283.100 C 276.800 282.568,276.923 282.010,277.073 281.860 C 277.498 281.435,278.091 282.234,277.938 283.024 M162.600 306.834 C 154.788 307.572,151.742 310.236,152.070 316.043 C 152.505 323.728,161.436 325.392,168.800 319.160 L 170.200 317.975 170.200 312.807 C 170.200 306.304,169.986 306.136,162.600 306.834 M251.800 306.787 C 244.219 307.656,241.310 310.047,241.230 315.474 C 241.132 322.171,247.257 324.945,254.475 321.473 C 259.164 319.217,259.379 318.859,259.513 313.062 C 259.668 306.384,259.131 305.946,251.800 306.787 M168.835 308.466 C 169.850 310.362,169.089 317.603,167.763 318.676 C 164.514 321.304,158.301 323.057,157.400 321.600 C 157.264 321.380,156.828 321.200,156.431 321.200 C 154.265 321.200,152.560 317.374,153.207 313.964 C 153.979 309.892,155.552 308.890,162.800 307.852 C 166.139 307.374,168.373 307.601,168.835 308.466 M257.600 307.991 C 258.504 308.561,258.711 316.466,257.856 317.770 C 257.050 319.001,250.924 322.000,249.216 322.000 C 241.587 322.000,239.451 312.250,246.357 308.947 C 248.554 307.896,256.393 307.229,257.600 307.991 " stroke="none" fill="#d19fa5" fill-rule="evenodd"></path><path id="path4" d="M217.486 44.519 C 217.370 44.824,217.435 45.326,217.631 45.636 C 217.917 46.088,217.989 46.056,217.994 45.476 C 217.998 45.041,218.180 44.864,218.452 45.032 C 218.721 45.199,218.832 45.097,218.727 44.781 C 218.474 44.023,217.736 43.868,217.486 44.519 M238.010 86.295 C 236.505 86.826,236.346 86.976,237.010 87.235 C 237.445 87.405,237.575 87.556,237.300 87.572 C 237.025 87.587,236.800 87.785,236.800 88.010 C 236.800 88.564,238.800 87.505,239.763 86.441 C 240.651 85.460,240.428 85.441,238.010 86.295 M193.193 153.792 C 194.167 154.830,194.800 155.080,194.800 154.429 C 194.800 154.225,194.225 153.772,193.523 153.422 L 192.246 152.784 193.193 153.792 M251.000 155.388 C 246.219 156.580,243.155 158.826,247.200 158.172 C 257.971 156.431,266.135 164.080,263.389 173.338 C 262.166 177.460,258.704 182.274,254.699 185.421 C 253.874 186.069,252.498 187.236,251.642 188.013 C 250.786 188.790,249.121 189.941,247.943 190.570 C 246.764 191.199,245.260 192.097,244.600 192.567 C 243.940 193.037,242.736 193.766,241.924 194.188 C 239.766 195.311,240.875 196.175,243.281 195.245 C 243.787 195.050,245.730 194.393,247.600 193.785 C 260.561 189.571,270.467 181.512,272.531 173.502 C 275.424 162.272,263.526 152.262,251.000 155.388 M260.660 156.158 C 267.083 157.868,271.428 162.683,272.212 168.961 C 273.252 177.281,264.100 186.917,250.357 191.970 C 247.851 192.891,245.487 193.815,245.105 194.023 C 244.723 194.230,244.003 194.386,243.505 194.368 C 242.955 194.349,242.821 194.250,243.163 194.114 C 243.917 193.816,251.346 189.180,251.600 188.850 C 251.710 188.707,253.039 187.602,254.554 186.395 C 267.072 176.418,267.992 163.821,256.600 158.353 C 255.066 157.616,253.550 157.198,252.400 157.194 C 250.060 157.186,248.955 156.563,250.621 156.192 C 251.269 156.048,251.980 155.870,252.200 155.797 C 253.281 155.436,258.841 155.674,260.660 156.158 M159.754 157.995 C 153.290 159.156,145.790 161.521,140.900 163.940 C 136.755 165.990,135.600 166.926,135.600 168.234 C 135.600 178.106,217.706 177.904,234.175 167.992 C 238.744 165.242,238.748 164.861,234.200 165.591 C 232.880 165.803,230.180 166.173,228.200 166.413 C 226.220 166.652,222.440 167.116,219.800 167.443 C 188.134 171.369,151.200 170.625,151.200 166.062 C 151.200 164.372,162.777 158.866,166.488 158.790 C 166.770 158.784,167.720 158.438,168.600 158.022 L 170.200 157.265 167.000 157.266 C 165.240 157.267,161.979 157.595,159.754 157.995 M164.755 158.402 C 164.400 158.609,162.420 159.344,160.355 160.035 C 147.168 164.449,147.186 168.312,160.400 170.089 C 170.047 171.386,203.342 170.330,219.000 168.230 C 226.813 167.182,234.858 166.324,235.052 166.519 C 235.346 166.812,230.348 169.461,229.000 169.726 C 228.340 169.856,226.090 170.347,224.000 170.817 C 217.785 172.217,213.483 172.786,199.400 174.071 C 180.752 175.774,147.271 174.143,140.600 171.208 C 139.720 170.821,138.611 170.384,138.136 170.237 C 134.158 169.004,137.338 165.698,145.200 162.893 C 151.182 160.759,154.728 159.641,156.800 159.234 C 158.010 158.997,159.810 158.641,160.800 158.444 C 163.347 157.937,165.591 157.913,164.755 158.402 M157.529 183.100 C 150.520 186.691,150.234 190.158,156.704 193.119 C 170.023 199.213,200.361 199.402,224.731 193.541 C 232.060 191.778,232.546 191.476,230.100 190.198 C 229.275 189.767,227.735 188.700,226.678 187.826 C 224.377 185.925,223.867 185.886,216.800 187.081 C 214.050 187.546,210.270 188.119,208.400 188.356 C 206.530 188.593,203.598 188.969,201.884 189.193 C 194.367 190.175,172.062 189.434,165.271 187.978 C 161.448 187.158,159.848 184.392,161.969 182.271 C 163.655 180.585,161.741 180.942,157.529 183.100 M160.790 182.300 C 160.785 182.465,160.618 183.302,160.419 184.159 C 159.385 188.619,166.477 190.140,188.400 190.157 C 200.139 190.167,202.551 189.980,214.200 188.159 C 224.800 186.502,224.175 186.504,225.967 188.122 C 226.820 188.893,228.176 189.836,228.982 190.218 C 230.935 191.145,230.534 191.417,225.377 192.664 C 222.970 193.247,220.640 193.862,220.200 194.032 C 219.760 194.202,218.500 194.449,217.400 194.581 C 216.300 194.712,214.230 194.981,212.800 195.178 C 195.504 197.560,177.100 197.574,165.600 195.213 C 161.136 194.297,160.310 194.039,157.467 192.671 C 151.712 189.902,151.251 187.536,155.936 184.806 C 157.181 184.081,158.650 183.162,159.200 182.766 C 160.286 181.982,160.805 181.830,160.790 182.300 M165.000 204.582 C 151.317 208.741,159.742 217.663,179.800 220.255 C 188.087 221.326,203.923 220.776,211.168 219.166 C 221.450 216.880,228.264 214.593,227.915 213.544 C 227.840 213.319,225.533 211.964,222.789 210.532 L 217.800 207.930 214.600 208.363 C 212.840 208.602,208.998 209.148,206.063 209.576 C 195.881 211.063,186.787 211.060,174.800 209.566 C 167.883 208.704,166.238 207.792,166.917 205.194 C 167.199 204.117,166.873 204.013,165.000 204.582 M166.000 206.305 C 166.000 209.138,169.432 210.063,184.290 211.236 C 192.923 211.917,209.387 210.594,215.290 208.745 C 216.666 208.314,216.975 208.381,219.290 209.614 C 222.162 211.143,224.031 212.070,225.924 212.903 L 227.248 213.486 225.724 214.187 C 224.886 214.572,223.677 215.138,223.039 215.444 C 222.400 215.750,221.632 216.000,221.333 216.000 C 221.034 216.000,220.477 216.171,220.095 216.381 C 219.237 216.851,207.889 219.018,203.000 219.645 C 177.781 222.883,148.957 213.515,162.370 206.440 C 165.279 204.906,166.000 204.879,166.000 206.305 M142.200 218.978 C 131.485 220.523,120.944 225.390,119.201 229.597 C 117.369 234.020,122.800 236.009,143.200 238.388 C 176.824 242.308,207.420 241.911,234.200 237.208 C 255.334 233.496,267.500 227.063,262.618 222.182 C 261.193 220.757,260.403 220.884,260.644 222.500 C 261.240 226.490,255.843 228.989,241.461 231.386 C 236.114 232.277,231.584 232.803,219.000 233.993 C 183.903 237.313,132.800 233.282,132.800 227.193 C 132.800 225.156,140.071 221.723,147.026 220.474 C 153.610 219.292,149.296 217.955,142.200 218.978 M146.600 219.915 C 142.507 220.353,134.782 223.428,133.100 225.290 C 129.344 229.450,135.706 231.931,156.400 234.379 C 171.698 236.188,203.771 236.196,221.600 234.395 C 223.690 234.184,227.470 233.816,230.000 233.578 C 235.842 233.027,244.688 231.715,247.800 230.938 C 249.120 230.609,250.830 230.188,251.600 230.004 C 257.615 228.564,260.736 226.587,261.443 223.769 C 261.759 222.512,262.319 222.536,262.810 223.826 C 264.046 227.078,253.301 232.905,242.600 234.786 C 241.060 235.057,239.170 235.435,238.400 235.627 C 237.083 235.954,230.095 237.208,225.200 237.995 C 223.003 238.348,219.389 238.727,209.200 239.672 C 202.140 240.327,170.363 240.320,162.000 239.661 C 150.355 238.745,131.032 236.283,126.648 235.158 C 125.742 234.925,124.460 234.638,123.800 234.520 C 122.420 234.272,120.204 232.729,119.595 231.591 C 117.466 227.613,132.156 220.506,144.600 219.493 C 146.395 219.347,148.251 219.739,146.600 219.915 M270.389 233.493 C 267.680 235.390,262.238 237.752,257.200 239.217 C 255.550 239.696,253.390 240.328,252.400 240.621 C 247.008 242.214,235.938 244.105,222.400 245.744 C 203.688 248.010,174.901 247.954,155.400 245.615 C 144.289 244.281,148.334 246.770,160.200 248.567 C 179.248 251.451,212.337 251.964,228.800 249.630 C 230.230 249.427,233.020 249.056,235.000 248.807 C 251.754 246.692,264.248 242.685,269.444 237.759 C 272.780 234.597,273.508 231.308,270.389 233.493 M271.116 234.667 C 268.612 237.904,260.614 243.200,258.229 243.200 C 257.877 243.200,257.277 243.364,256.895 243.566 C 256.513 243.767,254.670 244.298,252.800 244.746 C 242.760 247.151,239.435 247.810,235.400 248.194 C 234.080 248.320,230.300 248.684,227.000 249.003 C 208.307 250.809,185.077 250.732,167.000 248.803 C 157.721 247.812,154.067 247.233,153.738 246.699 C 153.565 246.420,154.572 246.372,156.841 246.550 C 158.689 246.696,162.450 246.993,165.200 247.211 C 189.233 249.116,221.118 247.731,240.003 243.961 C 242.311 243.501,245.010 242.974,246.000 242.791 C 254.366 241.246,265.942 237.380,269.200 235.043 C 270.880 233.839,271.914 233.635,271.116 234.667 M270.800 282.157 C 270.800 282.913,271.883 283.282,272.139 282.614 C 272.381 281.983,272.077 281.600,271.333 281.600 C 271.040 281.600,270.800 281.851,270.800 282.157 M277.073 281.860 C 276.923 282.010,276.800 282.568,276.800 283.100 C 276.800 284.207,277.720 284.146,277.938 283.024 C 278.091 282.234,277.498 281.435,277.073 281.860 M274.000 283.157 C 274.000 283.354,274.285 283.624,274.633 283.757 C 275.611 284.133,275.741 284.051,275.200 283.400 C 274.648 282.735,274.000 282.604,274.000 283.157 " stroke="none" fill="#6988a9" fill-rule="evenodd"></path></g></svg>