<svg id="svg" version="1.1" xmlns="http://www.w3.org/2000/svg" xmlns:xlink="http://www.w3.org/1999/xlink" width="400" height="304.2682926829268" viewBox="0, 0, 400,304.2682926829268"><g id="svgg"><path id="path0" d="M246.119 59.058 C 243.775 59.184,234.902 59.303,226.401 59.324 L 210.946 59.361 210.672 60.046 C 210.522 60.422,210.249 61.963,210.065 63.470 C 209.882 64.977,209.535 67.374,209.293 68.798 C 209.052 70.221,208.634 73.029,208.364 75.038 C 207.726 79.790,207.410 81.934,207.016 84.170 C 206.712 85.897,206.407 87.889,205.806 92.085 C 205.663 93.090,205.117 96.446,204.595 99.543 C 204.072 102.641,203.513 106.065,203.353 107.154 C 203.088 108.956,202.657 111.411,201.800 115.982 C 201.628 116.903,201.370 118.478,201.227 119.482 C 201.084 120.487,200.758 122.473,200.501 123.896 C 198.947 132.526,198.102 137.105,197.691 139.117 C 197.135 141.839,196.814 143.511,196.375 145.967 C 196.196 146.971,195.772 149.231,195.434 150.989 C 195.095 152.747,194.670 155.008,194.488 156.012 C 194.306 157.017,193.828 159.482,193.425 161.492 C 193.022 163.501,191.937 168.980,191.014 173.668 C 190.091 178.356,188.856 184.452,188.269 187.215 C 186.907 193.626,186.785 194.186,186.131 197.058 C 185.665 199.103,185.649 199.481,186.020 199.717 C 186.493 200.016,213.122 200.106,214.218 199.812 C 214.982 199.607,215.387 198.558,215.674 196.043 C 215.779 195.122,215.986 193.683,216.136 192.846 C 216.392 191.404,216.636 189.789,217.363 184.703 C 217.692 182.396,218.024 180.193,218.543 176.865 C 218.713 175.776,219.002 173.858,219.186 172.603 C 219.369 171.347,219.641 169.635,219.789 168.798 C 219.937 167.960,220.212 166.248,220.399 164.992 C 220.734 162.740,221.102 160.513,221.633 157.534 C 221.783 156.697,222.187 154.300,222.533 152.207 C 223.525 146.199,224.102 143.981,224.767 143.625 C 225.943 142.995,242.410 143.502,245.189 144.253 C 251.263 145.895,255.341 148.908,257.610 153.433 C 259.124 156.453,261.174 162.740,262.422 168.189 C 262.767 169.696,263.244 171.750,263.482 172.755 C 263.931 174.649,264.365 176.782,264.858 179.528 C 265.015 180.407,265.276 181.846,265.436 182.725 C 265.826 184.866,266.929 191.186,267.309 193.455 C 267.477 194.460,267.715 196.123,267.838 197.152 C 268.210 200.268,266.749 200.014,284.081 199.974 C 297.126 199.943,299.306 199.875,299.453 199.492 C 299.609 199.085,299.228 196.985,297.420 188.280 C 296.741 185.014,296.318 183.128,295.883 181.431 C 294.903 177.604,294.578 176.251,294.350 175.038 C 294.208 174.285,293.956 173.052,293.790 172.298 C 293.624 171.545,293.402 170.518,293.296 170.015 C 293.191 169.513,292.988 168.828,292.846 168.493 C 292.704 168.158,292.503 167.473,292.399 166.971 C 292.295 166.469,292.071 165.510,291.901 164.840 C 291.730 164.170,291.522 163.212,291.437 162.709 C 291.352 162.207,291.137 161.454,290.958 161.035 C 290.423 159.778,290.234 159.230,288.869 154.947 C 288.148 152.686,287.456 150.632,287.330 150.381 C 287.205 150.129,286.400 148.418,285.543 146.577 C 284.686 144.736,283.741 142.955,283.444 142.620 C 283.147 142.284,282.624 141.518,282.283 140.917 C 280.540 137.852,276.812 134.646,272.932 132.878 C 269.002 131.087,269.324 130.391,275.190 127.990 C 282.449 125.019,288.121 121.466,293.483 116.531 C 294.545 115.555,298.630 110.710,298.630 110.428 C 298.630 110.351,299.254 109.343,300.016 108.188 C 305.727 99.537,308.085 86.260,305.417 77.778 C 303.474 71.601,299.668 67.517,292.684 64.116 C 291.350 63.466,290.021 62.816,289.730 62.670 C 289.439 62.524,288.934 62.405,288.607 62.405 C 288.279 62.405,287.937 62.284,287.846 62.137 C 287.755 61.989,287.370 61.793,286.991 61.701 C 286.612 61.609,285.753 61.375,285.084 61.181 C 283.898 60.837,283.104 60.688,278.691 59.981 C 272.616 59.008,255.903 58.535,246.119 59.058 M159.379 59.741 C 159.244 60.188,158.751 63.622,158.297 67.275 C 157.976 69.858,157.607 72.498,157.082 75.951 C 156.929 76.956,156.646 78.942,156.453 80.365 C 156.259 81.788,155.919 83.980,155.697 85.236 C 155.475 86.492,155.208 88.204,155.105 89.041 C 155.002 89.878,154.720 91.659,154.480 92.998 C 153.802 96.780,153.070 101.066,152.817 102.740 C 152.690 103.577,152.082 107.139,151.465 110.654 C 150.848 114.170,150.210 117.869,150.047 118.874 C 149.769 120.582,149.549 121.870,148.821 126.027 C 148.660 126.948,148.410 128.455,148.266 129.376 C 148.122 130.297,147.709 132.626,147.348 134.551 C 146.988 136.476,146.570 138.737,146.421 139.574 C 146.272 140.411,145.858 142.603,145.502 144.444 C 145.145 146.286,144.582 149.300,144.250 151.142 C 143.388 155.931,143.113 157.374,142.797 158.752 C 142.644 159.422,142.218 161.408,141.850 163.166 C 141.482 164.924,141.056 166.910,140.904 167.580 C 140.751 168.250,140.495 169.619,140.335 170.624 C 140.174 171.629,139.902 173.067,139.729 173.820 C 139.556 174.574,139.279 175.944,139.114 176.865 C 138.718 179.068,138.280 181.263,137.898 182.953 C 137.727 183.706,137.458 185.076,137.299 185.997 C 137.140 186.918,136.518 189.863,135.916 192.542 C 135.314 195.221,134.744 197.915,134.649 198.530 L 134.477 199.647 135.808 199.841 C 136.540 199.947,143.229 199.992,150.673 199.941 L 164.207 199.848 164.442 198.782 C 164.571 198.196,164.956 195.594,165.297 192.998 C 165.639 190.403,165.978 188.075,166.052 187.823 C 166.126 187.572,166.328 186.271,166.500 184.932 C 166.672 183.592,166.942 181.674,167.099 180.670 C 167.256 179.665,167.531 177.884,167.710 176.712 C 167.889 175.540,168.245 173.280,168.500 171.689 C 168.756 170.099,169.167 167.530,169.414 165.982 C 169.874 163.097,170.622 158.534,171.123 155.556 C 171.278 154.635,171.536 152.991,171.696 151.903 C 171.856 150.814,172.108 149.239,172.256 148.402 C 172.404 147.565,173.166 143.181,173.950 138.661 C 174.733 134.140,175.636 128.935,175.956 127.093 C 177.091 120.564,178.356 113.624,179.453 107.915 C 180.064 104.734,180.740 101.172,180.955 100.000 C 181.331 97.954,184.451 82.365,185.083 79.376 C 185.251 78.581,185.538 77.211,185.722 76.332 C 185.906 75.453,186.174 74.186,186.319 73.516 C 186.463 72.846,186.868 70.928,187.219 69.254 C 187.569 67.580,188.123 65.001,188.449 63.523 C 188.774 62.046,189.041 60.505,189.041 60.099 L 189.041 59.361 174.267 59.361 C 162.713 59.361,159.469 59.444,159.379 59.741 M142.312 80.520 C 139.801 81.776,137.268 83.086,136.682 83.430 C 136.096 83.773,135.000 84.394,134.247 84.809 C 131.640 86.244,126.240 89.412,123.638 91.033 C 122.574 91.695,121.615 92.239,121.507 92.241 C 121.398 92.242,120.624 92.789,119.787 93.455 C 118.950 94.121,118.105 94.668,117.910 94.670 C 117.714 94.671,117.509 94.783,117.453 94.919 C 117.397 95.054,116.667 95.627,115.830 96.191 C 104.438 103.873,87.796 119.200,84.155 125.362 C 83.840 125.896,83.482 126.332,83.359 126.332 C 81.972 126.332,72.437 143.446,70.554 149.315 C 63.722 170.608,66.256 188.164,78.729 205.970 C 81.755 210.288,89.798 218.590,93.276 220.986 C 93.626 221.226,94.513 221.945,95.248 222.584 C 95.983 223.222,96.710 223.744,96.863 223.744 C 97.016 223.744,97.948 224.292,98.935 224.962 C 99.921 225.632,100.813 226.180,100.917 226.180 C 101.021 226.180,101.596 226.556,102.196 227.017 C 104.066 228.453,110.468 231.900,114.460 233.619 C 119.056 235.598,120.803 236.310,121.613 236.537 C 122.116 236.678,123.737 237.224,125.217 237.751 C 128.716 238.997,132.151 239.949,138.356 241.393 C 142.519 242.361,143.365 242.537,145.510 242.880 C 146.598 243.054,148.379 243.340,149.467 243.516 C 157.713 244.851,176.734 245.544,183.866 244.770 C 197.128 243.330,198.343 243.186,201.674 242.664 C 204.711 242.187,208.924 241.385,209.893 241.098 C 210.396 240.950,211.971 240.599,213.394 240.319 C 214.817 240.038,216.598 239.631,217.352 239.413 C 218.105 239.195,219.064 238.949,219.482 238.865 C 226.007 237.560,241.252 232.658,249.508 229.209 C 251.160 228.519,252.785 227.844,253.120 227.710 C 254.834 227.021,257.907 225.700,259.665 224.896 C 260.753 224.398,262.192 223.772,262.861 223.505 C 264.267 222.944,276.268 216.905,278.082 215.846 C 278.752 215.455,280.327 214.585,281.583 213.912 C 287.092 210.961,287.687 210.614,293.915 206.712 C 298.870 203.609,299.031 203.183,295.182 203.369 C 294.316 203.411,287.619 203.423,280.300 203.397 L 266.992 203.349 265.952 202.435 C 264.821 201.442,263.364 201.250,261.223 201.810 C 260.617 201.969,258.478 202.384,256.469 202.732 C 254.460 203.081,252.062 203.497,251.142 203.656 C 246.138 204.523,243.406 204.935,240.944 205.195 C 238.270 205.478,236.802 205.616,227.093 206.496 C 224.498 206.731,220.255 206.952,217.665 206.986 C 215.075 207.020,212.884 207.092,212.795 207.145 C 212.407 207.378,196.714 206.654,192.846 206.225 C 182.239 205.049,172.505 203.194,168.192 201.529 C 167.374 201.213,167.218 201.253,166.669 201.919 C 165.485 203.357,165.596 203.349,148.631 203.349 L 132.534 203.349 131.688 202.466 C 130.749 201.486,130.731 201.899,131.979 195.890 C 133.514 188.504,133.943 186.286,134.100 184.932 L 134.277 183.409 132.348 181.431 C 118.338 167.060,113.012 148.918,116.933 128.919 C 117.261 127.245,117.651 125.601,117.798 125.266 C 117.946 124.932,118.132 124.315,118.212 123.896 C 118.451 122.646,119.649 118.637,120.077 117.656 C 120.296 117.154,120.919 115.578,121.461 114.155 C 122.362 111.790,124.372 107.692,125.939 105.023 C 127.450 102.448,128.675 100.528,129.452 99.513 C 129.912 98.912,130.289 98.331,130.289 98.222 C 130.289 97.988,131.945 95.629,134.062 92.846 C 136.488 89.658,138.985 86.855,142.942 82.878 C 148.553 77.238,148.590 77.376,142.312 80.520 M262.861 79.405 C 266.410 80.286,267.083 80.522,269.607 81.769 C 271.963 82.933,275.323 85.881,275.987 87.367 C 277.667 91.127,277.768 91.615,277.733 95.738 C 277.654 105.005,274.216 112.003,266.971 117.639 C 260.237 122.878,247.413 125.390,231.659 124.555 L 227.854 124.353 227.927 122.831 C 227.967 121.994,228.128 120.693,228.285 119.939 C 228.442 119.186,228.726 117.473,228.917 116.134 C 229.107 114.795,229.382 113.151,229.528 112.481 C 229.674 111.811,229.945 110.167,230.131 108.828 C 230.316 107.489,230.593 105.708,230.746 104.871 C 230.898 104.033,231.175 102.253,231.360 100.913 C 231.546 99.574,231.822 97.656,231.976 96.651 C 232.374 94.040,233.490 85.483,233.776 82.854 C 234.071 80.140,234.094 80.115,236.710 79.708 C 245.295 78.371,258.101 78.223,262.861 79.405 M324.201 184.152 C 323.950 184.298,322.854 184.715,321.766 185.078 C 320.677 185.441,318.280 186.258,316.438 186.894 C 314.597 187.530,311.651 188.490,309.893 189.028 C 308.135 189.565,305.738 190.351,304.566 190.775 C 303.394 191.198,302.114 191.616,301.720 191.704 C 300.805 191.908,301.011 194.117,302.531 200.409 L 302.740 201.275 303.507 200.670 C 303.929 200.338,304.701 199.811,305.222 199.500 C 306.121 198.963,310.873 195.589,316.624 191.405 C 319.498 189.313,326.027 184.157,326.027 183.978 C 326.027 183.758,324.649 183.889,324.201 184.152 " stroke="none" fill="#971c20" fill-rule="evenodd"></path><path id="path1" d="M0.000 152.207 L 0.000 304.414 200.000 304.414 L 400.000 304.414 400.000 152.207 L 400.000 0.000 200.000 0.000 L 0.000 0.000 0.000 152.207 M275.342 58.721 C 276.682 58.926,278.775 59.242,279.994 59.424 C 281.214 59.606,282.283 59.871,282.372 60.014 C 282.460 60.157,283.074 60.274,283.736 60.274 C 284.398 60.274,285.178 60.398,285.468 60.549 C 285.759 60.700,286.613 60.998,287.367 61.210 C 288.120 61.423,288.867 61.711,289.026 61.849 C 289.185 61.987,289.596 62.102,289.939 62.105 C 292.565 62.123,299.500 66.747,302.489 70.472 C 312.012 82.342,307.441 104.689,292.683 118.406 C 288.551 122.246,281.304 126.532,274.147 129.365 C 270.849 130.672,270.826 130.775,273.551 132.116 C 277.104 133.864,281.515 137.831,283.704 141.248 C 285.144 143.495,287.976 149.185,287.976 149.831 C 287.976 150.066,288.089 150.389,288.227 150.548 C 288.365 150.707,288.655 151.454,288.871 152.207 C 289.086 152.960,289.370 153.851,289.501 154.186 C 290.083 155.671,291.632 160.934,291.630 161.420 C 291.629 161.715,291.752 162.194,291.903 162.485 C 292.054 162.776,292.338 163.630,292.533 164.384 C 292.728 165.137,293.010 166.164,293.161 166.667 C 293.543 167.943,296.393 179.520,297.095 182.648 C 297.415 184.072,297.961 186.469,298.308 187.976 C 298.656 189.482,298.939 191.092,298.938 191.553 C 298.936 192.013,299.072 192.390,299.239 192.390 C 299.406 192.390,299.543 193.008,299.543 193.764 C 299.543 194.519,299.668 195.376,299.821 195.666 C 300.358 196.689,300.875 199.704,300.566 200.013 C 300.378 200.201,294.233 200.281,283.850 200.231 L 267.432 200.152 266.751 196.043 C 266.377 193.782,265.935 190.974,265.771 189.802 C 265.606 188.630,265.327 186.986,265.151 186.149 C 264.975 185.312,264.702 183.874,264.545 182.953 C 264.388 182.032,264.109 180.525,263.927 179.604 C 263.744 178.683,263.479 177.245,263.339 176.408 C 263.199 175.571,262.856 173.927,262.579 172.755 C 262.301 171.583,261.950 170.076,261.799 169.406 C 258.782 156.019,256.405 151.044,251.439 147.716 C 247.626 145.161,244.604 144.555,234.774 144.374 C 225.014 144.194,224.797 144.223,224.558 145.745 C 224.029 149.119,223.613 151.621,221.662 163.166 C 219.648 175.084,219.096 178.512,217.598 188.432 C 217.257 190.693,216.858 193.295,216.713 194.216 C 216.568 195.137,216.358 196.781,216.248 197.869 C 216.137 198.957,215.895 199.948,215.710 200.071 C 214.965 200.566,185.079 200.341,184.886 199.839 C 184.788 199.583,185.145 197.447,185.680 195.091 C 186.215 192.736,187.039 188.870,187.512 186.500 C 187.985 184.131,188.653 180.890,188.996 179.300 C 190.307 173.216,194.910 149.723,195.914 143.988 C 196.835 138.723,197.299 136.130,198.013 132.268 C 198.416 130.091,199.022 126.735,199.361 124.810 C 199.700 122.884,200.324 119.391,200.748 117.047 C 201.171 114.703,201.727 111.484,201.983 109.893 C 202.238 108.303,202.648 105.906,202.893 104.566 C 203.738 99.949,206.047 85.371,206.992 78.691 C 207.513 75.008,208.065 71.172,208.220 70.167 C 208.374 69.163,208.652 67.108,208.837 65.601 C 209.435 60.737,209.722 59.256,210.116 59.006 C 210.329 58.872,215.297 58.741,221.157 58.717 C 227.017 58.693,235.441 58.573,239.878 58.450 C 251.853 58.120,272.437 58.278,275.342 58.721 M189.926 59.174 C 190.194 59.497,190.089 60.443,189.478 63.207 C 186.830 75.187,185.947 79.259,185.522 81.431 C 185.260 82.770,184.928 84.346,184.783 84.932 C 184.639 85.518,184.381 86.750,184.210 87.671 C 184.039 88.592,183.697 90.373,183.450 91.629 C 183.203 92.884,182.644 95.830,182.208 98.174 C 181.771 100.518,181.210 103.463,180.959 104.718 C 180.519 106.928,178.977 115.352,177.754 122.222 C 177.427 124.064,177.096 125.776,177.020 126.027 C 176.873 126.515,175.465 134.599,174.264 141.857 C 173.862 144.285,173.329 147.230,173.078 148.402 C 172.828 149.574,172.557 151.081,172.476 151.750 C 172.396 152.420,172.046 154.680,171.700 156.773 C 171.354 158.866,170.931 161.537,170.761 162.709 C 170.030 167.743,169.887 168.706,169.269 172.755 C 168.911 175.099,168.496 177.839,168.348 178.843 C 168.200 179.848,167.794 182.519,167.445 184.779 C 166.798 188.982,166.553 190.697,165.783 196.415 C 165.541 198.210,165.256 199.820,165.150 199.992 C 164.923 200.358,133.757 200.441,133.535 200.076 C 133.395 199.845,133.758 197.786,134.675 193.607 C 134.951 192.352,135.455 190.023,135.796 188.432 C 136.137 186.842,136.539 185.061,136.689 184.475 C 137.011 183.224,138.331 176.848,138.990 173.364 C 139.243 172.024,139.565 170.518,139.705 170.015 C 139.846 169.513,140.105 168.349,140.282 167.428 C 140.458 166.507,140.750 165.000,140.929 164.079 C 142.084 158.146,142.742 154.617,142.916 153.425 C 143.025 152.671,143.380 150.685,143.704 149.011 C 144.287 146.000,144.538 144.649,145.176 141.096 C 145.356 140.091,145.772 137.831,146.100 136.073 C 146.427 134.315,146.983 131.301,147.334 129.376 C 147.685 127.451,148.369 123.752,148.853 121.157 C 149.337 118.562,149.966 115.000,150.251 113.242 C 150.535 111.484,150.872 109.498,150.998 108.828 C 151.551 105.905,153.500 93.848,154.197 89.041 C 154.439 87.367,154.900 84.285,155.221 82.192 C 156.473 74.018,157.836 64.294,158.155 61.262 C 158.291 59.970,158.517 59.263,158.858 59.064 C 159.729 58.555,189.500 58.661,189.926 59.174 M150.076 76.754 C 150.076 77.122,149.311 78.062,148.174 79.092 C 145.360 81.639,140.499 86.632,138.637 88.889 C 137.738 89.977,136.377 91.621,135.611 92.542 C 134.845 93.463,133.587 95.107,132.815 96.195 C 129.638 100.673,128.767 101.954,128.767 102.143 C 128.767 102.252,128.509 102.705,128.194 103.149 C 125.761 106.579,120.502 118.214,119.367 122.679 C 117.801 128.836,117.535 130.238,116.911 135.651 C 116.135 142.370,117.032 151.666,119.051 157.839 C 119.379 158.843,119.799 160.145,119.983 160.731 C 121.743 166.339,127.117 174.512,133.258 180.919 C 135.979 183.759,135.941 182.547,133.635 192.998 C 133.099 195.426,132.525 198.353,132.358 199.502 C 131.873 202.849,130.521 202.589,148.337 202.576 C 164.999 202.563,165.183 202.548,165.651 201.207 C 166.066 200.015,166.137 200.019,171.385 201.540 C 172.641 201.904,174.285 202.306,175.038 202.432 C 175.791 202.559,177.846 202.964,179.604 203.333 C 189.942 205.503,209.774 206.650,222.527 205.815 C 234.531 205.029,247.601 203.628,249.991 202.871 C 250.278 202.779,251.511 202.571,252.730 202.407 C 256.716 201.871,258.250 201.617,261.492 200.957 C 265.560 200.129,265.649 200.133,266.191 201.181 C 266.886 202.524,266.704 202.510,283.972 202.607 C 292.904 202.657,300.284 202.770,300.372 202.858 C 300.900 203.386,296.292 207.002,295.090 207.002 C 294.861 207.002,294.673 207.104,294.673 207.230 C 294.673 207.356,294.022 207.798,293.227 208.212 C 292.432 208.626,291.712 209.038,291.629 209.126 C 291.456 209.308,288.663 211.040,287.062 211.957 C 286.476 212.293,285.586 212.820,285.084 213.129 C 284.581 213.438,283.417 214.085,282.496 214.566 C 281.575 215.048,279.863 215.978,278.691 216.633 C 275.458 218.439,261.975 225.035,259.209 226.164 C 258.874 226.300,257.393 226.976,255.919 227.666 C 254.444 228.355,252.980 228.919,252.664 228.919 C 252.349 228.919,252.012 229.046,251.916 229.202 C 251.820 229.357,251.230 229.643,250.605 229.837 C 249.979 230.031,249.012 230.395,248.455 230.645 C 246.987 231.306,242.713 232.870,240.944 233.395 C 240.107 233.644,238.394 234.233,237.139 234.704 C 235.883 235.176,233.417 235.999,231.659 236.532 C 229.901 237.066,227.887 237.691,227.183 237.921 C 225.039 238.622,215.232 241.053,212.481 241.566 C 211.058 241.831,208.524 242.314,206.849 242.640 C 202.261 243.532,200.122 243.861,197.108 244.135 C 195.601 244.273,192.656 244.620,190.563 244.908 C 184.799 245.700,159.477 245.719,154.033 244.935 C 151.941 244.634,149.269 244.279,148.097 244.147 C 144.165 243.702,136.873 242.302,136.489 241.918 C 136.372 241.801,135.943 241.705,135.536 241.705 C 135.130 241.705,134.022 241.487,133.076 241.222 C 130.434 240.480,125.424 238.975,123.896 238.463 C 122.147 237.877,122.136 237.873,116.895 235.604 C 115.304 234.915,113.318 234.060,112.481 233.705 C 107.786 231.708,97.530 225.629,95.110 223.408 C 94.764 223.091,94.330 222.831,94.146 222.831 C 93.961 222.831,93.765 222.728,93.709 222.603 C 93.653 222.477,92.858 221.758,91.942 221.005 C 88.870 218.478,88.483 218.125,85.445 215.068 C 82.582 212.189,80.427 209.760,78.946 207.745 C 78.584 207.252,77.819 206.227,77.246 205.466 C 76.673 204.706,75.697 203.178,75.078 202.071 C 74.459 200.964,73.752 199.891,73.506 199.687 C 73.260 199.483,73.059 199.213,73.059 199.086 C 73.059 198.960,72.388 197.435,71.567 195.699 C 67.110 186.272,65.269 175.838,66.149 164.992 C 66.658 158.720,68.764 150.336,71.093 145.312 C 71.337 144.784,71.537 144.242,71.537 144.107 C 71.537 143.688,74.921 137.206,75.840 135.866 C 76.320 135.166,76.712 134.513,76.712 134.414 C 76.712 133.327,84.886 122.510,89.605 117.352 C 92.398 114.299,92.836 113.854,96.499 110.355 C 100.284 106.741,110.249 98.752,113.663 96.596 C 114.520 96.055,115.376 95.479,115.565 95.316 C 116.197 94.774,125.089 88.889,125.276 88.889 C 125.378 88.889,126.034 88.501,126.734 88.026 C 130.347 85.575,149.310 75.666,149.803 75.970 C 149.953 76.063,150.076 76.416,150.076 76.754 M244.597 79.620 C 244.429 79.686,242.854 79.879,241.096 80.049 C 234.676 80.670,234.505 80.791,234.423 84.754 C 234.410 85.410,234.272 86.780,234.116 87.799 C 233.960 88.817,233.674 90.883,233.479 92.390 C 233.284 93.896,232.867 96.842,232.552 98.935 C 232.238 101.027,231.695 104.658,231.347 107.002 C 230.998 109.346,230.453 112.565,230.136 114.155 C 228.838 120.669,228.506 123.335,228.956 123.645 C 229.601 124.090,246.182 123.717,249.467 123.183 C 263.349 120.928,270.596 115.942,275.196 105.479 C 277.220 100.877,277.471 92.641,275.702 88.889 C 275.505 88.470,275.268 88.059,275.176 87.976 C 275.084 87.892,274.686 87.344,274.292 86.758 C 270.780 81.535,264.264 79.461,251.446 79.487 C 247.846 79.494,244.764 79.554,244.597 79.620 M328.708 182.842 C 328.776 183.318,328.491 183.679,327.642 184.195 C 327.005 184.582,325.731 185.495,324.810 186.224 C 323.889 186.952,322.793 187.806,322.374 188.121 C 321.956 188.436,320.840 189.310,319.894 190.063 C 318.949 190.816,317.442 191.952,316.546 192.587 C 315.649 193.222,314.848 193.823,314.764 193.922 C 314.610 194.105,311.393 196.354,307.072 199.301 C 305.772 200.188,304.620 200.913,304.514 200.913 C 304.407 200.913,303.870 201.256,303.321 201.674 C 301.998 202.684,301.409 202.672,301.606 201.640 C 301.741 200.934,300.977 197.051,300.066 193.821 C 299.667 192.405,300.063 191.065,300.920 190.932 C 301.251 190.881,302.002 190.651,302.588 190.421 C 303.174 190.191,305.297 189.508,307.306 188.903 C 309.315 188.299,311.197 187.671,311.487 187.509 C 311.778 187.347,312.225 187.215,312.481 187.215 C 312.737 187.215,313.184 187.082,313.474 186.919 C 314.059 186.593,316.828 185.623,321.918 183.963 C 323.760 183.362,325.540 182.762,325.875 182.629 C 327.077 182.154,327.406 182.077,328.006 182.134 C 328.372 182.169,328.652 182.451,328.708 182.842 " stroke="none" fill="#fbfbfb" fill-rule="evenodd"></path><path id="path2" d="M239.878 58.450 C 235.441 58.573,227.017 58.693,221.157 58.717 C 215.297 58.741,210.329 58.872,210.116 59.006 C 209.723 59.256,209.441 60.707,208.834 65.601 C 208.647 67.108,208.362 69.231,208.200 70.320 C 206.066 84.674,205.878 86.157,206.234 85.801 C 206.313 85.721,206.508 84.774,206.667 83.695 C 208.218 73.126,209.238 65.935,209.598 63.036 C 209.836 61.124,210.186 59.462,210.376 59.345 C 210.566 59.227,218.618 59.045,228.268 58.940 C 237.918 58.836,250.282 58.666,255.742 58.563 C 267.269 58.346,277.638 58.982,281.859 60.165 C 282.321 60.294,282.521 60.256,282.401 60.062 C 282.297 59.893,281.214 59.606,279.994 59.424 C 278.775 59.242,276.682 58.926,275.342 58.721 C 272.437 58.278,251.853 58.120,239.878 58.450 M158.858 59.064 C 158.517 59.263,158.291 59.970,158.155 61.262 C 157.836 64.294,156.473 74.018,155.221 82.192 C 154.900 84.285,154.439 87.367,154.197 89.041 C 153.500 93.848,151.551 105.905,150.998 108.828 C 150.872 109.498,150.535 111.484,150.251 113.242 C 149.966 115.000,149.337 118.562,148.853 121.157 C 148.369 123.752,147.685 127.451,147.334 129.376 C 146.983 131.301,146.427 134.315,146.100 136.073 C 145.772 137.831,145.356 140.091,145.176 141.096 C 144.538 144.649,144.287 146.000,143.704 149.011 C 143.380 150.685,143.025 152.671,142.916 153.425 C 142.742 154.617,142.084 158.146,140.929 164.079 C 140.750 165.000,140.458 166.507,140.282 167.428 C 140.105 168.349,139.846 169.513,139.705 170.015 C 139.565 170.518,139.243 172.024,138.990 173.364 C 138.331 176.848,137.011 183.224,136.689 184.475 C 136.539 185.061,136.137 186.842,135.796 188.432 C 135.455 190.023,134.951 192.352,134.675 193.607 C 133.758 197.786,133.395 199.845,133.535 200.076 C 133.757 200.441,164.923 200.358,165.150 199.992 C 165.256 199.820,165.541 198.210,165.783 196.415 C 167.074 186.838,167.742 182.214,168.036 180.822 C 168.196 180.068,168.606 177.466,168.947 175.038 C 169.289 172.610,169.700 169.767,169.861 168.720 C 170.022 167.673,170.295 165.892,170.467 164.763 C 170.640 163.633,171.066 160.897,171.415 158.682 C 171.763 156.466,171.986 154.480,171.909 154.268 C 171.832 154.055,171.674 154.566,171.556 155.403 C 171.439 156.240,171.214 157.610,171.057 158.447 C 170.899 159.285,170.429 162.230,170.011 164.992 C 169.594 167.755,168.835 172.618,168.326 175.799 C 167.816 178.980,167.210 182.953,166.978 184.627 C 165.971 191.920,164.985 198.682,164.837 199.315 L 164.676 200.000 149.309 200.000 C 134.874 200.000,133.943 199.968,133.950 199.467 C 133.954 199.174,134.230 197.770,134.563 196.347 C 135.460 192.515,137.164 184.504,138.512 177.778 C 139.167 174.513,139.975 170.540,140.308 168.950 C 140.995 165.671,143.205 154.228,144.600 146.728 C 145.114 143.965,145.801 140.266,146.128 138.508 C 146.868 134.531,148.193 127.293,148.553 125.266 C 148.702 124.429,149.031 122.580,149.285 121.157 C 150.122 116.463,151.632 107.645,151.944 105.632 C 152.112 104.543,152.374 102.900,152.524 101.979 C 152.675 101.058,153.072 98.592,153.406 96.499 C 153.741 94.406,154.078 92.420,154.155 92.085 C 154.233 91.750,154.442 90.449,154.621 89.193 C 154.799 87.938,155.214 85.198,155.542 83.105 C 155.871 81.012,156.772 74.849,157.545 69.410 C 158.364 63.647,159.100 59.425,159.308 59.291 C 159.504 59.165,166.377 59.095,174.581 59.135 L 189.498 59.209 189.462 60.426 C 189.442 61.096,188.646 65.068,187.694 69.254 C 186.741 73.440,185.701 78.234,185.383 79.909 C 185.064 81.583,184.675 83.569,184.517 84.323 C 183.626 88.568,181.313 100.559,179.144 112.177 C 178.706 114.521,178.160 117.397,177.931 118.569 C 177.702 119.741,177.091 123.097,176.575 126.027 C 176.058 128.957,175.275 133.341,174.835 135.769 C 174.395 138.196,173.928 140.868,173.798 141.705 C 173.668 142.542,173.402 144.186,173.206 145.358 C 173.010 146.530,172.798 147.968,172.736 148.554 C 172.470 151.065,173.474 146.709,174.245 142.009 C 175.440 134.729,176.504 128.589,177.015 126.027 C 177.577 123.217,179.061 115.205,179.893 110.502 C 180.233 108.577,180.715 105.974,180.963 104.718 C 181.211 103.463,181.771 100.518,182.208 98.174 C 182.644 95.830,183.203 92.884,183.450 91.629 C 183.697 90.373,184.039 88.592,184.210 87.671 C 184.381 86.750,184.639 85.518,184.783 84.932 C 184.928 84.346,185.260 82.770,185.522 81.431 C 185.947 79.259,186.830 75.187,189.478 63.207 C 190.089 60.443,190.194 59.497,189.926 59.174 C 189.500 58.661,159.729 58.555,158.858 59.064 M284.018 60.578 C 285.111 60.928,285.604 60.928,285.388 60.578 C 285.285 60.411,284.763 60.288,284.229 60.304 C 283.301 60.333,283.291 60.346,284.018 60.578 M287.342 61.513 C 288.250 61.835,289.057 62.034,289.136 61.954 C 289.216 61.875,289.021 61.728,288.704 61.626 C 288.387 61.525,287.813 61.316,287.429 61.162 C 287.044 61.009,286.496 60.893,286.211 60.905 C 285.926 60.917,286.435 61.191,287.342 61.513 M291.020 62.826 C 302.396 67.584,307.167 74.927,306.761 87.055 C 306.259 102.067,298.366 115.449,285.393 123.285 C 283.946 124.159,282.833 124.943,282.918 125.029 C 283.141 125.251,287.007 122.848,290.283 120.451 C 297.522 115.155,303.715 105.494,306.030 95.890 C 309.341 82.150,307.052 73.515,298.155 66.184 C 296.738 65.017,290.866 62.105,289.954 62.118 C 289.619 62.122,290.099 62.441,291.020 62.826 M143.206 79.017 C 136.320 82.519,128.747 86.660,126.734 88.026 C 126.034 88.501,125.378 88.889,125.276 88.889 C 125.089 88.889,116.197 94.774,115.565 95.316 C 115.376 95.479,114.520 96.055,113.663 96.596 C 110.249 98.752,100.284 106.741,96.499 110.355 C 92.836 113.854,92.398 114.299,89.605 117.352 C 84.886 122.510,76.712 133.327,76.712 134.414 C 76.712 134.513,76.320 135.166,75.840 135.866 C 74.921 137.206,71.537 143.688,71.537 144.107 C 71.537 144.242,71.337 144.784,71.093 145.312 C 68.764 150.336,66.658 158.720,66.149 164.992 C 65.269 175.838,67.110 186.272,71.567 195.699 C 72.388 197.435,73.059 198.960,73.059 199.086 C 73.059 199.213,73.260 199.483,73.506 199.687 C 73.752 199.891,74.459 200.964,75.078 202.071 C 75.697 203.178,76.673 204.706,77.246 205.466 C 77.819 206.227,78.584 207.252,78.946 207.745 C 80.427 209.760,82.582 212.189,85.445 215.068 C 88.483 218.125,88.870 218.478,91.942 221.005 C 92.858 221.758,93.653 222.477,93.709 222.603 C 93.765 222.728,93.961 222.831,94.146 222.831 C 94.330 222.831,94.764 223.091,95.110 223.408 C 97.530 225.629,107.786 231.708,112.481 233.705 C 113.318 234.060,115.304 234.915,116.895 235.604 C 122.136 237.873,122.147 237.877,123.896 238.463 C 125.424 238.975,130.434 240.480,133.076 241.222 C 134.022 241.487,135.130 241.705,135.536 241.705 C 135.943 241.705,136.372 241.801,136.489 241.918 C 136.873 242.302,144.159 243.701,148.097 244.147 C 149.269 244.280,151.804 244.601,153.729 244.860 C 155.654 245.119,158.120 245.321,159.209 245.309 C 161.644 245.282,161.267 245.200,156.621 244.751 C 149.404 244.052,139.562 242.456,136.201 241.440 C 135.712 241.293,134.559 241.007,133.638 240.806 C 132.717 240.606,131.347 240.248,130.594 240.011 C 129.840 239.775,128.059 239.218,126.636 238.774 C 93.955 228.585,72.320 206.976,66.938 179.148 C 64.547 166.789,68.843 147.601,76.817 135.013 C 86.853 119.171,98.038 107.962,116.769 94.977 C 120.472 92.410,129.379 86.781,130.594 86.241 C 130.845 86.129,132.694 85.124,134.703 84.008 C 141.311 80.336,148.806 76.644,149.181 76.876 C 149.419 77.023,147.909 78.700,144.838 81.701 C 115.163 110.699,107.726 147.305,126.207 173.397 C 128.255 176.289,129.799 178.102,133.409 181.857 C 135.012 183.524,135.051 183.716,134.398 186.758 C 134.146 187.930,133.728 189.916,133.469 191.172 C 133.211 192.428,132.663 194.978,132.253 196.840 C 130.762 203.607,129.256 203.044,148.858 203.044 C 165.861 203.044,166.210 203.010,166.210 201.366 C 166.210 200.622,166.634 200.644,169.870 201.558 C 176.245 203.356,184.572 204.862,193.301 205.796 C 204.747 207.020,223.931 206.732,236.530 205.146 C 237.953 204.967,240.282 204.702,241.705 204.558 C 244.309 204.295,247.878 203.755,252.664 202.901 C 254.087 202.647,256.484 202.231,257.991 201.978 C 259.498 201.724,261.707 201.341,262.900 201.126 C 265.232 200.707,265.753 200.747,265.753 201.348 C 265.753 202.868,265.888 202.881,283.137 203.044 C 293.491 203.142,299.266 203.305,299.315 203.501 C 299.390 203.801,298.635 204.318,292.462 208.200 C 285.766 212.411,269.577 221.011,262.095 224.333 C 261.177 224.740,258.919 225.742,257.078 226.560 C 255.236 227.377,252.839 228.386,251.750 228.802 C 250.662 229.218,249.155 229.841,248.402 230.188 C 247.648 230.534,245.457 231.361,243.532 232.026 C 240.060 233.226,238.810 233.763,239.449 233.781 C 240.087 233.798,246.101 231.705,248.455 230.645 C 249.012 230.395,249.979 230.031,250.605 229.837 C 251.230 229.643,251.820 229.357,251.916 229.202 C 252.012 229.046,252.349 228.919,252.664 228.919 C 252.980 228.919,254.444 228.355,255.919 227.666 C 257.393 226.976,258.874 226.300,259.209 226.164 C 261.975 225.035,275.458 218.439,278.691 216.633 C 279.863 215.978,281.575 215.048,282.496 214.566 C 283.417 214.085,284.581 213.438,285.084 213.129 C 285.586 212.820,286.476 212.293,287.062 211.957 C 288.663 211.040,291.456 209.308,291.629 209.126 C 291.712 209.038,292.432 208.626,293.227 208.212 C 294.022 207.798,294.673 207.356,294.673 207.230 C 294.673 207.104,294.861 207.002,295.090 207.002 C 296.292 207.002,300.900 203.386,300.372 202.858 C 300.284 202.770,292.904 202.657,283.972 202.607 C 266.704 202.510,266.886 202.524,266.191 201.181 C 265.649 200.133,265.560 200.129,261.492 200.957 C 258.250 201.617,256.716 201.871,252.730 202.407 C 251.511 202.571,250.278 202.779,249.991 202.871 C 247.601 203.628,234.531 205.029,222.527 205.815 C 215.019 206.307,199.629 205.974,192.542 205.168 C 184.162 204.214,183.046 204.056,179.604 203.333 C 177.846 202.964,175.791 202.559,175.038 202.432 C 174.285 202.306,172.641 201.904,171.385 201.540 C 166.137 200.019,166.066 200.015,165.651 201.207 C 165.183 202.548,164.999 202.563,148.337 202.576 C 130.521 202.589,131.873 202.849,132.358 199.502 C 132.525 198.353,133.099 195.426,133.635 192.998 C 135.941 182.547,135.979 183.759,133.258 180.919 C 127.117 174.512,121.743 166.339,119.983 160.731 C 119.799 160.145,119.379 158.843,119.051 157.839 C 117.032 151.666,116.135 142.370,116.911 135.651 C 117.535 130.238,117.801 128.836,119.367 122.679 C 120.502 118.214,125.761 106.579,128.194 103.149 C 128.509 102.705,128.767 102.252,128.767 102.143 C 128.767 101.954,129.638 100.673,132.815 96.195 C 133.587 95.107,134.845 93.463,135.611 92.542 C 136.377 91.621,137.738 89.977,138.637 88.889 C 140.499 86.632,145.360 81.639,148.174 79.092 C 149.954 77.479,150.513 76.409,149.803 75.970 C 149.652 75.877,146.684 77.249,143.206 79.017 M241.705 79.452 C 235.109 80.081,234.507 80.347,234.258 82.746 C 234.082 84.446,233.843 86.345,233.200 91.172 C 232.700 94.928,231.115 105.370,230.429 109.437 C 230.089 111.446,229.536 114.799,229.199 116.887 C 228.863 118.975,228.458 121.262,228.299 121.968 C 227.818 124.114,227.757 124.086,233.424 124.307 C 258.352 125.276,272.563 118.047,276.558 102.364 C 279.530 90.699,275.279 83.134,264.079 80.160 C 260.765 79.279,247.809 78.869,241.705 79.452 M260.578 79.906 C 268.138 81.171,271.748 82.974,274.292 86.758 C 274.686 87.344,275.084 87.892,275.176 87.976 C 277.403 90.001,277.415 100.434,275.196 105.479 C 270.596 115.942,263.349 120.928,249.467 123.183 C 246.182 123.717,229.601 124.090,228.956 123.645 C 228.506 123.335,228.838 120.669,230.136 114.155 C 230.453 112.565,230.998 109.346,231.347 107.002 C 231.695 104.658,232.238 101.027,232.552 98.935 C 232.867 96.842,233.284 93.896,233.479 92.390 C 233.674 90.883,233.960 88.817,234.116 87.799 C 234.272 86.780,234.410 85.410,234.423 84.754 C 234.505 80.791,234.676 80.670,241.096 80.049 C 242.854 79.879,244.429 79.686,244.597 79.620 C 245.452 79.283,258.216 79.511,260.578 79.906 M204.599 94.444 C 203.882 98.839,203.104 103.463,202.870 104.718 C 202.636 105.974,202.236 108.303,201.981 109.893 C 201.727 111.484,201.171 114.703,200.748 117.047 C 200.324 119.391,199.700 122.884,199.361 124.810 C 199.022 126.735,198.416 130.091,198.013 132.268 C 197.299 136.130,196.835 138.723,195.914 143.988 C 194.910 149.723,190.307 173.216,188.996 179.300 C 188.653 180.890,187.985 184.131,187.512 186.500 C 187.039 188.870,186.215 192.736,185.680 195.091 C 185.145 197.447,184.788 199.583,184.886 199.839 C 185.079 200.341,214.965 200.566,215.710 200.071 C 215.895 199.948,216.137 198.957,216.248 197.869 C 216.358 196.781,216.568 195.137,216.713 194.216 C 216.858 193.295,217.257 190.693,217.598 188.432 C 219.096 178.512,219.648 175.084,221.662 163.166 C 223.613 151.621,224.029 149.119,224.558 145.745 C 224.797 144.223,225.014 144.194,234.774 144.374 C 251.264 144.678,255.774 147.799,259.942 161.796 C 260.204 162.675,261.229 166.877,261.799 169.406 C 261.950 170.076,262.301 171.583,262.579 172.755 C 262.856 173.927,263.199 175.571,263.339 176.408 C 263.479 177.245,263.744 178.683,263.927 179.604 C 264.109 180.525,264.388 182.032,264.545 182.953 C 264.702 183.874,264.975 185.312,265.151 186.149 C 265.327 186.986,265.606 188.630,265.771 189.802 C 265.935 190.974,266.377 193.782,266.751 196.043 L 267.432 200.152 283.850 200.231 C 294.233 200.281,300.378 200.201,300.566 200.013 C 300.875 199.704,300.358 196.689,299.821 195.666 C 299.668 195.376,299.543 194.519,299.543 193.764 C 299.543 193.008,299.406 192.390,299.239 192.390 C 299.072 192.390,298.936 192.013,298.938 191.553 C 298.939 191.092,298.672 189.551,298.344 188.128 C 298.016 186.705,297.438 184.170,297.061 182.496 C 296.683 180.822,295.642 176.575,294.746 173.059 C 292.586 164.587,292.531 164.365,292.336 163.390 C 292.243 162.928,292.024 162.461,291.850 162.354 C 291.644 162.227,291.604 162.416,291.736 162.890 C 292.527 165.742,295.054 175.837,295.729 178.843 C 296.180 180.852,296.670 182.907,296.817 183.409 C 297.069 184.268,297.527 186.398,298.945 193.303 C 299.271 194.893,299.673 196.743,299.838 197.412 C 300.003 198.082,300.141 198.938,300.145 199.315 L 300.152 200.000 284.024 200.000 L 267.896 200.000 267.767 199.315 C 267.696 198.938,267.206 195.890,266.678 192.542 C 262.191 164.080,258.328 152.101,252.264 147.844 C 247.711 144.648,243.884 143.909,232.577 144.044 L 224.515 144.140 224.281 145.358 C 223.909 147.298,223.618 148.971,221.634 160.578 C 219.844 171.050,219.376 173.966,217.991 183.257 C 217.654 185.518,217.169 188.737,216.913 190.411 C 216.657 192.085,216.300 194.482,216.120 195.738 C 215.940 196.994,215.726 198.467,215.645 199.011 L 215.498 200.000 200.291 200.000 C 191.026 200.000,185.084 199.888,185.084 199.714 C 185.084 199.408,185.740 196.418,186.457 193.455 C 187.273 190.086,193.014 161.788,194.208 155.251 C 194.376 154.330,194.777 152.207,195.098 150.533 C 195.419 148.858,195.979 145.845,196.342 143.836 C 196.705 141.826,197.190 139.224,197.420 138.052 C 197.649 136.880,198.113 134.346,198.450 132.420 C 198.787 130.495,199.343 127.412,199.687 125.571 C 200.031 123.729,200.727 119.825,201.234 116.895 C 201.741 113.965,202.432 109.992,202.769 108.067 C 203.106 106.142,203.646 102.854,203.968 100.761 C 204.290 98.668,204.702 96.134,204.882 95.129 C 205.209 93.311,205.613 90.654,205.980 87.900 C 206.086 87.104,206.112 86.454,206.038 86.454 C 205.963 86.454,205.316 90.049,204.599 94.444 M279.919 126.273 C 278.752 126.873,276.286 127.993,274.439 128.761 C 270.203 130.523,269.962 131.128,272.987 132.412 C 280.972 135.802,286.331 144.099,291.059 160.394 C 291.272 161.130,291.500 161.573,291.564 161.380 C 291.666 161.076,290.204 155.981,289.501 154.186 C 289.370 153.851,289.086 152.960,288.871 152.207 C 288.655 151.454,288.365 150.707,288.227 150.548 C 288.089 150.389,287.976 150.066,287.976 149.831 C 287.976 149.185,285.144 143.495,283.704 141.248 C 281.527 137.851,277.119 133.878,273.571 132.116 C 270.831 130.755,270.848 130.672,274.125 129.374 C 277.613 127.993,282.077 125.851,282.334 125.435 C 282.637 124.944,282.222 125.088,279.919 126.273 M172.161 151.688 C 172.028 152.659,171.995 153.527,172.086 153.619 C 172.315 153.847,172.692 151.196,172.531 150.492 C 172.460 150.180,172.293 150.718,172.161 151.688 M326.941 182.232 C 326.689 182.318,326.210 182.497,325.875 182.629 C 325.540 182.762,323.760 183.362,321.918 183.963 C 316.828 185.623,314.059 186.593,313.474 186.919 C 313.184 187.082,312.737 187.215,312.481 187.215 C 312.225 187.215,311.778 187.347,311.487 187.509 C 311.197 187.671,309.315 188.299,307.306 188.903 C 305.297 189.508,303.174 190.191,302.588 190.421 C 302.002 190.651,301.251 190.881,300.920 190.932 C 300.063 191.065,299.667 192.405,300.066 193.821 C 300.977 197.051,301.741 200.934,301.606 201.640 C 301.409 202.672,301.998 202.684,303.321 201.674 C 303.870 201.256,304.407 200.913,304.514 200.913 C 304.620 200.913,305.772 200.188,307.072 199.301 C 311.393 196.354,314.610 194.105,314.764 193.922 C 314.848 193.823,315.649 193.222,316.546 192.587 C 317.442 191.952,318.949 190.816,319.894 190.063 C 320.840 189.310,321.956 188.436,322.374 188.121 C 322.793 187.806,323.889 186.952,324.810 186.224 C 325.731 185.495,327.005 184.582,327.642 184.195 C 329.395 183.130,328.842 181.583,326.941 182.232 M327.854 183.070 C 327.854 183.302,327.477 183.736,327.017 184.035 C 326.556 184.334,324.362 185.999,322.140 187.735 C 318.067 190.918,317.476 191.355,310.919 196.032 C 302.092 202.329,301.979 202.386,301.979 200.531 C 301.979 199.818,301.837 198.756,301.664 198.172 C 300.992 195.903,300.434 191.986,300.740 191.681 C 301.066 191.354,303.752 190.426,308.371 189.044 C 309.962 188.568,313.455 187.408,316.134 186.466 C 318.813 185.524,322.002 184.421,323.222 184.015 C 324.442 183.608,325.675 183.139,325.962 182.971 C 326.731 182.523,327.854 182.582,327.854 183.070 M237.595 234.072 C 235.526 234.892,227.394 237.336,222.374 238.647 C 220.365 239.172,218.311 239.726,217.808 239.879 C 217.306 240.031,215.799 240.370,214.460 240.631 C 213.120 240.893,211.134 241.304,210.046 241.545 C 206.707 242.285,198.328 243.712,195.890 243.956 C 195.221 244.024,195.906 244.026,197.412 243.963 C 200.317 243.840,201.590 243.662,206.697 242.668 C 208.455 242.326,211.058 241.830,212.481 241.565 C 215.229 241.054,225.035 238.623,227.183 237.921 C 227.887 237.691,229.901 237.064,231.659 236.527 C 235.264 235.428,238.965 234.104,238.965 233.916 C 238.965 233.724,238.275 233.803,237.595 234.072 M191.020 244.482 C 189.848 244.626,187.588 244.862,185.997 245.008 L 183.105 245.274 185.236 245.303 C 187.523 245.333,194.130 244.632,194.437 244.326 C 194.661 244.101,193.827 244.139,191.020 244.482 M166.438 245.585 C 168.824 245.637,172.728 245.637,175.114 245.585 C 177.500 245.534,175.548 245.492,170.776 245.492 C 166.005 245.492,164.053 245.534,166.438 245.585 " stroke="none" fill="#d49b9f" fill-rule="evenodd"></path><path id="path3" d="M250.620 58.673 C 251.589 58.733,253.096 58.733,253.968 58.672 C 254.841 58.610,254.049 58.561,252.207 58.561 C 250.365 58.562,249.651 58.612,250.620 58.673 M240.719 58.967 C 241.098 59.040,241.646 59.037,241.937 58.961 C 242.228 58.885,241.918 58.825,241.248 58.829 C 240.578 58.832,240.340 58.894,240.719 58.967 M160.658 59.272 C 161.037 59.344,161.585 59.342,161.876 59.265 C 162.167 59.189,161.857 59.130,161.187 59.133 C 160.518 59.136,160.279 59.199,160.658 59.272 M171.617 59.272 C 171.996 59.344,172.544 59.342,172.835 59.265 C 173.126 59.189,172.816 59.130,172.146 59.133 C 171.476 59.136,171.238 59.199,171.617 59.272 M179.528 59.281 C 180.407 59.342,181.846 59.342,182.725 59.281 C 183.604 59.219,182.884 59.169,181.126 59.169 C 179.368 59.169,178.649 59.219,179.528 59.281 M186.986 59.266 C 187.279 59.343,187.759 59.343,188.052 59.266 C 188.345 59.190,188.105 59.127,187.519 59.127 C 186.933 59.127,186.693 59.190,186.986 59.266 M216.532 59.284 C 218.677 59.336,222.101 59.336,224.143 59.284 C 226.184 59.231,224.429 59.188,220.244 59.188 C 216.058 59.188,214.388 59.232,216.532 59.284 M148.801 76.920 C 149.109 77.043,149.074 77.229,148.649 77.733 L 148.097 78.387 148.775 77.813 C 149.453 77.240,149.447 76.691,148.764 76.736 C 148.521 76.752,148.533 76.813,148.801 76.920 M146.956 77.495 C 145.776 78.136,145.909 78.357,147.108 77.747 C 148.256 77.163,148.459 77.012,148.072 77.029 C 147.919 77.036,147.416 77.245,146.956 77.495 M249.543 79.069 C 250.757 79.127,252.744 79.127,253.957 79.069 C 255.171 79.011,254.178 78.964,251.750 78.964 C 249.323 78.964,248.330 79.011,249.543 79.069 M242.694 79.357 C 242.987 79.434,243.467 79.434,243.760 79.357 C 244.053 79.281,243.813 79.218,243.227 79.218 C 242.641 79.218,242.401 79.281,242.694 79.357 M124.581 89.837 C 123.544 90.502,123.208 90.948,124.125 90.444 C 124.823 90.060,125.917 89.214,125.723 89.208 C 125.639 89.206,125.126 89.489,124.581 89.837 M277.428 95.586 C 277.428 97.009,277.480 97.591,277.544 96.880 C 277.608 96.168,277.608 95.004,277.544 94.292 C 277.480 93.581,277.428 94.163,277.428 95.586 M96.637 110.883 L 95.434 112.177 96.728 110.973 C 97.931 109.854,98.161 109.589,97.931 109.589 C 97.881 109.589,97.299 110.171,96.637 110.883 M295.719 114.536 L 294.825 115.525 295.814 114.631 C 296.358 114.139,296.804 113.694,296.804 113.642 C 296.804 113.406,296.552 113.614,295.719 114.536 M91.315 116.210 L 89.346 118.265 91.400 116.295 C 92.530 115.211,93.455 114.287,93.455 114.240 C 93.455 114.016,93.145 114.301,91.315 116.210 M292.984 117.275 L 291.781 118.569 293.075 117.366 C 294.278 116.247,294.508 115.982,294.278 115.982 C 294.228 115.982,293.646 116.564,292.984 117.275 M86.587 121.537 L 85.693 122.527 86.682 121.633 C 87.604 120.799,87.811 120.548,87.576 120.548 C 87.524 120.548,87.078 120.993,86.587 121.537 M230.376 124.426 C 231.260 124.487,232.630 124.487,233.420 124.424 C 234.209 124.362,233.486 124.311,231.811 124.312 C 230.137 124.313,229.491 124.364,230.376 124.426 M241.025 124.422 C 241.572 124.489,242.394 124.488,242.852 124.418 C 243.309 124.349,242.861 124.294,241.857 124.295 C 240.852 124.297,240.478 124.354,241.025 124.422 M277.930 135.559 C 277.930 135.612,278.375 136.057,278.919 136.549 L 279.909 137.443 279.015 136.454 C 278.181 135.531,277.930 135.324,277.930 135.559 M116.073 138.813 C 116.073 139.734,116.130 140.110,116.200 139.650 C 116.270 139.189,116.270 138.436,116.200 137.976 C 116.130 137.515,116.073 137.892,116.073 138.813 M116.065 144.597 C 116.065 145.350,116.124 145.658,116.197 145.282 C 116.269 144.905,116.269 144.288,116.197 143.912 C 116.124 143.535,116.065 143.843,116.065 144.597 M229.318 143.911 C 231.462 143.963,234.887 143.963,236.928 143.911 C 238.969 143.858,237.215 143.815,233.029 143.815 C 228.843 143.816,227.173 143.859,229.318 143.911 M130.289 178.786 C 130.289 178.839,130.734 179.284,131.279 179.776 L 132.268 180.670 131.374 179.680 C 130.540 178.758,130.289 178.551,130.289 178.786 M326.865 182.863 C 327.241 182.936,327.549 183.066,327.549 183.154 C 327.549 183.241,327.241 183.582,326.865 183.911 L 326.180 184.511 327.017 184.001 C 327.477 183.721,327.854 183.302,327.854 183.070 C 327.854 182.803,327.547 182.664,327.017 182.690 C 326.299 182.725,326.277 182.750,326.865 182.863 M299.918 199.087 C 299.918 199.673,299.981 199.912,300.058 199.619 C 300.134 199.326,300.134 198.847,300.058 198.554 C 299.981 198.261,299.918 198.501,299.918 199.087 M131.238 201.094 C 131.218 201.445,131.511 201.993,131.887 202.312 C 132.567 202.887,132.568 202.887,132.071 202.283 C 131.795 201.948,131.503 201.400,131.421 201.065 C 131.279 200.480,131.272 200.481,131.238 201.094 M166.088 201.553 C 165.689 202.353,165.686 202.440,166.066 202.124 C 166.313 201.919,166.514 201.575,166.514 201.358 C 166.514 201.141,166.686 200.895,166.895 200.810 C 167.162 200.703,167.168 200.650,166.917 200.633 C 166.720 200.620,166.347 201.034,166.088 201.553 M77.321 204.871 C 77.679 205.373,78.040 205.784,78.124 205.784 C 78.207 205.784,77.983 205.373,77.626 204.871 C 77.268 204.368,76.907 203.957,76.823 203.957 C 76.739 203.957,76.963 204.368,77.321 204.871 M240.415 204.782 C 240.793 204.854,241.341 204.852,241.632 204.775 C 241.923 204.699,241.613 204.640,240.944 204.643 C 240.274 204.646,240.036 204.709,240.415 204.782 M191.099 205.695 C 191.478 205.768,192.026 205.765,192.317 205.689 C 192.608 205.612,192.298 205.553,191.629 205.556 C 190.959 205.560,190.721 205.622,191.099 205.695 M231.431 205.689 C 231.724 205.766,232.203 205.766,232.496 205.689 C 232.789 205.613,232.549 205.550,231.963 205.550 C 231.377 205.550,231.138 205.613,231.431 205.689 M196.575 206.303 C 196.952 206.376,197.568 206.376,197.945 206.303 C 198.322 206.231,198.014 206.171,197.260 206.171 C 196.507 206.171,196.199 206.231,196.575 206.303 M203.570 206.612 C 204.110 206.680,205.069 206.681,205.701 206.615 C 206.333 206.549,205.890 206.494,204.718 206.493 C 203.546 206.491,203.030 206.545,203.570 206.612 M215.906 206.616 C 216.701 206.679,218.002 206.679,218.798 206.616 C 219.593 206.554,218.942 206.502,217.352 206.502 C 215.761 206.502,215.110 206.554,215.906 206.616 M196.728 243.741 C 197.021 243.818,197.500 243.818,197.793 243.741 C 198.086 243.664,197.846 243.602,197.260 243.602 C 196.674 243.602,196.435 243.664,196.728 243.741 M188.661 244.659 C 189.037 244.732,189.654 244.732,190.030 244.659 C 190.407 244.587,190.099 244.527,189.346 244.527 C 188.592 244.527,188.284 244.587,188.661 244.659 M162.024 245.275 C 162.652 245.341,163.680 245.341,164.307 245.275 C 164.935 245.209,164.422 245.156,163.166 245.156 C 161.910 245.156,161.396 245.209,162.024 245.275 M179.528 245.276 C 180.240 245.340,181.404 245.340,182.116 245.276 C 182.827 245.212,182.245 245.160,180.822 245.160 C 179.399 245.160,178.817 245.212,179.528 245.276 " stroke="none" fill="#b67d7b" fill-rule="evenodd"></path><path id="path4" d="M258.371 58.675 C 260.088 58.729,262.896 58.729,264.612 58.675 C 266.328 58.620,264.924 58.576,261.492 58.576 C 258.059 58.576,256.655 58.620,258.371 58.675 M235.008 59.056 L 227.549 59.225 234.703 59.256 C 238.638 59.273,243.775 59.190,246.119 59.072 L 250.381 58.858 246.423 58.873 C 244.247 58.881,239.110 58.964,235.008 59.056 M270.015 59.069 C 270.936 59.196,272.443 59.293,273.364 59.284 L 275.038 59.268 273.059 59.045 C 270.178 58.722,267.644 58.741,270.015 59.069 M163.556 59.280 C 164.356 59.343,165.589 59.343,166.295 59.279 C 167.002 59.215,166.347 59.163,164.840 59.164 C 163.333 59.165,162.755 59.218,163.556 59.280 M169.178 59.271 C 169.555 59.344,170.171 59.344,170.548 59.271 C 170.925 59.199,170.616 59.139,169.863 59.139 C 169.110 59.139,168.801 59.199,169.178 59.271 M174.353 59.279 C 175.065 59.343,176.229 59.343,176.941 59.279 C 177.652 59.215,177.070 59.163,175.647 59.163 C 174.224 59.163,173.642 59.215,174.353 59.279 M159.082 59.624 C 158.992 59.769,158.846 60.693,158.757 61.679 C 158.561 63.846,158.786 63.524,159.154 61.111 C 159.417 59.387,159.403 59.104,159.082 59.624 M188.958 60.635 C 188.866 61.357,188.426 63.639,187.980 65.705 C 187.534 67.772,187.248 69.541,187.344 69.637 C 187.440 69.734,187.520 69.687,187.521 69.533 C 187.522 69.380,187.995 67.132,188.573 64.537 C 189.150 61.943,189.511 59.709,189.374 59.572 C 189.237 59.435,189.050 59.913,188.958 60.635 M210.200 59.741 C 210.071 60.118,209.292 66.015,208.984 68.950 L 208.824 70.472 209.243 68.645 C 209.474 67.641,209.838 65.381,210.052 63.623 C 210.267 61.865,210.563 60.186,210.711 59.893 C 210.884 59.551,210.864 59.361,210.656 59.361 C 210.477 59.361,210.272 59.532,210.200 59.741 M276.560 59.665 C 277.062 59.793,278.021 59.897,278.691 59.895 L 279.909 59.893 278.539 59.650 C 276.680 59.319,275.243 59.330,276.560 59.665 M280.518 60.274 C 280.852 60.418,281.400 60.536,281.735 60.536 L 282.344 60.536 281.735 60.274 C 281.400 60.130,280.852 60.012,280.518 60.012 L 279.909 60.012 280.518 60.274 M291.045 63.140 C 291.115 63.209,292.131 63.771,293.303 64.389 C 296.201 65.917,299.859 68.581,301.171 70.117 C 301.766 70.815,302.544 71.728,302.899 72.146 C 303.255 72.565,303.137 72.291,302.638 71.537 C 300.881 68.890,297.497 66.111,293.711 64.207 C 291.585 63.138,290.677 62.775,291.045 63.140 M158.153 65.916 C 158.034 67.025,158.006 68.001,158.089 68.084 C 158.173 68.168,158.339 67.329,158.458 66.220 C 158.576 65.111,158.605 64.135,158.521 64.052 C 158.438 63.968,158.272 64.807,158.153 65.916 M157.581 70.276 C 157.451 71.340,157.411 72.277,157.493 72.358 C 157.711 72.576,158.065 69.928,157.932 69.074 C 157.869 68.671,157.711 69.212,157.581 70.276 M186.775 71.098 C 186.660 71.708,186.635 72.277,186.719 72.361 C 186.802 72.444,186.965 72.013,187.079 71.402 C 187.194 70.791,187.219 70.223,187.135 70.139 C 187.052 70.055,186.890 70.487,186.775 71.098 M208.291 73.364 C 208.079 74.954,207.569 78.447,207.157 81.126 C 206.334 86.474,206.316 86.632,206.563 86.384 C 206.727 86.221,207.031 84.506,207.603 80.518 C 207.748 79.513,208.087 77.253,208.358 75.495 C 208.629 73.737,208.812 71.887,208.763 71.385 C 208.715 70.883,208.503 71.773,208.291 73.364 M156.822 75.495 C 156.600 77.085,156.302 79.072,156.158 79.909 C 156.015 80.746,155.673 82.938,155.399 84.779 C 155.124 86.621,154.693 89.361,154.441 90.868 C 154.188 92.374,153.873 94.431,153.742 95.437 C 153.610 96.443,153.277 98.498,153.003 100.003 C 151.991 105.557,151.834 106.577,151.970 106.713 C 152.046 106.790,152.274 105.859,152.476 104.644 C 152.677 103.429,152.966 101.819,153.117 101.065 C 153.268 100.312,153.549 98.668,153.741 97.412 C 153.934 96.157,154.278 94.102,154.506 92.846 C 154.734 91.591,155.005 89.878,155.107 89.041 C 155.209 88.204,155.475 86.492,155.697 85.236 C 155.919 83.980,156.258 81.788,156.449 80.365 C 156.640 78.942,156.941 77.021,157.116 76.097 C 157.292 75.172,157.388 74.008,157.330 73.509 C 157.269 72.985,157.055 73.821,156.822 75.495 M186.207 73.676 C 186.096 74.090,186.017 74.772,186.032 75.190 C 186.051 75.737,186.137 75.614,186.339 74.754 C 186.648 73.436,186.529 72.469,186.207 73.676 M303.599 73.288 C 306.955 79.004,307.409 87.345,304.884 96.921 C 304.447 98.576,304.163 100.003,304.252 100.092 C 304.341 100.181,304.414 100.177,304.414 100.084 C 304.414 99.991,304.768 98.564,305.202 96.913 C 307.320 88.841,307.381 82.272,305.391 76.686 C 304.715 74.787,303.874 73.059,303.627 73.059 C 303.538 73.059,303.525 73.162,303.599 73.288 M185.540 77.017 C 185.425 77.543,185.394 78.037,185.471 78.115 C 185.549 78.192,185.700 77.818,185.807 77.283 C 186.060 76.014,185.815 75.768,185.540 77.017 M143.683 79.414 C 139.666 81.425,136.204 83.272,130.898 86.238 C 130.312 86.565,128.463 87.682,126.788 88.719 C 125.114 89.757,122.713 91.238,121.453 92.010 C 120.193 92.782,118.237 94.074,117.107 94.880 C 115.978 95.687,114.153 96.963,113.052 97.717 C 103.633 104.165,92.226 114.688,85.169 123.440 C 82.564 126.670,81.547 128.059,79.207 131.586 C 63.659 155.015,62.306 181.922,75.668 201.945 C 78.169 205.693,79.320 207.380,79.604 207.714 C 79.772 207.910,80.589 208.892,81.420 209.896 C 83.829 212.802,87.298 216.314,90.259 218.843 C 93.692 221.775,95.878 223.453,95.282 222.698 C 95.030 222.381,94.329 221.760,93.722 221.319 C 85.924 215.653,77.575 205.654,73.251 196.804 C 65.560 181.059,64.779 167.314,70.554 149.315 C 72.437 143.446,81.972 126.332,83.359 126.332 C 83.482 126.332,83.840 125.896,84.155 125.362 C 87.796 119.200,104.438 103.873,115.830 96.191 C 116.667 95.627,117.397 95.054,117.453 94.919 C 117.509 94.783,117.714 94.671,117.910 94.670 C 118.105 94.668,118.950 94.121,119.787 93.455 C 120.624 92.789,121.398 92.242,121.507 92.241 C 121.615 92.239,122.574 91.695,123.638 91.033 C 126.240 89.412,131.640 86.244,134.247 84.809 C 135.000 84.394,136.096 83.773,136.682 83.429 C 138.796 82.187,147.056 78.157,147.197 78.298 C 147.277 78.378,145.518 80.279,143.290 82.524 C 138.990 86.855,136.511 89.628,134.062 92.846 C 131.945 95.629,130.289 97.988,130.289 98.222 C 130.289 98.331,129.912 98.912,129.452 99.513 C 127.169 102.494,123.346 109.413,121.636 113.661 C 120.048 117.605,120.322 117.606,122.036 113.662 C 126.826 102.643,133.754 92.750,143.816 82.565 C 146.673 79.673,149.068 77.241,149.137 77.161 C 149.626 76.604,147.741 77.383,143.683 79.414 M241.857 79.006 C 237.969 79.470,236.174 79.834,238.965 79.592 C 249.813 78.654,257.987 78.714,262.838 79.770 C 264.332 80.095,265.615 80.300,265.690 80.226 C 265.764 80.151,265.501 80.015,265.104 79.924 C 264.708 79.832,263.493 79.540,262.405 79.275 C 259.567 78.584,246.796 78.417,241.857 79.006 M184.915 79.892 C 184.800 80.503,184.775 81.071,184.858 81.155 C 184.942 81.238,185.104 80.807,185.219 80.196 C 185.334 79.585,185.359 79.017,185.275 78.933 C 185.191 78.850,185.029 79.281,184.915 79.892 M234.779 80.070 C 234.403 80.222,234.087 80.384,234.078 80.432 C 234.069 80.479,233.943 81.545,233.798 82.801 C 233.311 87.007,232.263 94.808,231.959 96.479 C 231.794 97.389,231.673 98.553,231.690 99.067 C 231.729 100.235,232.565 94.968,233.450 87.976 C 234.442 80.143,234.303 80.582,235.921 80.161 C 237.063 79.865,237.139 79.805,236.377 79.800 C 235.875 79.797,235.156 79.919,234.779 80.070 M266.362 80.670 C 266.613 80.832,267.024 80.965,267.275 80.965 C 267.681 80.965,267.681 80.932,267.275 80.670 C 267.024 80.507,266.613 80.375,266.362 80.375 C 265.956 80.375,265.956 80.407,266.362 80.670 M184.512 82.344 C 184.487 82.679,184.396 83.295,184.310 83.714 L 184.153 84.475 184.479 83.728 C 184.659 83.317,184.750 82.701,184.682 82.358 C 184.561 81.751,184.557 81.751,184.512 82.344 M271.738 83.371 C 273.491 84.773,274.517 85.873,275.604 87.514 C 276.046 88.180,276.408 88.544,276.408 88.322 C 276.408 87.431,274.390 85.023,272.277 83.393 C 270.266 81.842,269.803 81.822,271.738 83.371 M183.908 85.236 C 183.880 85.654,183.787 86.339,183.701 86.758 L 183.544 87.519 183.871 86.770 C 184.051 86.358,184.144 85.673,184.078 85.248 L 183.957 84.475 183.908 85.236 M205.990 88.704 C 205.868 89.690,205.830 90.559,205.906 90.634 C 206.108 90.836,206.471 88.142,206.331 87.479 C 206.265 87.166,206.111 87.717,205.990 88.704 M183.135 89.224 C 183.024 89.921,182.992 90.552,183.065 90.624 C 183.137 90.697,183.292 90.190,183.409 89.498 C 183.526 88.805,183.558 88.175,183.480 88.097 C 183.402 88.019,183.247 88.526,183.135 89.224 M276.988 91.049 C 277.281 92.369,277.515 92.953,277.578 92.524 C 277.636 92.133,277.510 91.258,277.297 90.580 C 276.644 88.493,276.477 88.746,276.988 91.049 M181.955 95.035 C 181.496 97.264,180.718 101.210,180.225 103.805 C 179.733 106.400,179.109 109.688,178.838 111.111 C 178.369 113.580,177.082 120.698,176.071 126.412 C 175.811 127.880,175.651 129.236,175.714 129.426 C 175.778 129.617,176.147 127.937,176.535 125.693 C 177.444 120.431,181.210 100.311,182.210 95.372 C 182.634 93.277,182.938 91.432,182.885 91.273 C 182.832 91.114,182.413 92.807,181.955 95.035 M205.533 91.819 C 205.503 92.342,205.407 93.232,205.319 93.798 C 205.172 94.738,205.186 94.762,205.486 94.075 C 205.665 93.662,205.761 92.772,205.699 92.096 C 205.607 91.097,205.576 91.045,205.533 91.819 M277.720 95.434 C 277.722 96.438,277.778 96.813,277.846 96.265 C 277.914 95.718,277.913 94.896,277.843 94.439 C 277.774 93.982,277.718 94.429,277.720 95.434 M204.941 95.890 C 204.941 96.476,205.004 96.716,205.080 96.423 C 205.157 96.130,205.157 95.651,205.080 95.358 C 205.004 95.065,204.941 95.304,204.941 95.890 M204.414 98.630 C 204.296 99.489,204.264 100.255,204.342 100.334 C 204.421 100.413,204.579 99.771,204.693 98.909 C 204.807 98.047,204.840 97.280,204.765 97.205 C 204.690 97.130,204.532 97.772,204.414 98.630 M277.370 98.820 C 277.343 99.344,277.253 100.234,277.170 100.799 L 277.019 101.826 277.339 100.805 C 277.515 100.244,277.605 99.353,277.539 98.827 L 277.419 97.869 277.370 98.820 M231.195 101.780 C 231.080 102.703,231.046 103.639,231.121 103.860 C 231.195 104.081,231.355 103.391,231.476 102.327 C 231.597 101.263,231.631 100.327,231.551 100.247 C 231.470 100.167,231.310 100.856,231.195 101.780 M203.793 102.424 C 203.676 103.366,203.645 104.203,203.726 104.284 C 203.806 104.364,203.963 103.653,204.074 102.705 C 204.186 101.756,204.217 100.919,204.142 100.845 C 204.068 100.770,203.911 101.481,203.793 102.424 M276.410 103.501 C 274.542 111.296,267.674 118.351,258.904 121.482 C 258.067 121.781,257.598 122.036,257.862 122.048 C 258.418 122.073,261.559 120.832,263.774 119.711 C 267.929 117.610,272.636 112.828,274.831 108.480 C 275.927 106.309,277.123 102.753,276.940 102.209 C 276.869 101.998,276.631 102.580,276.410 103.501 M230.636 105.087 C 230.534 105.470,230.464 106.263,230.481 106.849 C 230.507 107.712,230.564 107.602,230.786 106.270 C 231.065 104.585,230.971 103.838,230.636 105.087 M203.187 106.164 C 203.078 106.960,202.722 109.169,202.396 111.075 C 202.071 112.980,201.878 114.612,201.968 114.702 C 202.057 114.792,202.131 114.764,202.131 114.639 C 202.131 114.514,202.392 112.882,202.712 111.011 C 203.496 106.425,203.720 104.718,203.538 104.718 C 203.454 104.718,203.297 105.369,203.187 106.164 M301.707 105.361 C 301.549 105.761,300.791 107.033,300.024 108.188 C 299.258 109.343,298.630 110.351,298.630 110.428 C 298.630 110.505,297.767 111.615,296.712 112.895 C 295.005 114.964,293.754 116.680,294.572 115.830 C 297.570 112.713,302.677 105.315,302.176 104.815 C 302.077 104.715,301.866 104.961,301.707 105.361 M151.446 108.980 C 151.329 109.672,151.297 110.303,151.375 110.381 C 151.453 110.459,151.608 109.952,151.720 109.254 C 151.832 108.557,151.863 107.926,151.791 107.854 C 151.718 107.781,151.563 108.288,151.446 108.980 M229.973 109.730 C 229.855 110.672,229.825 111.509,229.905 111.590 C 229.986 111.670,230.143 110.959,230.254 110.011 C 230.366 109.062,230.396 108.225,230.322 108.151 C 230.248 108.076,230.091 108.787,229.973 109.730 M150.837 112.633 C 150.720 113.325,150.688 113.956,150.766 114.034 C 150.844 114.112,151.000 113.605,151.111 112.907 C 151.223 112.209,151.255 111.579,151.182 111.507 C 151.109 111.434,150.954 111.941,150.837 112.633 M229.433 112.641 C 229.323 113.055,229.245 113.805,229.261 114.307 C 229.285 115.036,229.345 114.944,229.560 113.851 C 229.855 112.354,229.758 111.429,229.433 112.641 M150.245 116.151 C 150.131 116.762,150.098 117.322,150.172 117.397 C 150.247 117.471,150.401 117.032,150.516 116.421 C 150.630 115.811,150.663 115.250,150.589 115.175 C 150.514 115.101,150.360 115.540,150.245 116.151 M201.400 116.621 C 201.289 117.319,201.257 117.949,201.330 118.022 C 201.402 118.094,201.557 117.587,201.674 116.895 C 201.791 116.203,201.823 115.572,201.745 115.494 C 201.667 115.416,201.512 115.923,201.400 116.621 M228.781 116.757 C 228.665 117.533,228.638 118.237,228.721 118.321 C 228.805 118.404,228.969 117.838,229.085 117.061 C 229.202 116.285,229.229 115.581,229.145 115.497 C 229.061 115.413,228.897 115.980,228.781 116.757 M292.807 117.095 C 291.426 118.761,284.739 123.409,280.518 125.637 C 279.178 126.344,278.219 126.925,278.387 126.927 C 280.141 126.949,295.036 116.718,293.416 116.604 C 293.311 116.597,293.037 116.817,292.807 117.095 M119.931 117.981 C 119.373 119.449,118.356 123.086,118.235 124.049 C 118.171 124.551,118.445 123.866,118.843 122.527 C 119.241 121.187,119.781 119.480,120.043 118.733 C 120.565 117.250,120.465 116.577,119.931 117.981 M149.650 119.665 C 149.538 120.363,149.507 120.993,149.579 121.066 C 149.652 121.138,149.807 120.631,149.924 119.939 C 150.041 119.247,150.073 118.617,149.995 118.539 C 149.917 118.461,149.761 118.967,149.650 119.665 M200.829 119.711 C 200.671 120.969,199.210 129.124,197.708 137.139 C 196.665 142.700,196.445 143.891,196.073 145.967 C 195.892 146.971,195.468 149.231,195.129 150.989 C 194.791 152.747,194.369 155.008,194.192 156.012 C 194.015 157.017,193.743 158.413,193.587 159.115 C 193.431 159.817,193.314 160.639,193.328 160.941 C 193.358 161.588,193.962 159.040,194.497 156.012 C 194.704 154.840,195.138 152.511,195.461 150.837 C 195.785 149.163,196.196 146.971,196.375 145.967 C 196.821 143.469,197.141 141.803,197.693 139.117 C 197.951 137.861,198.519 134.848,198.956 132.420 C 199.393 129.992,200.017 126.568,200.343 124.810 C 201.032 121.092,201.369 118.417,201.148 118.417 C 201.062 118.417,200.919 118.999,200.829 119.711 M228.175 120.413 C 228.061 121.024,228.028 121.584,228.102 121.659 C 228.177 121.733,228.331 121.294,228.446 120.683 C 228.560 120.072,228.593 119.512,228.519 119.437 C 228.444 119.363,228.290 119.802,228.175 120.413 M149.052 122.948 C 148.934 123.682,148.902 124.346,148.981 124.425 C 149.185 124.629,149.555 122.485,149.397 122.011 C 149.324 121.793,149.169 122.215,149.052 122.948 M256.012 122.374 C 255.606 122.637,255.606 122.670,256.012 122.670 C 256.263 122.670,256.674 122.537,256.925 122.374 C 257.331 122.112,257.331 122.079,256.925 122.079 C 256.674 122.079,256.263 122.212,256.012 122.374 M227.825 123.589 C 227.844 124.081,228.043 124.365,228.393 124.396 C 228.734 124.426,228.769 124.392,228.487 124.303 C 228.243 124.226,227.987 123.864,227.919 123.497 C 227.817 122.948,227.800 122.965,227.825 123.589 M253.577 122.983 L 252.816 123.227 253.577 123.236 C 253.995 123.241,254.612 123.127,254.947 122.983 L 255.556 122.722 254.947 122.731 C 254.612 122.736,253.995 122.849,253.577 122.983 M250.381 123.592 L 249.467 123.824 250.381 123.830 C 250.883 123.833,251.636 123.726,252.055 123.592 L 252.816 123.348 252.055 123.354 C 251.636 123.357,250.883 123.464,250.381 123.592 M244.901 124.201 L 243.379 124.410 244.749 124.435 C 245.502 124.449,246.735 124.351,247.489 124.216 L 248.858 123.973 247.641 123.982 C 246.971 123.988,245.738 124.086,244.901 124.201 M235.540 124.728 C 236.252 124.792,237.416 124.792,238.128 124.728 C 238.839 124.664,238.257 124.612,236.834 124.612 C 235.411 124.612,234.829 124.664,235.540 124.728 M117.707 125.317 C 117.595 125.429,117.512 125.805,117.523 126.154 C 117.541 126.737,117.566 126.730,117.834 126.059 C 118.132 125.314,118.070 124.954,117.707 125.317 M148.416 126.498 C 148.299 127.274,148.272 127.978,148.356 128.062 C 148.440 128.146,148.604 127.579,148.720 126.802 C 148.837 126.026,148.863 125.322,148.780 125.238 C 148.696 125.155,148.532 125.721,148.416 126.498 M116.804 129.687 C 115.739 135.819,115.330 144.181,115.964 146.880 C 116.081 147.382,116.115 145.921,116.038 143.632 C 115.892 139.312,116.276 134.369,117.090 130.075 C 117.351 128.701,117.506 127.403,117.435 127.190 C 117.364 126.976,117.080 128.100,116.804 129.687 M274.429 128.273 C 269.414 130.369,269.158 131.158,272.932 132.878 C 276.973 134.720,280.876 138.152,282.514 141.304 C 282.834 141.920,283.247 142.518,283.431 142.631 C 283.980 142.971,286.766 148.878,288.233 152.816 C 288.576 153.737,288.864 154.268,288.873 153.996 C 288.894 153.349,287.076 148.855,285.591 145.880 C 282.165 139.020,277.860 134.554,272.623 132.428 C 269.709 131.246,270.076 130.390,274.201 128.754 C 276.001 128.041,277.604 127.341,277.763 127.199 C 278.284 126.733,277.543 126.972,274.429 128.273 M147.526 131.751 C 147.216 133.477,147.031 134.955,147.113 135.038 C 147.196 135.120,147.357 134.531,147.473 133.728 C 147.588 132.925,147.823 131.782,147.995 131.189 C 148.167 130.596,148.259 129.774,148.199 129.363 C 148.138 128.951,147.836 130.026,147.526 131.751 M174.920 133.007 C 174.620 134.719,174.438 136.184,174.516 136.261 C 174.709 136.454,175.731 130.694,175.583 130.249 C 175.518 130.054,175.219 131.295,174.920 133.007 M146.472 137.474 C 146.056 139.787,144.107 150.073,142.883 156.413 C 142.452 158.642,142.169 160.536,142.254 160.620 C 142.339 160.705,142.495 160.319,142.601 159.763 C 142.707 159.207,142.916 158.204,143.066 157.534 C 143.216 156.865,143.481 155.495,143.655 154.490 C 144.039 152.281,145.727 143.158,146.105 141.248 C 146.948 137.001,147.091 136.097,146.976 135.753 C 146.906 135.544,146.680 136.319,146.472 137.474 M174.014 138.093 C 173.906 138.879,173.877 139.580,173.949 139.651 C 174.020 139.723,174.174 139.147,174.291 138.370 C 174.407 137.593,174.437 136.892,174.356 136.812 C 174.276 136.731,174.122 137.308,174.014 138.093 M173.389 141.882 C 173.275 142.745,173.242 143.511,173.317 143.586 C 173.392 143.661,173.550 143.020,173.668 142.161 C 173.786 141.303,173.819 140.536,173.740 140.457 C 173.661 140.379,173.504 141.020,173.389 141.882 M224.622 143.735 C 224.057 144.199,223.423 146.764,222.530 152.207 C 222.186 154.300,221.780 156.697,221.629 157.534 C 221.477 158.371,221.197 160.015,221.008 161.187 C 220.818 162.359,220.535 163.979,220.377 164.787 C 220.220 165.595,220.110 166.691,220.133 167.223 C 220.182 168.374,219.978 169.437,221.937 157.839 C 224.191 144.488,224.292 144.076,225.367 143.861 C 226.841 143.566,239.571 143.673,241.857 144.000 C 249.721 145.122,254.725 148.238,257.392 153.672 C 258.053 155.019,258.654 156.059,258.729 155.984 C 258.804 155.909,258.326 154.793,257.667 153.503 C 255.307 148.884,251.284 145.901,245.189 144.252 C 242.117 143.421,225.510 143.003,224.622 143.735 M172.822 145.205 C 172.319 148.261,172.299 149.039,172.771 147.184 C 173.026 146.180,173.192 145.015,173.141 144.597 C 173.075 144.060,172.981 144.239,172.822 145.205 M116.335 149.379 C 116.289 150.586,117.112 154.716,117.868 157.078 C 121.237 167.592,124.959 173.851,132.348 181.431 L 134.277 183.409 134.100 184.932 C 133.943 186.286,133.514 188.504,131.979 195.890 C 130.731 201.899,130.749 201.486,131.688 202.466 L 132.534 203.349 148.631 203.349 C 165.615 203.349,165.483 203.359,166.678 201.908 C 167.286 201.170,167.321 201.165,168.466 201.643 C 169.108 201.911,169.856 202.120,170.129 202.107 C 170.725 202.079,167.807 200.970,167.047 200.937 C 166.754 200.924,166.514 201.109,166.514 201.349 C 166.514 202.997,166.022 203.044,148.752 203.044 L 132.758 203.044 131.955 202.353 L 131.152 201.663 131.627 199.233 C 132.179 196.409,133.354 190.735,134.238 186.627 C 134.577 185.049,134.855 183.712,134.855 183.658 C 134.855 183.603,133.475 182.087,131.787 180.288 C 123.214 171.148,117.574 159.669,116.493 149.163 C 116.390 148.164,116.381 148.177,116.335 149.379 M171.899 150.084 C 171.788 150.498,171.713 151.454,171.731 152.207 C 171.763 153.539,171.771 153.527,172.030 151.750 C 172.313 149.811,172.236 148.825,171.899 150.084 M171.270 154.197 C 171.166 154.470,171.097 155.195,171.116 155.809 C 171.149 156.837,171.172 156.805,171.405 155.413 C 171.665 153.859,171.606 153.324,171.270 154.197 M288.898 154.947 C 288.898 155.198,289.031 155.609,289.193 155.860 C 289.456 156.266,289.488 156.266,289.488 155.860 C 289.488 155.609,289.356 155.198,289.193 154.947 C 288.931 154.541,288.898 154.541,288.898 154.947 M289.507 156.773 C 289.507 157.024,289.640 157.435,289.802 157.686 C 290.064 158.092,290.097 158.092,290.097 157.686 C 290.097 157.435,289.964 157.024,289.802 156.773 C 289.540 156.367,289.507 156.367,289.507 156.773 M170.685 157.991 C 170.028 161.659,169.259 166.866,169.285 167.473 C 169.303 167.867,169.711 165.860,170.193 163.014 C 170.675 160.167,171.026 157.633,170.973 157.382 C 170.920 157.131,170.790 157.405,170.685 157.991 M290.111 158.810 C 290.109 159.177,290.244 159.562,290.411 159.665 C 290.799 159.905,290.799 159.199,290.411 158.600 C 290.171 158.228,290.115 158.268,290.111 158.810 M259.995 159.970 C 259.985 160.137,260.321 161.507,260.741 163.014 C 262.633 169.803,264.936 181.060,266.938 193.303 C 267.280 195.396,267.626 197.451,267.705 197.869 C 267.966 199.235,267.583 195.023,267.291 193.303 C 266.883 190.906,265.778 184.603,265.436 182.725 C 265.276 181.846,265.015 180.407,264.858 179.528 C 264.365 176.782,263.931 174.649,263.482 172.755 C 263.244 171.750,262.767 169.696,262.422 168.189 C 261.545 164.359,260.037 159.253,259.995 159.970 M141.762 161.652 C 141.651 162.066,141.573 162.747,141.587 163.166 C 141.606 163.712,141.693 163.590,141.894 162.730 C 142.203 161.411,142.085 160.445,141.762 161.652 M192.863 162.726 C 192.749 163.337,192.716 163.898,192.790 163.972 C 192.865 164.047,193.019 163.608,193.134 162.997 C 193.248 162.386,193.281 161.825,193.207 161.751 C 193.132 161.676,192.978 162.115,192.863 162.726 M291.329 162.735 C 291.331 163.056,291.473 163.524,291.643 163.775 C 291.868 164.108,291.896 163.985,291.747 163.318 C 291.497 162.199,291.323 161.956,291.329 162.735 M141.096 165.297 C 140.980 165.823,140.954 166.322,141.038 166.406 C 141.122 166.490,141.285 166.127,141.400 165.601 C 141.516 165.075,141.542 164.576,141.458 164.492 C 141.375 164.409,141.211 164.771,141.096 165.297 M191.214 171.278 C 190.496 174.937,188.891 182.630,187.648 188.375 C 185.169 199.833,185.144 200.002,185.921 199.995 C 186.355 199.992,186.373 199.940,186.020 199.717 C 185.649 199.481,185.665 199.103,186.131 197.058 C 188.351 187.317,192.781 165.404,192.625 164.936 C 192.568 164.766,191.933 167.620,191.214 171.278 M291.959 165.145 C 291.950 165.479,292.075 165.959,292.237 166.210 C 292.629 166.815,292.629 166.055,292.237 165.145 L 291.976 164.536 291.959 165.145 M292.542 167.511 C 292.542 167.948,292.684 168.393,292.858 168.501 C 293.066 168.629,293.104 168.400,292.968 167.834 C 292.688 166.667,292.542 166.557,292.542 167.511 M140.509 168.210 C 140.397 168.657,140.364 169.080,140.436 169.152 C 140.507 169.224,140.658 168.918,140.770 168.471 C 140.882 168.025,140.915 167.602,140.843 167.530 C 140.771 167.458,140.621 167.764,140.509 168.210 M168.809 169.614 C 168.698 170.337,168.408 172.230,168.164 173.820 C 167.921 175.411,167.598 177.466,167.447 178.387 C 167.296 179.307,167.010 181.225,166.811 182.648 C 166.613 184.072,166.268 186.332,166.045 187.671 C 165.821 189.011,165.568 191.065,165.482 192.237 C 165.266 195.183,165.669 192.850,167.403 181.126 C 167.737 178.866,168.301 175.122,168.657 172.805 C 169.013 170.489,169.238 168.527,169.157 168.447 C 169.076 168.366,168.919 168.891,168.809 169.614 M219.621 169.697 C 219.504 170.473,219.478 171.177,219.561 171.261 C 219.645 171.345,219.809 170.778,219.925 170.001 C 220.042 169.225,220.069 168.521,219.985 168.437 C 219.901 168.354,219.737 168.920,219.621 169.697 M293.177 169.711 C 293.168 170.046,293.293 170.525,293.455 170.776 C 293.846 171.381,293.846 170.621,293.455 169.711 L 293.193 169.102 293.177 169.711 M139.861 171.520 C 139.747 172.131,139.729 172.707,139.822 172.800 C 139.915 172.893,140.085 172.470,140.200 171.859 C 140.314 171.248,140.332 170.672,140.239 170.579 C 140.146 170.486,139.976 170.909,139.861 171.520 M219.014 173.352 C 218.896 174.295,218.874 175.140,218.964 175.230 C 219.054 175.320,219.224 174.623,219.342 173.680 C 219.460 172.737,219.482 171.892,219.392 171.802 C 219.302 171.712,219.132 172.409,219.014 173.352 M293.926 172.603 C 294.204 174.442,294.591 176.343,295.075 178.234 C 295.332 179.239,295.627 180.454,295.731 180.934 C 295.835 181.414,295.985 181.742,296.065 181.663 C 296.215 181.512,294.597 174.045,294.068 172.451 C 293.768 171.543,293.767 171.544,293.926 172.603 M139.307 174.467 C 139.054 175.736,139.300 175.982,139.574 174.734 C 139.689 174.207,139.721 173.713,139.643 173.636 C 139.565 173.558,139.414 173.932,139.307 174.467 M138.854 176.865 C 138.827 177.283,138.734 177.968,138.648 178.387 L 138.491 179.148 138.818 178.398 C 138.998 177.986,139.091 177.301,139.025 176.876 L 138.904 176.104 138.854 176.865 M218.403 177.612 C 218.287 178.388,218.260 179.092,218.344 179.176 C 218.427 179.259,218.591 178.693,218.708 177.916 C 218.824 177.140,218.851 176.436,218.767 176.352 C 218.683 176.268,218.520 176.835,218.403 177.612 M138.093 180.483 C 137.975 181.216,137.944 181.881,138.022 181.959 C 138.226 182.164,138.596 180.019,138.438 179.545 C 138.365 179.327,138.210 179.749,138.093 180.483 M217.799 181.232 C 217.686 181.990,217.655 182.790,217.732 183.010 C 217.808 183.230,217.974 182.681,218.099 181.792 C 218.225 180.902,218.255 180.102,218.167 180.013 C 218.078 179.925,217.913 180.473,217.799 181.232 M296.326 182.801 C 296.560 184.736,297.242 187.642,297.326 187.062 C 297.375 186.728,297.145 185.426,296.815 184.170 C 296.486 182.915,296.266 182.298,296.326 182.801 M137.481 183.600 C 137.227 184.869,137.473 185.115,137.747 183.866 C 137.863 183.340,137.894 182.846,137.816 182.768 C 137.739 182.691,137.588 183.065,137.481 183.600 M322.527 184.331 C 316.411 186.529,310.282 188.611,305.424 190.139 C 300.299 191.752,300.392 191.667,300.973 194.216 L 301.355 195.890 301.190 193.875 C 301.033 191.955,301.059 191.852,301.730 191.702 C 302.118 191.615,303.394 191.198,304.566 190.775 C 305.738 190.351,308.135 189.565,309.893 189.028 C 311.651 188.490,314.597 187.530,316.438 186.894 C 318.280 186.258,320.675 185.442,321.760 185.079 C 322.845 184.717,323.982 184.288,324.287 184.124 C 324.592 183.961,325.130 183.871,325.483 183.923 C 326.418 184.062,320.960 188.376,310.134 196.057 C 308.006 197.566,306.171 198.953,306.057 199.137 C 305.520 200.007,322.446 187.619,326.584 184.114 C 328.470 182.517,327.417 182.573,322.527 184.331 M217.213 185.554 C 217.097 186.331,217.064 187.028,217.140 187.104 C 217.216 187.180,217.374 186.607,217.490 185.831 C 217.606 185.054,217.639 184.357,217.563 184.281 C 217.487 184.205,217.330 184.778,217.213 185.554 M135.684 191.994 C 133.967 200.186,133.980 200.013,135.084 199.959 C 135.801 199.923,135.823 199.898,135.236 199.785 C 134.256 199.597,134.153 200.325,136.871 188.258 C 137.138 187.074,137.307 185.868,137.247 185.579 C 137.187 185.289,136.484 188.176,135.684 191.994 M297.509 188.737 C 297.610 189.323,298.117 191.788,298.635 194.216 C 299.154 196.644,299.521 198.938,299.451 199.315 C 299.381 199.692,299.458 200.000,299.623 200.000 C 300.017 200.000,299.750 197.581,298.953 193.912 C 298.607 192.321,298.186 190.345,298.018 189.521 C 297.667 187.800,297.234 187.132,297.509 188.737 M216.579 189.790 C 216.461 190.733,216.433 191.573,216.517 191.656 C 216.601 191.740,216.765 191.037,216.883 190.095 C 217.001 189.152,217.029 188.313,216.945 188.229 C 216.861 188.145,216.697 188.848,216.579 189.790 M215.968 193.746 C 215.851 194.522,215.825 195.226,215.908 195.310 C 215.992 195.393,216.156 194.827,216.272 194.050 C 216.389 193.274,216.416 192.570,216.332 192.486 C 216.248 192.402,216.084 192.969,215.968 193.746 M164.982 195.307 C 164.976 195.795,164.787 197.051,164.563 198.097 C 164.338 199.144,164.260 200.000,164.390 200.000 C 164.695 200.000,165.459 194.886,165.194 194.621 C 165.083 194.510,164.988 194.819,164.982 195.307 M215.574 196.834 C 215.501 198.250,214.933 199.641,214.360 199.810 C 214.080 199.893,214.185 199.935,214.594 199.904 C 215.443 199.840,215.950 198.493,215.743 196.848 L 215.623 195.890 215.574 196.834 M301.422 196.347 C 301.437 197.138,301.916 198.437,301.927 197.717 C 301.932 197.382,301.818 196.834,301.674 196.499 C 301.514 196.126,301.416 196.067,301.422 196.347 M302.012 200.087 C 301.979 201.822,301.989 201.842,302.664 201.484 C 304.005 200.771,305.642 199.604,305.500 199.462 C 305.420 199.383,304.777 199.744,304.069 200.264 C 302.574 201.363,302.647 201.388,302.308 199.662 L 302.045 198.326 302.012 200.087 M267.884 199.340 C 267.884 199.746,268.075 200.000,268.378 200.000 C 268.801 200.000,268.813 199.923,268.464 199.467 C 268.240 199.174,268.018 198.877,267.970 198.808 C 267.923 198.738,267.884 198.978,267.884 199.340 M296.880 199.905 C 297.173 199.982,297.652 199.982,297.945 199.905 C 298.238 199.829,297.998 199.766,297.412 199.766 C 296.826 199.766,296.587 199.829,296.880 199.905 M263.014 201.218 C 261.986 201.434,262.000 201.443,263.430 201.482 C 264.609 201.514,265.125 201.709,265.952 202.435 L 266.992 203.349 280.300 203.397 C 287.619 203.423,294.316 203.411,295.182 203.369 C 299.031 203.183,298.870 203.609,293.915 206.712 C 287.685 210.614,287.084 210.965,281.583 213.912 C 280.327 214.584,278.683 215.496,277.930 215.938 C 277.177 216.381,275.698 217.170,274.645 217.694 C 273.591 218.217,272.797 218.712,272.879 218.795 C 273.005 218.920,276.789 217.002,280.459 214.952 C 280.993 214.654,283.006 213.543,284.932 212.484 C 286.857 211.425,289.665 209.779,291.172 208.826 C 292.679 207.872,295.008 206.433,296.347 205.626 C 300.785 202.954,301.315 203.054,282.737 203.049 L 266.997 203.044 266.147 201.979 C 265.274 200.885,264.959 200.808,263.014 201.218 M259.665 201.826 C 258.923 202.064,258.927 202.070,259.817 202.079 C 260.320 202.084,261.005 201.970,261.339 201.826 C 262.172 201.469,260.782 201.469,259.665 201.826 M171.994 202.587 C 175.640 203.815,183.526 205.191,192.846 206.225 C 196.714 206.654,212.407 207.378,212.795 207.145 C 212.884 207.092,215.075 207.020,217.665 206.986 C 222.435 206.923,226.326 206.635,238.356 205.455 C 242.720 205.027,248.304 204.178,247.819 204.017 C 247.601 203.944,246.444 204.041,245.248 204.233 C 223.071 207.784,195.611 207.424,176.712 203.334 C 171.283 202.160,170.233 201.993,171.994 202.587 M254.795 202.610 C 253.874 202.828,252.045 203.182,250.731 203.396 C 249.416 203.610,248.512 203.842,248.721 203.912 C 249.110 204.041,251.326 203.690,256.164 202.732 C 258.000 202.369,258.502 202.194,257.686 202.202 C 257.017 202.208,255.715 202.392,254.795 202.610 M268.037 220.985 C 265.860 222.102,263.531 223.235,262.861 223.503 C 262.192 223.771,260.753 224.398,259.665 224.896 C 257.907 225.700,254.834 227.021,253.120 227.710 C 252.785 227.844,251.160 228.519,249.508 229.209 C 247.856 229.899,244.773 231.089,242.658 231.854 C 239.190 233.108,237.517 233.843,239.117 233.411 C 240.129 233.137,247.261 230.551,248.402 230.044 C 248.988 229.783,250.563 229.135,251.903 228.603 C 253.242 228.070,255.061 227.308,255.945 226.907 C 256.829 226.507,257.606 226.180,257.671 226.180 C 257.736 226.180,259.091 225.563,260.682 224.810 C 262.272 224.056,263.667 223.440,263.780 223.440 C 264.078 223.440,271.940 219.471,272.283 219.146 C 272.888 218.576,271.891 219.008,268.037 220.985 M96.804 223.867 C 96.804 223.934,97.591 224.503,98.554 225.131 C 99.517 225.758,101.058 226.772,101.979 227.384 C 107.808 231.255,117.274 235.566,126.788 238.683 C 130.392 239.864,130.943 240.022,133.638 240.641 C 134.893 240.930,136.250 241.294,136.653 241.450 C 137.794 241.894,148.872 243.857,149.924 243.802 C 150.620 243.766,149.124 243.448,145.814 242.929 C 143.417 242.553,142.791 242.425,138.356 241.393 C 132.151 239.949,128.716 238.997,125.217 237.751 C 123.737 237.224,122.116 236.678,121.613 236.537 C 120.803 236.310,119.056 235.598,114.460 233.619 C 110.468 231.900,104.066 228.453,102.196 227.017 C 101.596 226.556,101.021 226.180,100.917 226.180 C 100.813 226.180,99.921 225.632,98.935 224.962 C 97.234 223.807,96.804 223.586,96.804 223.867 M235.784 234.204 C 234.721 234.585,234.200 234.897,234.523 234.959 C 234.825 235.017,235.222 234.915,235.405 234.732 C 235.588 234.549,235.951 234.393,236.210 234.385 C 236.470 234.378,237.093 234.183,237.595 233.953 C 238.996 233.312,237.816 233.475,235.784 234.204 M230.137 235.973 C 227.399 236.834,221.133 238.535,219.482 238.865 C 219.064 238.949,218.105 239.195,217.352 239.413 C 216.598 239.631,214.817 240.038,213.394 240.319 C 211.971 240.599,210.396 240.950,209.893 241.098 C 209.391 241.247,207.762 241.577,206.274 241.833 C 204.785 242.089,203.484 242.389,203.382 242.501 C 203.280 242.613,203.744 242.609,204.414 242.493 C 205.084 242.376,206.477 242.166,207.511 242.025 C 208.544 241.885,209.516 241.692,209.670 241.596 C 209.824 241.501,211.307 241.138,212.966 240.790 C 216.916 239.960,223.397 238.315,227.397 237.128 C 229.155 236.606,231.005 236.068,231.507 235.932 C 232.821 235.577,234.021 235.045,233.486 235.055 C 233.234 235.059,231.728 235.472,230.137 235.973 M199.391 242.960 C 198.638 243.102,197.222 243.300,196.245 243.400 C 195.268 243.500,194.536 243.648,194.617 243.729 C 194.761 243.873,199.100 243.393,201.826 242.931 L 203.196 242.699 201.979 242.701 C 201.309 242.701,200.145 242.818,199.391 242.960 M150.724 243.976 C 150.863 244.115,155.732 244.634,159.513 244.913 C 163.030 245.172,161.013 244.782,156.353 244.302 C 151.575 243.810,150.495 243.747,150.724 243.976 M190.107 244.140 L 188.280 244.342 190.107 244.376 C 191.111 244.394,192.481 244.296,193.151 244.157 L 194.368 243.906 193.151 243.922 C 192.481 243.931,191.111 244.029,190.107 244.140 M184.018 244.749 L 182.801 244.967 184.018 244.983 C 184.688 244.992,185.921 244.893,186.758 244.763 L 188.280 244.526 186.758 244.528 C 185.921 244.530,184.688 244.629,184.018 244.749 M168.400 245.280 C 170.191 245.334,173.204 245.334,175.097 245.281 C 176.990 245.227,175.525 245.183,171.842 245.183 C 168.158 245.183,166.610 245.227,168.400 245.280 " stroke="none" fill="#b3717c" fill-rule="evenodd"></path></g></svg>