<?xml version="1.0" standalone="no"?>
<!DOCTYPE svg PUBLIC "-//W3C//DTD SVG 20010904//EN"
 "http://www.w3.org/TR/2001/REC-SVG-20010904/DTD/svg10.dtd">
<svg version="1.0" xmlns="http://www.w3.org/2000/svg"
 width="180.000000pt" height="180.000000pt" viewBox="0 0 180.000000 180.000000"
 preserveAspectRatio="xMidYMid meet">

<g transform="translate(0.000000,180.000000) scale(0.100000,-0.100000)"
fill="#000000" stroke="none">
<path d="M660 1665 c-8 -9 -57 -91 -110 -183 l-96 -167 -109 -5 -109 -5 -63
-105 c-34 -58 -63 -108 -63 -112 0 -4 47 -89 105 -188 58 -100 105 -184 105
-185 0 -2 -23 -42 -50 -90 -28 -48 -50 -92 -50 -98 1 -7 27 -57 59 -112 l59
-100 217 -5 217 -5 52 -90 52 -90 126 -3 c104 -2 127 0 138 13 8 9 57 91 110
183 l96 167 109 5 109 5 63 105 c34 58 63 108 63 113 0 4 -47 89 -105 188 -58
100 -105 183 -105 185 0 1 23 41 50 89 28 48 50 92 50 98 -1 7 -27 57 -59 112
l-59 100 -217 5 -217 5 -52 90 -52 90 -126 3 c-104 2 -127 0 -138 -13z m94
-138 l40 -73 -52 -90 -51 -89 425 -3 c233 -1 424 -5 424 -7 0 -3 -24 -46 -52
-95 l-53 -90 -411 0 c-379 0 -412 1 -426 18 -23 26 -108 177 -108 192 0 7 44
89 97 182 110 194 95 189 167 55z m-72 -618 l208 -360 -59 -102 -59 -102 -201
-3 c-128 -1 -201 1 -201 7 0 6 23 49 50 95 l50 85 105 3 105 3 -196 340 c-108
187 -202 352 -210 368 l-15 27 108 0 108 0 207 -361z m863 -11 c55 -94 102
-175 103 -180 2 -4 -45 -8 -105 -8 l-108 0 -54 92 -53 91 -22 -35 c-11 -19
-106 -184 -211 -366 -104 -182 -192 -331 -195 -331 -7 -1 -103 170 -103 183 0
9 168 305 360 634 l54 92 117 0 118 0 99 -172z"/>
</g>
</svg>
